<svg xmlns="http://www.w3.org/2000/svg" class="bg-white cursor-crosshair rounded-xl shadow-xl border border-slate-200 s-BgHh72J5KvB0" viewBox="0 0 600 600" width="600" height="600"><polygon id="border-polygon" fill="white" stroke="#00000033" stroke-width="1" class="s-BgHh72J5KvB0" points="450,40.192378864668385 600,299.99999999999994 450.0000000000001,559.8076211353315 150.00000000000006,559.8076211353316 0,300.0000000000002 149.99999999999966,40.19237886466862"/><!----><defs class="s-BgHh72J5KvB0"><clipPath class="s-BgHh72J5KvB0" id="polygon-clip-6"><polygon class="s-BgHh72J5KvB0" points="450,40.192378864668385 600,299.99999999999994 450.0000000000001,559.8076211353315 150.00000000000006,559.8076211353316 0,300.0000000000002 149.99999999999966,40.19237886466862"/></clipPath></defs><g class="s-BgHh72J5KvB0" clip-path="url(#polygon-clip-6)"><!----><path fill="none" stroke="#1e293b" stroke-width="2" stroke-linecap="round" stroke-linejoin="round" class="s-BgHh72J5KvB0" d="M 350 559.8076211353316 A 49.999999999999986 49.999999999999986 0 0 0 275 516.5063509461097"/><!----><path fill="none" stroke="#1e293b" stroke-width="2" stroke-linecap="round" stroke-linejoin="round" class="s-BgHh72J5KvB0" d="M 275 516.5063509461097 A 49.999999999999986 49.999999999999986 0 0 0 250 559.8076211353316"/><!----><path fill="none" stroke="#1e293b" stroke-width="2" stroke-linecap="round" stroke-linejoin="round" class="s-BgHh72J5KvB0" d="M 350 559.8076211353315 L 350.6366872983722 544.6338772424637 L 352.5048150254103 529.8959613325096 L 355.54148192899703 515.6734907305009 L 359.6837867570146 502.0460827614694 L 364.8688282573456 489.0933547504465 L 371.0337051778725 476.89492402246407 L 378.1155162664777 465.53040790255346 L 386.05136027104373 455.0794237157466 L 394.77833593945314 445.6215887870751 L 404.23354201958824 437.2365204415704 L 414.35407725933163 430.00383600426426 L 425.07704040656563 424.0031528001884 L 436.3395302091729 419.3140881543744 L 448.0786454150358 416.0162593918538 L 460.23148477203677 414.1892838376584 L 472.73514702805846 413.9127788168198 L 485.526730930983 415.2663616543695 L 498.54333522869325 418.3296496753394 L 511.72205866907126 423.182260204761 L 525 429.9038105676658"/><!----><!----></g><!----><!----><!----></svg>