<svg xmlns="http://www.w3.org/2000/svg" class="bg-white cursor-crosshair rounded-xl shadow-xl border border-slate-200 s-BgHh72J5KvB0" viewBox="0 0 600 600" width="600" height="600"><polygon id="border-polygon" fill="white" stroke="#00000033" stroke-width="1" class="s-BgHh72J5KvB0" points="450,40.192378864668385 600,299.99999999999994 450.0000000000001,559.8076211353315 150.00000000000006,559.8076211353316 0,300.0000000000002 149.99999999999966,40.19237886466862"/><!----><defs class="s-BgHh72J5KvB0"><clipPath class="s-BgHh72J5KvB0" id="polygon-clip-6"><polygon class="s-BgHh72J5KvB0" points="450,40.192378864668385 600,299.99999999999994 450.0000000000001,559.8076211353315 150.00000000000006,559.8076211353316 0,300.0000000000002 149.99999999999966,40.19237886466862"/></clipPath></defs><g class="s-BgHh72J5KvB0" clip-path="url(#polygon-clip-6)"><!----><path fill="none" stroke="#1e293b" stroke-width="2" stroke-linecap="round" stroke-linejoin="round" class="s-BgHh72J5KvB0" d="M 525 170.0961894323342 L 500.19168713361637 185.08158364258705 L 477.8461586221146 199.98220583743202 L 457.8346751934774 214.8911351663651 L 440.0284975756873 229.90145077888226 L 424.29888649672677 245.10623182447958 L 410.5171026845784 260.5985574526529 L 398.55440686722466 276.4715068128984 L 388.2820597726482 292.818159054712 L 379.5713221288315 309.73159332758974 L 372.2934546637571 327.3048887810275 L 366.3197181054075 345.6311245645215 L 361.52137318176545 364.80337982756737 L 357.7696806208133 384.9147337196615 L 354.9359011505336 406.0582653902997 L 352.89129549890885 428.32705398897815 L 351.50712439392174 451.8141786651926 L 350.6546485635548 476.61271856843916 L 350.2051287357905 502.81575284821383 L 350.02982563861144 530.5163606540125 L 350 559.8076211353315"/><!----><path fill="none" stroke="#1e293b" stroke-width="2" stroke-linecap="round" stroke-linejoin="round" class="s-BgHh72J5KvB0" d="M 250 559.8076211353316 A 50 50 0 0 1 350 559.8076211353315"/><!----><!----></g><!----><!----><!----></svg>