<svg xmlns="http://www.w3.org/2000/svg" class="bg-white cursor-crosshair rounded-xl shadow-xl border border-slate-200 s-BgHh72J5KvB0" viewBox="0 0 600 600" width="600" height="600"><polygon id="border-polygon" fill="white" stroke="#00000033" stroke-width="1" class="s-BgHh72J5KvB0" points="450,40.192378864668385 600,299.99999999999994 450.0000000000001,559.8076211353315 150.00000000000006,559.8076211353316 0,300.0000000000002 149.99999999999966,40.19237886466862"/><!----><defs class="s-BgHh72J5KvB0"><clipPath class="s-BgHh72J5KvB0" id="polygon-clip-6"><polygon class="s-BgHh72J5KvB0" points="450,40.192378864668385 600,299.99999999999994 450.0000000000001,559.8076211353315 150.00000000000006,559.8076211353316 0,300.0000000000002 149.99999999999966,40.19237886466862"/></clipPath></defs><g class="s-BgHh72J5KvB0" clip-path="url(#polygon-clip-6)"><!----><path fill="none" stroke="#1e293b" stroke-width="2" stroke-linecap="round" stroke-linejoin="round" class="s-BgHh72J5KvB0" d="M 550 213.39745962155615 L 537.1774959674436 221.53571894264726 L 525.3481502541036 230.52252296675343 L 514.5494628599799 240.26358894909526 L 504.81893378507294 250.6646341448932 L 496.19406302938233 261.63137580936785 L 488.71235059290825 273.06953119773976 L 482.4112964756506 284.88481756522947 L 477.32840067760947 296.9829521670576 L 473.5011631987848 309.2696522584446 L 470.96708403917654 321.650635094611 L 469.7636631987848 334.03161793077743 L 469.92840067760943 346.31831802216436 L 471.4987964756507 358.4164526239925 L 474.51235059290826 370.23173899148213 L 479.0065630293824 381.6698943798541 L 485.01893378507305 392.6366360443288 L 492.5869628599799 403.0376812401268 L 501.7481502541035 412.7787472224685 L 512.5399959674436 421.76555124657466 L 525 429.9038105676658"/><!----><path fill="none" stroke="#1e293b" stroke-width="2" stroke-linecap="round" stroke-linejoin="round" class="s-BgHh72J5KvB0" d="M 525 429.9038105676658 L 511.72205866907143 423.18226020476095 L 498.5433352286932 418.3296496753394 L 485.526730930983 415.2663616543696 L 472.73514702805846 413.9127788168198 L 460.23148477203677 414.18928383765837 L 448.0786454150358 416.01625939185385 L 436.33953020917295 419.3140881543743 L 425.0770404065657 424.00315280018833 L 414.3540772593316 430.0038360042643 L 404.2335420195883 437.2365204415704 L 394.7783359394531 445.6215887870751 L 386.0513602710438 455.0794237157466 L 378.11551626647775 465.5304079025535 L 371.03370517787255 476.894924022464 L 364.8688282573456 489.09335475044645 L 359.68378675701456 502.0460827614694 L 355.541481928997 515.6734907305009 L 352.5048150254104 529.8959613325095 L 350.63668729837224 544.6338772424637 L 350 559.8076211353315"/><!----><path fill="none" stroke="#1e293b" stroke-width="2" stroke-linecap="round" stroke-linejoin="round" class="s-BgHh72J5KvB0" d="M 250 559.8076211353316 A 50 50 0 0 1 350 559.8076211353315"/><!----><path fill="none" stroke="#1e293b" stroke-width="2" stroke-linecap="round" stroke-linejoin="round" class="s-BgHh72J5KvB0" d="M 550 213.39745962155615 A 50.00000000000001 50.00000000000001 0 0 1 500 126.79491924311228"/><!----><!----></g><!----><!----><!----></svg>