<svg xmlns="http://www.w3.org/2000/svg" class="bg-white cursor-crosshair rounded-xl shadow-xl border border-slate-200 s-BgHh72J5KvB0" viewBox="0 0 600 600" width="600" height="600"><polygon id="border-polygon" fill="white" stroke="#00000033" stroke-width="1" class="s-BgHh72J5KvB0" points="450,40.192378864668385 600,299.99999999999994 450.0000000000001,559.8076211353315 150.00000000000006,559.8076211353316 0,300.0000000000002 149.99999999999966,40.19237886466862"/><!----><defs class="s-BgHh72J5KvB0"><clipPath class="s-BgHh72J5KvB0" id="polygon-clip-6"><polygon class="s-BgHh72J5KvB0" points="450,40.192378864668385 600,299.99999999999994 450.0000000000001,559.8076211353315 150.00000000000006,559.8076211353316 0,300.0000000000002 149.99999999999966,40.19237886466862"/></clipPath></defs><g class="s-BgHh72J5KvB0" clip-path="url(#polygon-clip-6)"><!----><path fill="none" stroke="#1e293b" stroke-width="2" stroke-linecap="round" stroke-linejoin="round" class="s-BgHh72J5KvB0" d="M 300 40.1923788646685 L 300.5735756386114 69.16970513711554 L 302.3051287357905 95.97181158648797 L 305.21089856355496 120.75672926756563 L 309.30712439392187 143.68248923512837 L 314.61004549890896 164.90712254395598 L 321.13590115053364 184.58866024882826 L 328.9009306208133 202.88513340452516 L 337.92137318176555 219.95457306582645 L 348.2134681054076 235.95501028751198 L 359.7934546637572 251.04447612436155 L 372.67757212883157 265.3810016311551 L 386.88205977264823 279.12261786267214 L 402.42315686722463 292.42735587369293 L 419.31710268457834 305.45324671899704 L 437.5801364967267 318.35832145336445 L 457.22849757568724 331.3006111315749 L 478.2784251934775 344.4381468084083 L 500.74615862211465 357.9289595386443 L 524.6479371336163 371.9310803770627 L 550 386.60254037844385"/><!----><path fill="none" stroke="#1e293b" stroke-width="2" stroke-linecap="round" stroke-linejoin="round" class="s-BgHh72J5KvB0" d="M 550 386.60254037844385 A 200.00000000000003 200.00000000000003 0 0 0 250 559.8076211353316"/><!----><path fill="none" stroke="#1e293b" stroke-width="2" stroke-linecap="round" stroke-linejoin="round" class="s-BgHh72J5KvB0" d="M 350 559.8076211353315 A 99.99999999999997 99.99999999999997 0 0 1 500 473.20508075688775"/><!----><!----></g><!----><!----><!----></svg>