<svg xmlns="http://www.w3.org/2000/svg" class="bg-white cursor-crosshair rounded-xl shadow-xl border border-slate-200 s-BgHh72J5KvB0" viewBox="0 0 600 600" width="600" height="600"><polygon id="border-polygon" fill="white" stroke="#00000033" stroke-width="1" class="s-BgHh72J5KvB0" points="450,40.192378864668385 600,299.99999999999994 450.0000000000001,559.8076211353315 150.00000000000006,559.8076211353316 0,300.0000000000002 149.99999999999966,40.19237886466862"/><!----><defs class="s-BgHh72J5KvB0"><clipPath class="s-BgHh72J5KvB0" id="polygon-clip-6"><polygon class="s-BgHh72J5KvB0" points="450,40.192378864668385 600,299.99999999999994 450.0000000000001,559.8076211353315 150.00000000000006,559.8076211353316 0,300.0000000000002 149.99999999999966,40.19237886466862"/></clipPath></defs><g class="s-BgHh72J5KvB0" clip-path="url(#polygon-clip-6)"><!----><path fill="none" stroke="#1e293b" stroke-width="2" stroke-linecap="round" stroke-linejoin="round" class="s-BgHh72J5KvB0" d="M 300 40.1923788646685 L 300.81793729837216 55.0521885486645 L 303.2048150254103 68.89160310219222 L 307.06023192899704 81.69595710550385 L 312.28378675701464 93.45058513885155 L 318.7750782573456 104.14082178248758 L 326.4337051778725 113.75200161666407 L 335.15926626647774 122.26945922163324 L 344.85136027104386 129.67852917764725 L 355.40958593945317 135.96454606495834 L 366.73354201958824 141.11284446381865 L 378.72282725933167 145.10875895448044 L 391.2770404065657 147.93762411719578 L 404.29578020917296 149.58477453221698 L 417.67864541503576 150.03554477979617 L 431.32523477203677 149.2752694401856 L 445.13514702805844 147.28928309363738 L 459.007980930983 144.0629203204038 L 472.84333522869326 139.5815157007369 L 486.5408086690713 133.830403814889 L 500 126.79491924311228"/><!----><path fill="none" stroke="#1e293b" stroke-width="2" stroke-linecap="round" stroke-linejoin="round" class="s-BgHh72J5KvB0" d="M 500 126.79491924311228 A 499.9999999999998 499.9999999999998 0 0 0 250 559.8076211353316"/><!----><path fill="none" stroke="#1e293b" stroke-width="2" stroke-linecap="round" stroke-linejoin="round" class="s-BgHh72J5KvB0" d="M 350 559.8076211353315 A 399.9999999999998 399.9999999999998 0 0 1 550 213.39745962155615"/><!----><!----></g><!----><!----><!----></svg>