<svg xmlns="http://www.w3.org/2000/svg" class="bg-white cursor-crosshair rounded-xl shadow-xl border border-slate-200 s-BgHh72J5KvB0" viewBox="0 0 600 600" width="600" height="600"><polygon id="border-polygon" fill="white" stroke="#00000033" stroke-width="1" class="s-BgHh72J5KvB0" points="450,40.192378864668385 600,299.99999999999994 450.0000000000001,559.8076211353315 150.00000000000006,559.8076211353316 0,300.0000000000002 149.99999999999966,40.19237886466862"/><!----><defs class="s-BgHh72J5KvB0"><clipPath class="s-BgHh72J5KvB0" id="polygon-clip-6"><polygon class="s-BgHh72J5KvB0" points="450,40.192378864668385 600,299.99999999999994 450.0000000000001,559.8076211353315 150.00000000000006,559.8076211353316 0,300.0000000000002 149.99999999999966,40.19237886466862"/></clipPath></defs><g class="s-BgHh72J5KvB0" clip-path="url(#polygon-clip-6)"><!----><path fill="none" stroke="#1e293b" stroke-width="2" stroke-linecap="round" stroke-linejoin="round" class="s-BgHh72J5KvB0" d="M 350 40.19237886466846 L 350.6366872983722 55.366122757536324 L 352.5048150254103 70.1040386674904 L 355.54148192899703 84.32650926949904 L 359.6837867570147 97.95391723853061 L 364.8688282573456 110.90664524955346 L 371.03370517787255 123.10507597753598 L 378.1155162664777 134.46959209744648 L 386.0513602710438 144.92057628425337 L 394.7783359394532 154.37841121292493 L 404.23354201958824 162.7634795584296 L 414.3540772593317 169.9961639957357 L 425.07704040656563 175.99684719981155 L 436.33953020917295 180.6859118456256 L 448.0786454150358 183.98374060814615 L 460.23148477203677 185.8107161623416 L 472.73514702805846 186.08722118318025 L 485.526730930983 184.7336383456305 L 498.54333522869325 181.6703503246606 L 511.72205866907126 176.81773979523905 L 525 170.0961894323342"/><!----><path fill="none" stroke="#1e293b" stroke-width="2" stroke-linecap="round" stroke-linejoin="round" class="s-BgHh72J5KvB0" d="M 525 170.0961894323342 A 150 150 0 0 0 525 429.9038105676658"/><!----><path fill="none" stroke="#1e293b" stroke-width="2" stroke-linecap="round" stroke-linejoin="round" class="s-BgHh72J5KvB0" d="M 525 429.9038105676658 L 511.72205866907143 423.18226020476095 L 498.5433352286932 418.3296496753394 L 485.526730930983 415.2663616543696 L 472.73514702805846 413.9127788168198 L 460.23148477203677 414.18928383765837 L 448.0786454150358 416.01625939185385 L 436.33953020917295 419.3140881543743 L 425.0770404065657 424.00315280018833 L 414.3540772593316 430.0038360042643 L 404.2335420195883 437.2365204415704 L 394.7783359394531 445.6215887870751 L 386.0513602710438 455.0794237157466 L 378.11551626647775 465.5304079025535 L 371.03370517787255 476.894924022464 L 364.8688282573456 489.09335475044645 L 359.68378675701456 502.0460827614694 L 355.541481928997 515.6734907305009 L 352.5048150254104 529.8959613325095 L 350.63668729837224 544.6338772424637 L 350 559.8076211353315"/><!----><path fill="none" stroke="#1e293b" stroke-width="2" stroke-linecap="round" stroke-linejoin="round" class="s-BgHh72J5KvB0" d="M 250 559.8076211353316 L 250 524.7193028628996 L 249.99999999999997 492.5070549564353 L 249.99999999999997 462.85131404194294 L 250 435.4325167454257 L 250 409.93109969288724 L 250 386.02749951033104 L 250 363.40215282376073 L 250.00000000000003 341.73549625917974 L 250.00000000000003 320.70796644259167 L 250.00000000000006 300.00000000000006 L 250.00000000000006 279.2920335574084 L 250.00000000000006 258.2645037408205 L 250.00000000000009 236.5978471762395 L 250.00000000000006 213.9725004896692 L 250.00000000000009 190.06890030711293 L 250.00000000000009 164.56748325457446 L 250.00000000000006 137.14868595805711 L 250.00000000000006 107.4929450435648 L 250.00000000000003 75.28069713710099 L 250 40.19237886466854"/><!----><!----></g><!----><!----><!----></svg>