<svg xmlns="http://www.w3.org/2000/svg" class="bg-white cursor-crosshair rounded-xl shadow-xl border border-slate-200 s-BgHh72J5KvB0" viewBox="0 0 600 600" width="600" height="600"><polygon id="border-polygon" fill="white" stroke="#00000033" stroke-width="1" class="s-BgHh72J5KvB0" points="450,40.192378864668385 600,299.99999999999994 450.0000000000001,559.8076211353315 150.00000000000006,559.8076211353316 0,300.0000000000002 149.99999999999966,40.19237886466862"/><!----><defs class="s-BgHh72J5KvB0"><clipPath class="s-BgHh72J5KvB0" id="polygon-clip-6"><polygon class="s-BgHh72J5KvB0" points="450,40.192378864668385 600,299.99999999999994 450.0000000000001,559.8076211353315 150.00000000000006,559.8076211353316 0,300.0000000000002 149.99999999999966,40.19237886466862"/></clipPath></defs><g class="s-BgHh72J5KvB0" clip-path="url(#polygon-clip-6)"><!----><path fill="none" stroke="#1e293b" stroke-width="2" stroke-linecap="round" stroke-linejoin="round" class="s-BgHh72J5KvB0" d="M 350 40.19237886466846 A 100 100 0 0 0 500 126.79491924311228"/><!----><path fill="none" stroke="#1e293b" stroke-width="2" stroke-linecap="round" stroke-linejoin="round" class="s-BgHh72J5KvB0" d="M 550 213.39745962155615 A 99.99999999999999 99.99999999999999 0 0 0 550 386.60254037844385"/><!----><path fill="none" stroke="#1e293b" stroke-width="2" stroke-linecap="round" stroke-linejoin="round" class="s-BgHh72J5KvB0" d="M 500 473.20508075688775 A 99.99999999999997 99.99999999999997 0 0 0 350 559.8076211353315"/><!----><path fill="none" stroke="#1e293b" stroke-width="2" stroke-linecap="round" stroke-linejoin="round" class="s-BgHh72J5KvB0" d="M 250 559.8076211353316 L 250 524.7193028628996 L 249.99999999999997 492.5070549564353 L 249.99999999999997 462.85131404194294 L 250 435.4325167454257 L 250 409.93109969288724 L 250 386.02749951033104 L 250 363.40215282376073 L 250.00000000000003 341.73549625917974 L 250.00000000000003 320.70796644259167 L 250.00000000000006 300.00000000000006 L 250.00000000000006 279.2920335574084 L 250.00000000000006 258.2645037408205 L 250.00000000000009 236.5978471762395 L 250.00000000000006 213.9725004896692 L 250.00000000000009 190.06890030711293 L 250.00000000000009 164.56748325457446 L 250.00000000000006 137.14868595805711 L 250.00000000000006 107.4929450435648 L 250.00000000000003 75.28069713710099 L 250 40.19237886466854"/><!----><!----></g><!----><!----><!----></svg>