<svg xmlns="http://www.w3.org/2000/svg" class="bg-white cursor-crosshair rounded-xl shadow-xl border border-slate-200 s-BgHh72J5KvB0" viewBox="0 0 600 600" width="600" height="600"><polygon id="border-polygon" fill="white" stroke="#00000033" stroke-width="1" class="s-BgHh72J5KvB0" points="450,40.192378864668385 600,299.99999999999994 450.0000000000001,559.8076211353315 150.00000000000006,559.8076211353316 0,300.0000000000002 149.99999999999966,40.19237886466862"/><!----><defs class="s-BgHh72J5KvB0"><clipPath class="s-BgHh72J5KvB0" id="polygon-clip-6"><polygon class="s-BgHh72J5KvB0" points="450,40.192378864668385 600,299.99999999999994 450.0000000000001,559.8076211353315 150.00000000000006,559.8076211353316 0,300.0000000000002 149.99999999999966,40.19237886466862"/></clipPath></defs><g class="s-BgHh72J5KvB0" clip-path="url(#polygon-clip-6)"><!----><path fill="none" stroke="#1e293b" stroke-width="2" stroke-linecap="round" stroke-linejoin="round" class="s-BgHh72J5KvB0" d="M 74.99999999999996 170.0961894323342 A 450.0000000000004 450.0000000000004 0 0 0 525 170.0961894323342"/><!----><path fill="none" stroke="#1e293b" stroke-width="2" stroke-linecap="round" stroke-linejoin="round" class="s-BgHh72J5KvB0" d="M 525 170.0961894323342 L 512.5399959674436 178.2344487534253 L 501.7481502541035 187.22125277753148 L 492.58696285998 196.96231875987328 L 485.018933785073 207.36336395567125 L 479.00656302938233 218.3301056201459 L 474.5123505929083 229.7682610085178 L 471.49879647565064 241.58354737600752 L 469.9284006776095 253.6816819778356 L 469.7636631987848 265.9683820692226 L 470.96708403917654 278.34936490538905 L 473.50116319878475 290.7303477415555 L 477.32840067760947 303.0170478329424 L 482.4112964756506 315.11518243477053 L 488.7123505929083 326.93046880226024 L 496.1940630293824 338.36862419063215 L 504.818933785073 349.33536585510683 L 514.54946285998 359.73641105090485 L 525.3481502541035 369.47747703324654 L 537.1774959674436 378.46428105735265 L 550 386.60254037844385"/><!----><path fill="none" stroke="#1e293b" stroke-width="2" stroke-linecap="round" stroke-linejoin="round" class="s-BgHh72J5KvB0" d="M 500 473.20508075688775 A 50.00000000000002 50.00000000000002 0 0 1 550 386.60254037844385"/><!----><path fill="none" stroke="#1e293b" stroke-width="2" stroke-linecap="round" stroke-linejoin="round" class="s-BgHh72J5KvB0" d="M 500 473.20508075688775 L 486.5408086690714 466.16959618511106 L 472.84333522869315 460.4184842992631 L 459.007980930983 455.9370796795963 L 445.1351470280584 452.7107169063627 L 431.32523477203677 450.7247305598144 L 417.6786454150358 449.9644552202039 L 404.2957802091729 450.41522546778305 L 391.2770404065657 452.0623758828043 L 378.7228272593316 454.8912410455197 L 366.73354201958824 458.88715553618147 L 355.4095859394531 464.0354539350417 L 344.85136027104386 470.3214708223528 L 335.15926626647774 477.73054077836696 L 326.4337051778725 486.247998383336 L 318.7750782573456 495.8591782175125 L 312.2837867570146 506.5494148611485 L 307.0602319289969 518.3040428944963 L 303.2048150254103 531.1083968978079 L 300.8179372983722 544.9478114513356 L 300 559.8076211353316"/><!----><!----></g><!----><!----><!----></svg>