<svg xmlns="http://www.w3.org/2000/svg" class="bg-white cursor-crosshair rounded-xl shadow-xl border border-slate-200 s-BgHh72J5KvB0" viewBox="0 0 600 600" width="600" height="600"><polygon id="border-polygon" fill="white" stroke="#00000033" stroke-width="1" class="s-BgHh72J5KvB0" points="450,40.192378864668385 600,299.99999999999994 450.0000000000001,559.8076211353315 150.00000000000006,559.8076211353316 0,300.0000000000002 149.99999999999966,40.19237886466862"/><!----><defs class="s-BgHh72J5KvB0"><clipPath class="s-BgHh72J5KvB0" id="polygon-clip-6"><polygon class="s-BgHh72J5KvB0" points="450,40.192378864668385 600,299.99999999999994 450.0000000000001,559.8076211353315 150.00000000000006,559.8076211353316 0,300.0000000000002 149.99999999999966,40.19237886466862"/></clipPath></defs><g class="s-BgHh72J5KvB0" clip-path="url(#polygon-clip-6)"><!----><path fill="none" stroke="#1e293b" stroke-width="2" stroke-linecap="round" stroke-linejoin="round" class="s-BgHh72J5KvB0" d="M 74.99999999999996 170.0961894323342 L 100.38188850499505 184.08812149452834 L 124.45897011367589 195.9896057490558 L 147.37622337007744 205.86559410120037 L 169.27862681823456 213.78103845624594 L 190.31115900218217 219.80089071947629 L 210.61879846595525 223.99010279617522 L 230.34652375358863 226.41362659162667 L 249.63931340911728 227.13641401111434 L 268.6421459765761 226.22341695992213 L 287.5 223.73958734333394 L 306.357854023424 219.7498770666335 L 325.36068659088266 214.31923803510466 L 344.6534762464114 207.51262215403128 L 364.3812015340447 199.3949813286972 L 384.6888409978178 190.03126746438625 L 405.72137318176544 179.4864324663822 L 427.62377662992265 167.825428239969 L 450.54102988632417 155.11320669043036 L 474.6181114950047 141.41471972305018 L 500 126.79491924311228"/><!----><path fill="none" stroke="#1e293b" stroke-width="2" stroke-linecap="round" stroke-linejoin="round" class="s-BgHh72J5KvB0" d="M 550 213.39745962155615 A 99.99999999999999 99.99999999999999 0 0 0 550 386.60254037844385"/><!----><path fill="none" stroke="#1e293b" stroke-width="2" stroke-linecap="round" stroke-linejoin="round" class="s-BgHh72J5KvB0" d="M 500 473.20508075688775 A 99.99999999999997 99.99999999999997 0 0 0 350 559.8076211353315"/><!----><path fill="none" stroke="#1e293b" stroke-width="2" stroke-linecap="round" stroke-linejoin="round" class="s-BgHh72J5KvB0" d="M 250 559.8076211353316 A 499.9999999999999 499.9999999999999 0 0 1 500 126.79491924311228"/><!----><!----></g><!----><!----><!----></svg>