<svg xmlns="http://www.w3.org/2000/svg" class="bg-white cursor-crosshair rounded-xl shadow-xl border border-slate-200 s-BgHh72J5KvB0" viewBox="0 0 600 600" width="600" height="600"><polygon id="border-polygon" fill="white" stroke="#00000033" stroke-width="1" class="s-BgHh72J5KvB0" points="450,40.192378864668385 600,299.99999999999994 450.0000000000001,559.8076211353315 150.00000000000006,559.8076211353316 0,300.0000000000002 149.99999999999966,40.19237886466862"/><!----><defs class="s-BgHh72J5KvB0"><clipPath class="s-BgHh72J5KvB0" id="polygon-clip-6"><polygon class="s-BgHh72J5KvB0" points="450,40.192378864668385 600,299.99999999999994 450.0000000000001,559.8076211353315 150.00000000000006,559.8076211353316 0,300.0000000000002 149.99999999999966,40.19237886466862"/></clipPath></defs><g class="s-BgHh72J5KvB0" clip-path="url(#polygon-clip-6)"><!----><path fill="none" stroke="#1e293b" stroke-width="2" stroke-linecap="round" stroke-linejoin="round" class="s-BgHh72J5KvB0" d="M 250 40.19237886466854 L 250.00000000000003 75.28069713710073 L 250.00000000000006 107.49294504356482 L 250.00000000000006 137.14868595805726 L 250.00000000000009 164.56748325457448 L 250.00000000000009 190.06890030711293 L 250.00000000000006 213.97250048966907 L 250.00000000000003 236.59784717623938 L 250.00000000000006 258.26450374082043 L 250.00000000000006 279.2920335574085 L 250.00000000000003 300.00000000000006 L 250.00000000000003 320.7079664425917 L 250.00000000000003 341.7354962591797 L 250.00000000000003 363.4021528237607 L 250 386.0274995103309 L 250 409.9310996928872 L 249.99999999999997 435.43251674542563 L 249.99999999999997 462.85131404194294 L 249.99999999999997 492.50705495643535 L 250 524.7193028628992 L 250 559.8076211353316"/><!----><path fill="none" stroke="#1e293b" stroke-width="2" stroke-linecap="round" stroke-linejoin="round" class="s-BgHh72J5KvB0" d="M 350 559.8076211353315 A 99.99999999999997 99.99999999999997 0 0 1 500 473.20508075688775"/><!----><path fill="none" stroke="#1e293b" stroke-width="2" stroke-linecap="round" stroke-linejoin="round" class="s-BgHh72J5KvB0" d="M 550 386.60254037844385 A 400.0000000000001 400.0000000000001 0 0 1 350 40.19237886466846"/><!----><path fill="none" stroke="#1e293b" stroke-width="2" stroke-linecap="round" stroke-linejoin="round" class="s-BgHh72J5KvB0" d="M 74.99999999999996 170.0961894323342 L 88.2779413309286 176.81773979523905 L 101.45666477130678 181.6703503246606 L 114.47326906901696 184.73363834563045 L 127.26485297194161 186.0872211831802 L 139.76851522796318 185.81071616234158 L 151.9213545849642 183.98374060814615 L 163.66046979082708 180.68591184562564 L 174.92295959343434 175.99684719981158 L 185.6459227406684 169.9961639957357 L 195.76645798041176 162.7634795584296 L 205.2216640605469 154.37841121292496 L 213.9486397289562 144.9205762842534 L 221.8844837335223 134.4695920974465 L 228.9662948221275 123.10507597753602 L 235.13117174265443 110.90664524955352 L 240.31621324298544 97.95391723853064 L 244.45851807100306 84.3265092694991 L 247.49518497458968 70.10403866749046 L 249.36331270162776 55.36612275753644 L 250 40.19237886466854"/><!----><!----></g><!----><!----><!----></svg>