<svg xmlns="http://www.w3.org/2000/svg" class="bg-white cursor-crosshair rounded-xl shadow-xl border border-slate-200 s-BgHh72J5KvB0" viewBox="0 0 600 600" width="600" height="600"><polygon id="border-polygon" fill="white" stroke="#00000033" stroke-width="1" class="s-BgHh72J5KvB0" points="450,40.192378864668385 600,299.99999999999994 450.0000000000001,559.8076211353315 150.00000000000006,559.8076211353316 0,300.0000000000002 149.99999999999966,40.19237886466862"/><!----><defs class="s-BgHh72J5KvB0"><clipPath class="s-BgHh72J5KvB0" id="polygon-clip-6"><polygon class="s-BgHh72J5KvB0" points="450,40.192378864668385 600,299.99999999999994 450.0000000000001,559.8076211353315 150.00000000000006,559.8076211353316 0,300.0000000000002 149.99999999999966,40.19237886466862"/></clipPath></defs><g class="s-BgHh72J5KvB0" clip-path="url(#polygon-clip-6)"><!----><path fill="none" stroke="#1e293b" stroke-width="2" stroke-linecap="round" stroke-linejoin="round" class="s-BgHh72J5KvB0" d="M 250 40.19237886466854 L 250.00000000000003 75.28069713710073 L 250.00000000000006 107.49294504356482 L 250.00000000000006 137.14868595805726 L 250.00000000000009 164.56748325457448 L 250.00000000000009 190.06890030711293 L 250.00000000000006 213.97250048966907 L 250.00000000000003 236.59784717623938 L 250.00000000000006 258.26450374082043 L 250.00000000000006 279.2920335574085 L 250.00000000000003 300.00000000000006 L 250.00000000000003 320.7079664425917 L 250.00000000000003 341.7354962591797 L 250.00000000000003 363.4021528237607 L 250 386.0274995103309 L 250 409.9310996928872 L 249.99999999999997 435.43251674542563 L 249.99999999999997 462.85131404194294 L 249.99999999999997 492.50705495643535 L 250 524.7193028628992 L 250 559.8076211353316"/><!----><path fill="none" stroke="#1e293b" stroke-width="2" stroke-linecap="round" stroke-linejoin="round" class="s-BgHh72J5KvB0" d="M 350 559.8076211353315 L 350.00000000000006 524.7193028628994 L 350 492.5070549564352 L 349.99999999999994 462.8513140419428 L 350 435.4325167454257 L 349.99999999999994 409.93109969288713 L 350.00000000000006 386.02749951033104 L 350.00000000000006 363.4021528237606 L 350 341.73549625917957 L 350.00000000000006 320.70796644259156 L 350.00000000000006 300 L 350.00000000000006 279.29203355740833 L 350 258.2645037408204 L 350.00000000000006 236.59784717623938 L 350.00000000000006 213.97250048966907 L 350.00000000000006 190.0689003071128 L 350.00000000000006 164.56748325457437 L 350.00000000000006 137.14868595805703 L 350.00000000000006 107.4929450435647 L 350 75.2806971371009 L 350 40.19237886466846"/><!----><path fill="none" stroke="#1e293b" stroke-width="2" stroke-linecap="round" stroke-linejoin="round" class="s-BgHh72J5KvB0" d="M 74.99999999999996 170.0961894323342 L 105.38737499999996 187.64034856855028 L 133.28400000000002 203.7464725217823 L 158.96662500000002 218.57434297902847 L 182.71200000000002 232.28374162728707 L 204.796875 245.03445015355635 L 225.498 256.9862502448344 L 245.09212499999995 268.2989235881196 L 263.856 279.1322518704101 L 282.06637500000005 289.64601677870417 L 300 299.99999999999994 L 317.933625 310.3539832212958 L 336.14399999999995 320.86774812958976 L 354.90787499999993 331.7010764118803 L 374.50199999999995 343.0137497551654 L 395.203125 354.9655498464436 L 417.288 367.71625837271284 L 441.0333750000001 381.42565702097147 L 466.716 396.2535274782177 L 494.6126249999998 412.3596514314496 L 525 429.9038105676658"/><!----><!----></g><!----><!----><!----></svg>