<svg xmlns="http://www.w3.org/2000/svg" class="bg-white cursor-crosshair rounded-xl shadow-xl border border-slate-200 s-BgHh72J5KvB0" viewBox="0 0 600 600" width="600" height="600"><polygon id="border-polygon" fill="white" stroke="#00000033" stroke-width="1" class="s-BgHh72J5KvB0" points="450,40.192378864668385 600,299.99999999999994 450.0000000000001,559.8076211353315 150.00000000000006,559.8076211353316 0,300.0000000000002 149.99999999999966,40.19237886466862"/><!----><defs class="s-BgHh72J5KvB0"><clipPath class="s-BgHh72J5KvB0" id="polygon-clip-6"><polygon class="s-BgHh72J5KvB0" points="450,40.192378864668385 600,299.99999999999994 450.0000000000001,559.8076211353315 150.00000000000006,559.8076211353316 0,300.0000000000002 149.99999999999966,40.19237886466862"/></clipPath></defs><g class="s-BgHh72J5KvB0" clip-path="url(#polygon-clip-6)"><!----><path fill="none" stroke="#1e293b" stroke-width="2" stroke-linecap="round" stroke-linejoin="round" class="s-BgHh72J5KvB0" d="M 74.99999999999996 170.0961894323342 L 105.38737499999996 187.64034856855028 L 133.28400000000002 203.7464725217823 L 158.96662500000002 218.57434297902847 L 182.71200000000002 232.28374162728707 L 204.796875 245.03445015355635 L 225.498 256.9862502448344 L 245.09212499999995 268.2989235881196 L 263.856 279.1322518704101 L 282.06637500000005 289.64601677870417 L 300 299.99999999999994 L 317.933625 310.3539832212958 L 336.14399999999995 320.86774812958976 L 354.90787499999993 331.7010764118803 L 374.50199999999995 343.0137497551654 L 395.203125 354.9655498464436 L 417.288 367.71625837271284 L 441.0333750000001 381.42565702097147 L 466.716 396.2535274782177 L 494.6126249999998 412.3596514314496 L 525 429.9038105676658"/><!----><path fill="none" stroke="#1e293b" stroke-width="2" stroke-linecap="round" stroke-linejoin="round" class="s-BgHh72J5KvB0" d="M 350 40.19237886466846 A 50 50 0 0 1 250 40.19237886466854"/><!----><path fill="none" stroke="#1e293b" stroke-width="2" stroke-linecap="round" stroke-linejoin="round" class="s-BgHh72J5KvB0" d="M 250 559.8076211353316 A 50 50 0 0 1 350 559.8076211353315"/><!----><!----></g><!----><!----><!----></svg>