<svg xmlns="http://www.w3.org/2000/svg" class="bg-white cursor-crosshair rounded-xl shadow-xl border border-slate-200 s-BgHh72J5KvB0" viewBox="0 0 600 600" width="600" height="600"><polygon id="border-polygon" fill="white" stroke="#00000033" stroke-width="1" class="s-BgHh72J5KvB0" points="450,40.192378864668385 600,299.99999999999994 450.0000000000001,559.8076211353315 150.00000000000006,559.8076211353316 0,300.0000000000002 149.99999999999966,40.19237886466862"/><!----><defs class="s-BgHh72J5KvB0"><clipPath class="s-BgHh72J5KvB0" id="polygon-clip-6"><polygon class="s-BgHh72J5KvB0" points="450,40.192378864668385 600,299.99999999999994 450.0000000000001,559.8076211353315 150.00000000000006,559.8076211353316 0,300.0000000000002 149.99999999999966,40.19237886466862"/></clipPath></defs><g class="s-BgHh72J5KvB0" clip-path="url(#polygon-clip-6)"><!----><path fill="none" stroke="#1e293b" stroke-width="2" stroke-linecap="round" stroke-linejoin="round" class="s-BgHh72J5KvB0" d="M 74.99999999999996 170.0961894323342 L 88.2779413309286 176.81773979523905 L 101.45666477130678 181.6703503246606 L 114.47326906901696 184.73363834563045 L 127.26485297194161 186.0872211831802 L 139.76851522796318 185.81071616234158 L 151.9213545849642 183.98374060814615 L 163.66046979082708 180.68591184562564 L 174.92295959343434 175.99684719981158 L 185.6459227406684 169.9961639957357 L 195.76645798041176 162.7634795584296 L 205.2216640605469 154.37841121292496 L 213.9486397289562 144.9205762842534 L 221.8844837335223 134.4695920974465 L 228.9662948221275 123.10507597753602 L 235.13117174265443 110.90664524955352 L 240.31621324298544 97.95391723853064 L 244.45851807100306 84.3265092694991 L 247.49518497458968 70.10403866749046 L 249.36331270162776 55.36612275753644 L 250 40.19237886466854"/><!----><path fill="none" stroke="#1e293b" stroke-width="2" stroke-linecap="round" stroke-linejoin="round" class="s-BgHh72J5KvB0" d="M 350 40.19237886466846 A 50 50 0 0 1 250 40.19237886466854"/><!----><path fill="none" stroke="#1e293b" stroke-width="2" stroke-linecap="round" stroke-linejoin="round" class="s-BgHh72J5KvB0" d="M 350 40.19237886466846 L 350.6366872983722 55.366122757536324 L 352.5048150254103 70.1040386674904 L 355.54148192899703 84.32650926949904 L 359.6837867570147 97.95391723853061 L 364.8688282573456 110.90664524955346 L 371.03370517787255 123.10507597753598 L 378.1155162664777 134.46959209744648 L 386.0513602710438 144.92057628425337 L 394.7783359394532 154.37841121292493 L 404.23354201958824 162.7634795584296 L 414.3540772593317 169.9961639957357 L 425.07704040656563 175.99684719981155 L 436.33953020917295 180.6859118456256 L 448.0786454150358 183.98374060814615 L 460.23148477203677 185.8107161623416 L 472.73514702805846 186.08722118318025 L 485.526730930983 184.7336383456305 L 498.54333522869325 181.6703503246606 L 511.72205866907126 176.81773979523905 L 525 170.0961894323342"/><!----><path fill="none" stroke="#1e293b" stroke-width="2" stroke-linecap="round" stroke-linejoin="round" class="s-BgHh72J5KvB0" d="M 525 170.0961894323342 L 512.5399959674436 178.2344487534253 L 501.7481502541035 187.22125277753148 L 492.58696285998 196.96231875987328 L 485.018933785073 207.36336395567125 L 479.00656302938233 218.3301056201459 L 474.5123505929083 229.7682610085178 L 471.49879647565064 241.58354737600752 L 469.9284006776095 253.6816819778356 L 469.7636631987848 265.9683820692226 L 470.96708403917654 278.34936490538905 L 473.50116319878475 290.7303477415555 L 477.32840067760947 303.0170478329424 L 482.4112964756506 315.11518243477053 L 488.7123505929083 326.93046880226024 L 496.1940630293824 338.36862419063215 L 504.818933785073 349.33536585510683 L 514.54946285998 359.73641105090485 L 525.3481502541035 369.47747703324654 L 537.1774959674436 378.46428105735265 L 550 386.60254037844385"/><!----><path fill="none" stroke="#1e293b" stroke-width="2" stroke-linecap="round" stroke-linejoin="round" class="s-BgHh72J5KvB0" d="M 500 473.20508075688775 A 50.00000000000002 50.00000000000002 0 0 1 550 386.60254037844385"/><!----><path fill="none" stroke="#1e293b" stroke-width="2" stroke-linecap="round" stroke-linejoin="round" class="s-BgHh72J5KvB0" d="M 500 473.20508075688775 L 486.5408086690714 466.16959618511106 L 472.84333522869315 460.4184842992631 L 459.007980930983 455.9370796795963 L 445.1351470280584 452.7107169063627 L 431.32523477203677 450.7247305598144 L 417.6786454150358 449.9644552202039 L 404.2957802091729 450.41522546778305 L 391.2770404065657 452.0623758828043 L 378.7228272593316 454.8912410455197 L 366.73354201958824 458.88715553618147 L 355.4095859394531 464.0354539350417 L 344.85136027104386 470.3214708223528 L 335.15926626647774 477.73054077836696 L 326.4337051778725 486.247998383336 L 318.7750782573456 495.8591782175125 L 312.2837867570146 506.5494148611485 L 307.0602319289969 518.3040428944963 L 303.2048150254103 531.1083968978079 L 300.8179372983722 544.9478114513356 L 300 559.8076211353316"/><!----><!----></g><!----><!----><!----></svg>