<svg xmlns="http://www.w3.org/2000/svg" class="bg-white cursor-crosshair rounded-xl shadow-xl border border-slate-200 s-BgHh72J5KvB0" viewBox="0 0 600 600" width="600" height="600"><polygon id="border-polygon" fill="white" stroke="#00000033" stroke-width="1" class="s-BgHh72J5KvB0" points="450,40.192378864668385 600,299.99999999999994 450.0000000000001,559.8076211353315 150.00000000000006,559.8076211353316 0,300.0000000000002 149.99999999999966,40.19237886466862"/><!----><defs class="s-BgHh72J5KvB0"><clipPath class="s-BgHh72J5KvB0" id="polygon-clip-6"><polygon class="s-BgHh72J5KvB0" points="450,40.192378864668385 600,299.99999999999994 450.0000000000001,559.8076211353315 150.00000000000006,559.8076211353316 0,300.0000000000002 149.99999999999966,40.19237886466862"/></clipPath></defs><g class="s-BgHh72J5KvB0" clip-path="url(#polygon-clip-6)"><!----><path fill="none" stroke="#1e293b" stroke-width="2" stroke-linecap="round" stroke-linejoin="round" class="s-BgHh72J5KvB0" d="M 350 40.19237886466846 A 50 50 0 0 1 250 40.19237886466854"/><!----><path fill="none" stroke="#1e293b" stroke-width="2" stroke-linecap="round" stroke-linejoin="round" class="s-BgHh72J5KvB0" d="M 250 40.19237886466854 L 249.36331270162782 55.3661227575364 L 247.49518497458968 70.10403866749047 L 244.45851807100303 84.32650926949911 L 240.3162132429854 97.95391723853068 L 235.13117174265443 110.90664524955352 L 228.96629482212754 123.105075977536 L 221.8844837335223 134.4695920974465 L 213.9486397289562 144.92057628425337 L 205.22166406054689 154.37841121292496 L 195.76645798041176 162.7634795584296 L 185.6459227406684 169.99616399573569 L 174.92295959343437 175.99684719981155 L 163.6604697908271 180.68591184562558 L 151.92135458496423 183.98374060814612 L 139.7685152279632 185.81071616234158 L 127.2648529719416 186.0872211831802 L 114.47326906901694 184.73363834563048 L 101.45666477130679 181.67035032466057 L 88.27794133092867 176.81773979523905 L 74.99999999999996 170.0961894323342"/><!----><path fill="none" stroke="#1e293b" stroke-width="2" stroke-linecap="round" stroke-linejoin="round" class="s-BgHh72J5KvB0" d="M 500 126.79491924311228 A 499.9999999999998 499.9999999999998 0 0 0 250 559.8076211353316"/><!----><path fill="none" stroke="#1e293b" stroke-width="2" stroke-linecap="round" stroke-linejoin="round" class="s-BgHh72J5KvB0" d="M 350 559.8076211353315 A 399.9999999999998 399.9999999999998 0 0 1 550 213.39745962155615"/><!----><!----></g><!----><!----><!----></svg>