<svg xmlns="http://www.w3.org/2000/svg" class="bg-white cursor-crosshair rounded-xl shadow-xl border border-slate-200 s-BgHh72J5KvB0" viewBox="0 0 600 600" width="600" height="600"><polygon id="border-polygon" fill="white" stroke="#00000033" stroke-width="1" class="s-BgHh72J5KvB0" points="450,40.192378864668385 600,299.99999999999994 450.0000000000001,559.8076211353315 150.00000000000006,559.8076211353316 0,300.0000000000002 149.99999999999966,40.19237886466862"/><!----><defs class="s-BgHh72J5KvB0"><clipPath class="s-BgHh72J5KvB0" id="polygon-clip-6"><polygon class="s-BgHh72J5KvB0" points="450,40.192378864668385 600,299.99999999999994 450.0000000000001,559.8076211353315 150.00000000000006,559.8076211353316 0,300.0000000000002 149.99999999999966,40.19237886466862"/></clipPath></defs><g class="s-BgHh72J5KvB0" clip-path="url(#polygon-clip-6)"><!----><path fill="none" stroke="#1e293b" stroke-width="2" stroke-linecap="round" stroke-linejoin="round" class="s-BgHh72J5KvB0" d="M 99.99999999999993 126.79491924311222 A 50.00000000000001 50.00000000000001 0 0 1 50.000000000000014 213.39745962155615"/><!----><path fill="none" stroke="#1e293b" stroke-width="2" stroke-linecap="round" stroke-linejoin="round" class="s-BgHh72J5KvB0" d="M 500 126.79491924311228 A 499.9999999999998 499.9999999999998 0 0 0 250 559.8076211353316"/><!----><path fill="none" stroke="#1e293b" stroke-width="2" stroke-linecap="round" stroke-linejoin="round" class="s-BgHh72J5KvB0" d="M 350 559.8076211353315 A 99.99999999999997 99.99999999999997 0 0 1 500 473.20508075688775"/><!----><path fill="none" stroke="#1e293b" stroke-width="2" stroke-linecap="round" stroke-linejoin="round" class="s-BgHh72J5KvB0" d="M 550 386.60254037844385 A 99.99999999999999 99.99999999999999 0 0 1 550 213.39745962155615"/><!----><!----></g><!----><!----><!----></svg>