<svg xmlns="http://www.w3.org/2000/svg" class="bg-white cursor-crosshair rounded-xl shadow-xl border border-slate-200 s-BgHh72J5KvB0" viewBox="0 0 600 600" width="600" height="600"><polygon id="border-polygon" fill="white" stroke="#00000033" stroke-width="1" class="s-BgHh72J5KvB0" points="450,40.192378864668385 600,299.99999999999994 450.0000000000001,559.8076211353315 150.00000000000006,559.8076211353316 0,300.0000000000002 149.99999999999966,40.19237886466862"/><!----><defs class="s-BgHh72J5KvB0"><clipPath class="s-BgHh72J5KvB0" id="polygon-clip-6"><polygon class="s-BgHh72J5KvB0" points="450,40.192378864668385 600,299.99999999999994 450.0000000000001,559.8076211353315 150.00000000000006,559.8076211353316 0,300.0000000000002 149.99999999999966,40.19237886466862"/></clipPath></defs><g class="s-BgHh72J5KvB0" clip-path="url(#polygon-clip-6)"><!----><path fill="none" stroke="#1e293b" stroke-width="2" stroke-linecap="round" stroke-linejoin="round" class="s-BgHh72J5KvB0" d="M 500 126.79491924311228 A 499.9999999999998 499.9999999999998 0 0 0 250 559.8076211353316"/><!----><path fill="none" stroke="#1e293b" stroke-width="2" stroke-linecap="round" stroke-linejoin="round" class="s-BgHh72J5KvB0" d="M 350 559.8076211353315 A 99.99999999999997 99.99999999999997 0 0 1 500 473.20508075688775"/><!----><path fill="none" stroke="#1e293b" stroke-width="2" stroke-linecap="round" stroke-linejoin="round" class="s-BgHh72J5KvB0" d="M 550 386.60254037844385 A 99.99999999999999 99.99999999999999 0 0 1 550 213.39745962155615"/><!----><path fill="none" stroke="#1e293b" stroke-width="2" stroke-linecap="round" stroke-linejoin="round" class="s-BgHh72J5KvB0" d="M 300 40.1923788646685 L 299.18206270162784 55.0521885486645 L 296.79518497458963 68.89160310219222 L 292.939768071003 81.69595710550382 L 287.7162132429855 93.45058513885155 L 281.22492174265443 104.14082178248755 L 273.56629482212753 113.75200161666403 L 264.8407337335223 122.26945922163318 L 255.14863972895623 129.67852917764722 L 244.59041406054686 135.96454606495828 L 233.26645798041176 141.1128444638186 L 221.27717274066836 145.10875895448035 L 208.72295959343433 147.9376241171957 L 195.70421979082707 149.58477453221687 L 182.3213545849642 150.03554477979608 L 168.67476522796318 149.27526944018553 L 154.86485297194156 147.28928309363732 L 140.9920190690169 144.06292032040372 L 127.15666477130675 139.58151570073684 L 113.45919133092863 133.83040381488894 L 99.99999999999993 126.79491924311222"/><!----><path fill="none" stroke="#1e293b" stroke-width="2" stroke-linecap="round" stroke-linejoin="round" class="s-BgHh72J5KvB0" d="M 99.99999999999993 126.79491924311222 A 50.00000000000001 50.00000000000001 0 0 1 50.000000000000014 213.39745962155615"/><!----><!----></g><!----><!----><!----></svg>