<svg xmlns="http://www.w3.org/2000/svg" class="bg-white cursor-crosshair rounded-xl shadow-xl border border-slate-200 s-BgHh72J5KvB0" viewBox="0 0 600 600" width="600" height="600"><polygon id="border-polygon" fill="white" stroke="#00000033" stroke-width="1" class="s-BgHh72J5KvB0" points="450,40.192378864668385 600,299.99999999999994 450.0000000000001,559.8076211353315 150.00000000000006,559.8076211353316 0,300.0000000000002 149.99999999999966,40.19237886466862"/><!----><defs class="s-BgHh72J5KvB0"><clipPath class="s-BgHh72J5KvB0" id="polygon-clip-6"><polygon class="s-BgHh72J5KvB0" points="450,40.192378864668385 600,299.99999999999994 450.0000000000001,559.8076211353315 150.00000000000006,559.8076211353316 0,300.0000000000002 149.99999999999966,40.19237886466862"/></clipPath></defs><g class="s-BgHh72J5KvB0" clip-path="url(#polygon-clip-6)"><!----><path fill="none" stroke="#1e293b" stroke-width="2" stroke-linecap="round" stroke-linejoin="round" class="s-BgHh72J5KvB0" d="M 74.99999999999996 429.9038105676658 A 150 150 0 0 0 74.99999999999996 170.0961894323342"/><!----><path fill="none" stroke="#1e293b" stroke-width="2" stroke-linecap="round" stroke-linejoin="round" class="s-BgHh72J5KvB0" d="M 74.99999999999996 170.0961894323342 A 150 150 0 0 0 300 40.1923788646685"/><!----><path fill="none" stroke="#1e293b" stroke-width="2" stroke-linecap="round" stroke-linejoin="round" class="s-BgHh72J5KvB0" d="M 525 429.9038105676658 L 512.5399959674436 421.76555124657466 L 501.7481502541035 412.7787472224685 L 492.58696285998 403.03768124012674 L 485.018933785073 392.6366360443288 L 479.0065630293824 381.6698943798541 L 474.5123505929083 370.2317389914822 L 471.49879647565064 358.4164526239925 L 469.9284006776094 346.31831802216436 L 469.7636631987848 334.03161793077743 L 470.9670840391765 321.65063509461095 L 473.50116319878475 309.2696522584445 L 477.32840067760947 296.9829521670576 L 482.4112964756506 284.88481756522947 L 488.7123505929083 273.06953119773976 L 496.1940630293824 261.63137580936785 L 504.818933785073 250.66463414489317 L 514.54946285998 240.2635889490952 L 525.3481502541035 230.52252296675343 L 537.1774959674436 221.53571894264735 L 550 213.39745962155615"/><!----><path fill="none" stroke="#1e293b" stroke-width="2" stroke-linecap="round" stroke-linejoin="round" class="s-BgHh72J5KvB0" d="M 500 126.79491924311228 A 499.9999999999998 499.9999999999998 0 0 0 250 559.8076211353316"/><!----><path fill="none" stroke="#1e293b" stroke-width="2" stroke-linecap="round" stroke-linejoin="round" class="s-BgHh72J5KvB0" d="M 350 559.8076211353315 L 350.6366872983722 544.6338772424637 L 352.5048150254103 529.8959613325096 L 355.54148192899703 515.6734907305009 L 359.6837867570146 502.0460827614694 L 364.8688282573456 489.0933547504465 L 371.0337051778725 476.89492402246407 L 378.1155162664777 465.53040790255346 L 386.05136027104373 455.0794237157466 L 394.77833593945314 445.6215887870751 L 404.23354201958824 437.2365204415704 L 414.35407725933163 430.00383600426426 L 425.07704040656563 424.0031528001884 L 436.3395302091729 419.3140881543744 L 448.0786454150358 416.0162593918538 L 460.23148477203677 414.1892838376584 L 472.73514702805846 413.9127788168198 L 485.526730930983 415.2663616543695 L 498.54333522869325 418.3296496753394 L 511.72205866907126 423.182260204761 L 525 429.9038105676658"/><!----><!----></g><!----><!----><!----></svg>