<svg xmlns="http://www.w3.org/2000/svg" class="bg-white cursor-crosshair rounded-xl shadow-xl border border-slate-200 s-BgHh72J5KvB0" viewBox="0 0 600 600" width="600" height="600"><polygon id="border-polygon" fill="white" stroke="#00000033" stroke-width="1" class="s-BgHh72J5KvB0" points="450,40.192378864668385 600,299.99999999999994 450.0000000000001,559.8076211353315 150.00000000000006,559.8076211353316 0,300.0000000000002 149.99999999999966,40.19237886466862"/><!----><defs class="s-BgHh72J5KvB0"><clipPath class="s-BgHh72J5KvB0" id="polygon-clip-6"><polygon class="s-BgHh72J5KvB0" points="450,40.192378864668385 600,299.99999999999994 450.0000000000001,559.8076211353315 150.00000000000006,559.8076211353316 0,300.0000000000002 149.99999999999966,40.19237886466862"/></clipPath></defs><g class="s-BgHh72J5KvB0" clip-path="url(#polygon-clip-6)"><!----><path fill="none" stroke="#1e293b" stroke-width="2" stroke-linecap="round" stroke-linejoin="round" class="s-BgHh72J5KvB0" d="M 74.99999999999996 429.9038105676658 A 150 150 0 0 0 74.99999999999996 170.0961894323342"/><!----><path fill="none" stroke="#1e293b" stroke-width="2" stroke-linecap="round" stroke-linejoin="round" class="s-BgHh72J5KvB0" d="M 250 40.19237886466854 L 250.00000000000003 75.28069713710073 L 250.00000000000006 107.49294504356482 L 250.00000000000006 137.14868595805726 L 250.00000000000009 164.56748325457448 L 250.00000000000009 190.06890030711293 L 250.00000000000006 213.97250048966907 L 250.00000000000003 236.59784717623938 L 250.00000000000006 258.26450374082043 L 250.00000000000006 279.2920335574085 L 250.00000000000003 300.00000000000006 L 250.00000000000003 320.7079664425917 L 250.00000000000003 341.7354962591797 L 250.00000000000003 363.4021528237607 L 250 386.0274995103309 L 250 409.9310996928872 L 249.99999999999997 435.43251674542563 L 249.99999999999997 462.85131404194294 L 249.99999999999997 492.50705495643535 L 250 524.7193028628992 L 250 559.8076211353316"/><!----><path fill="none" stroke="#1e293b" stroke-width="2" stroke-linecap="round" stroke-linejoin="round" class="s-BgHh72J5KvB0" d="M 500 473.20508075688775 A 50.00000000000002 50.00000000000002 0 0 1 550 386.60254037844385"/><!----><path fill="none" stroke="#1e293b" stroke-width="2" stroke-linecap="round" stroke-linejoin="round" class="s-BgHh72J5KvB0" d="M 550 386.60254037844385 L 537.1774959674436 378.46428105735276 L 525.3481502541036 369.47747703324654 L 514.5494628599799 359.7364110509048 L 504.81893378507294 349.33536585510683 L 496.1940630293824 338.36862419063215 L 488.71235059290825 326.93046880226024 L 482.4112964756506 315.1151824347706 L 477.32840067760947 303.0170478329424 L 473.5011631987848 290.7303477415555 L 470.9670840391765 278.34936490538905 L 469.76366319878474 265.96838206922257 L 469.9284006776095 253.68168197783564 L 471.49879647565064 241.58354737600757 L 474.51235059290826 229.76826100851784 L 479.0065630293824 218.3301056201459 L 485.01893378507305 207.36336395567125 L 492.5869628599799 196.96231875987326 L 501.74815025410356 187.2212527775315 L 512.5399959674436 178.2344487534254 L 525 170.0961894323342"/><!----><path fill="none" stroke="#1e293b" stroke-width="2" stroke-linecap="round" stroke-linejoin="round" class="s-BgHh72J5KvB0" d="M 350 40.19237886466846 L 350.00000000000006 75.28069713710065 L 350.00000000000006 107.49294504356473 L 350.00000000000006 137.14868595805714 L 350.0000000000001 164.56748325457437 L 350.00000000000006 190.0689003071128 L 350.0000000000001 213.97250048966896 L 350.0000000000001 236.59784717623927 L 350.00000000000006 258.2645037408203 L 350.00000000000006 279.29203355740844 L 350.00000000000006 299.99999999999994 L 350 320.70796644259167 L 350 341.73549625917957 L 350 363.4021528237605 L 350 386.0274995103308 L 349.99999999999994 409.9310996928871 L 349.99999999999994 435.4325167454257 L 349.99999999999994 462.8513140419429 L 350 492.50705495643524 L 350 524.7193028628991 L 350 559.8076211353315"/><!----><!----></g><!----><!----><!----></svg>