<svg xmlns="http://www.w3.org/2000/svg" class="s-BgHh72J5KvB0" viewBox="0 0 600 600" width="600" height="600">
    <defs class="s-BgHh72J5KvB0">
        <clipPath id="polygon-clip-6" class="s-BgHh72J5KvB0">
            <polygon class="s-BgHh72J5KvB0" points="450,40.192378864668385 600,299.99999999999994 450.0000000000001,559.8076211353315 150.00000000000006,559.8076211353316 0,300.0000000000002 149.99999999999966,40.19237886466862"/>
        </clipPath>
        <filter id="glow" x="-50%" y="-50%" width="200%" height="200%">
            <feGaussianBlur stdDeviation="16" result="smallBlur"/>
            <feGaussianBlur stdDeviation="32" result="mediumBlur"/>
            <feGaussianBlur stdDeviation="64" result="largeBlur"/>
            <feMerge>
                <feMergeNode in="largeBlur"/>
                <feMergeNode in="mediumBlur"/>
                <feMergeNode in="smallBlur"/>
                <feMergeNode in="SourceGraphic"/>
            </feMerge>
        </filter>
        <radialGradient id="redGradient" cx="50%" cy="50%" r="100%">
            <stop id="gradientStop1" offset="7%" style="stop-color:#1e293b;stop-opacity:1"/>
            <stop id="gradientStop2" offset="20%" style="stop-color:#1e293b;stop-opacity:1"/>
        </radialGradient>
        <mask id="pathMask">
            <rect width="100%" height="100%" fill="black"/>
            <path fill="none" stroke="white" stroke-width="2" stroke-linecap="round" stroke-linejoin="round" class="s-BgHh72J5KvB0" d="M 525 429.9038105676658 L 511.72205866907143 423.18226020476095 L 498.5433352286932 418.3296496753394 L 485.526730930983 415.2663616543696 L 472.73514702805846 413.9127788168198 L 460.23148477203677 414.18928383765837 L 448.0786454150358 416.01625939185385 L 436.33953020917295 419.3140881543743 L 425.0770404065657 424.00315280018833 L 414.3540772593316 430.0038360042643 L 404.2335420195883 437.2365204415704 L 394.7783359394531 445.6215887870751 L 386.0513602710438 455.0794237157466 L 378.11551626647775 465.5304079025535 L 371.03370517787255 476.894924022464 L 364.8688282573456 489.09335475044645 L 359.68378675701456 502.0460827614694 L 355.541481928997 515.6734907305009 L 352.5048150254104 529.8959613325095 L 350.63668729837224 544.6338772424637 L 350 559.8076211353315"/>
            <path fill="none" stroke="white" stroke-width="2" stroke-linecap="round" stroke-linejoin="round" class="s-BgHh72J5KvB0" d="M 250 559.8076211353316 L 251.11171823737837 539.0054087609634 L 254.35756384690745 519.5049425974319 L 259.60357317467833 501.3402653261942 L 266.7157825667821 484.54541962870684 L 275.56022836930975 469.1544481864267 L 286.00294692835223 455.20139368081044 L 297.90997459000073 442.72029879331484 L 311.14734770034624 431.7452062053966 L 325.58110260547994 422.3101585985125 L 341.07727565149264 414.44919865411913 L 357.50190318447545 408.1963690536734 L 374.7210215505194 403.58571247863205 L 392.6006670957157 400.65127161045183 L 411.0068761661553 399.42708913058925 L 429.8056851079292 399.9472077205014 L 448.86313026712844 402.2456700616447 L 468.0452479898441 406.3565188354761 L 487.2180746221673 412.3137967234523 L 506.2476465101887 420.1515464070299 L 525 429.9038105676658"/>
            <path fill="none" stroke="white" stroke-width="2" stroke-linecap="round" stroke-linejoin="round" class="s-BgHh72J5KvB0" d="M 525 429.9038105676658 A 150 150 0 0 1 525 170.0961894323342"/>
        </mask>
    </defs>
    <polygon fill="white" id="base-polygon" stroke="none" class="s-BgHh72J5KvB0" points="450,40.192378864668385 600,299.99999999999994 450.0000000000001,559.8076211353315 150.00000000000006,559.8076211353316 0,300.0000000000002 149.99999999999966,40.19237886466862"/>
    <g clip-path="url(#polygon-clip-6)" class="s-BgHh72J5KvB0">
        <polygon id="border-polygon" fill="none" stroke="#ff0000" stroke-width="0" filter="url(#glow)" class="s-BgHh72J5KvB0" points="450,40.192378864668385 600,299.99999999999994 450.0000000000001,559.8076211353315 150.00000000000006,559.8076211353316 0,300.0000000000002 149.99999999999966,40.19237886466862"/>
    </g>
    <g clip-path="url(#polygon-clip-6)" class="s-BgHh72J5KvB0">
        <rect width="100%" height="100%" fill="url(#redGradient)" mask="url(#pathMask)" class="s-BgHh72J5KvB0"/>
    </g>
</svg>