<svg xmlns="http://www.w3.org/2000/svg" class="s-BgHh72J5KvB0" viewBox="0 0 600 600" width="600" height="600">
    <defs class="s-BgHh72J5KvB0">
        <clipPath id="polygon-clip-6" class="s-BgHh72J5KvB0">
            <polygon class="s-BgHh72J5KvB0" points="450,40.192378864668385 600,299.99999999999994 450.0000000000001,559.8076211353315 150.00000000000006,559.8076211353316 0,300.0000000000002 149.99999999999966,40.19237886466862"/>
        </clipPath>
        <filter id="glow" x="-50%" y="-50%" width="200%" height="200%">
            <feGaussianBlur stdDeviation="16" result="smallBlur"/>
            <feGaussianBlur stdDeviation="32" result="mediumBlur"/>
            <feGaussianBlur stdDeviation="64" result="largeBlur"/>
            <feMerge>
                <feMergeNode in="largeBlur"/>
                <feMergeNode in="mediumBlur"/>
                <feMergeNode in="smallBlur"/>
                <feMergeNode in="SourceGraphic"/>
            </feMerge>
        </filter>
        <radialGradient id="redGradient" cx="50%" cy="50%" r="100%">
            <stop id="gradientStop1" offset="7%" style="stop-color:#1e293b;stop-opacity:1"/>
            <stop id="gradientStop2" offset="20%" style="stop-color:#1e293b;stop-opacity:1"/>
        </radialGradient>
        <mask id="pathMask">
            <rect width="100%" height="100%" fill="black"/>
            <path fill="none" stroke="white" stroke-width="2" stroke-linecap="round" stroke-linejoin="round" class="s-BgHh72J5KvB0" d="M 525 170.0961894323342 L 500.19168713361637 185.08158364258705 L 477.8461586221146 199.98220583743202 L 457.8346751934774 214.8911351663651 L 440.0284975756873 229.90145077888226 L 424.29888649672677 245.10623182447958 L 410.5171026845784 260.5985574526529 L 398.55440686722466 276.4715068128984 L 388.2820597726482 292.818159054712 L 379.5713221288315 309.73159332758974 L 372.2934546637571 327.3048887810275 L 366.3197181054075 345.6311245645215 L 361.52137318176545 364.80337982756737 L 357.7696806208133 384.9147337196615 L 354.9359011505336 406.0582653902997 L 352.89129549890885 428.32705398897815 L 351.50712439392174 451.8141786651926 L 350.6546485635548 476.61271856843916 L 350.2051287357905 502.81575284821383 L 350.02982563861144 530.5163606540125 L 350 559.8076211353315"/>
            <path fill="none" stroke="white" stroke-width="2" stroke-linecap="round" stroke-linejoin="round" class="s-BgHh72J5KvB0" d="M 250 559.8076211353316 L 250.6104892347332 527.4330521735938 L 252.45816973162044 497.4473750672283 L 255.56736067969342 469.67856393466616 L 259.9623812679838 443.95459289433785 L 265.6675506855232 420.1034360646742 L 272.70718812134317 397.9530675641059 L 281.1056127644753 377.3314615110635 L 290.88714380395146 358.0665920239777 L 302.0761004288031 339.9864332212792 L 314.69680182806184 322.9189592213988 L 328.7735671907593 306.69214414276695 L 344.3307157059272 291.1339621038146 L 361.39256656259715 276.0723872229723 L 379.9834389498007 261.33539361867065 L 400.12765205656956 246.75095540934038 L 421.8495250719354 232.14704671341224 L 445.1733771849296 217.35164164931678 L 470.12352758458417 202.19271433548494 L 496.7242954599302 186.49823889034735 L 525 170.0961894323342"/>
        </mask>
    </defs>
    <polygon fill="white" id="base-polygon" stroke="none" class="s-BgHh72J5KvB0" points="450,40.192378864668385 600,299.99999999999994 450.0000000000001,559.8076211353315 150.00000000000006,559.8076211353316 0,300.0000000000002 149.99999999999966,40.19237886466862"/>
    <g clip-path="url(#polygon-clip-6)" class="s-BgHh72J5KvB0">
        <polygon id="border-polygon" fill="none" stroke="#ff0000" stroke-width="0" filter="url(#glow)" class="s-BgHh72J5KvB0" points="450,40.192378864668385 600,299.99999999999994 450.0000000000001,559.8076211353315 150.00000000000006,559.8076211353316 0,300.0000000000002 149.99999999999966,40.19237886466862"/>
    </g>
    <g clip-path="url(#polygon-clip-6)" class="s-BgHh72J5KvB0">
        <rect width="100%" height="100%" fill="url(#redGradient)" mask="url(#pathMask)" class="s-BgHh72J5KvB0"/>
    </g>
</svg>