<svg xmlns="http://www.w3.org/2000/svg" class="s-BgHh72J5KvB0" viewBox="0 0 600 600" width="600" height="600">
    <defs class="s-BgHh72J5KvB0">
        <clipPath id="polygon-clip-6" class="s-BgHh72J5KvB0">
            <polygon class="s-BgHh72J5KvB0" points="450,40.192378864668385 600,299.99999999999994 450.0000000000001,559.8076211353315 150.00000000000006,559.8076211353316 0,300.0000000000002 149.99999999999966,40.19237886466862"/>
        </clipPath>
        <filter id="glow" x="-50%" y="-50%" width="200%" height="200%">
            <feGaussianBlur stdDeviation="16" result="smallBlur"/>
            <feGaussianBlur stdDeviation="32" result="mediumBlur"/>
            <feGaussianBlur stdDeviation="64" result="largeBlur"/>
            <feMerge>
                <feMergeNode in="largeBlur"/>
                <feMergeNode in="mediumBlur"/>
                <feMergeNode in="smallBlur"/>
                <feMergeNode in="SourceGraphic"/>
            </feMerge>
        </filter>
        <radialGradient id="redGradient" cx="50%" cy="50%" r="100%">
            <stop id="gradientStop1" offset="7%" style="stop-color:#1e293b;stop-opacity:1"/>
            <stop id="gradientStop2" offset="20%" style="stop-color:#1e293b;stop-opacity:1"/>
        </radialGradient>
        <mask id="pathMask">
            <rect width="100%" height="100%" fill="black"/>
            <path fill="none" stroke="white" stroke-width="2" stroke-linecap="round" stroke-linejoin="round" class="s-BgHh72J5KvB0" d="M 525 429.9038105676658 L 507.17811474756724 418.53992814506154 L 490.8756384690747 405.9787103086814 L 476.13007116452246 392.35319432672287 L 462.9789128339106 377.7964174673831 L 451.45966347723896 362.4414169988595 L 441.60982309450765 346.4212301893492 L 433.4668916857165 329.86889430704974 L 427.0683692508658 312.91744662015833 L 422.45175578995537 295.69992439687235 L 419.6545513029853 278.34936490538905 L 418.7142557899554 260.9988054139057 L 419.66836925086585 243.78128319061972 L 422.5543916857166 226.82983550372833 L 427.4098230945076 210.2774996214289 L 434.2721634772389 194.25731281191867 L 443.1789128339106 178.90231234339498 L 454.1675711645224 164.34553548405518 L 467.2756384690747 150.72001950209665 L 482.5406147475672 138.15880166571665 L 500 126.79491924311228"/>
            <path fill="none" stroke="white" stroke-width="2" stroke-linecap="round" stroke-linejoin="round" class="s-BgHh72J5KvB0" d="M 525 429.9038105676658 L 512.5399959674436 421.76555124657466 L 501.7481502541035 412.7787472224685 L 492.58696285998 403.03768124012674 L 485.018933785073 392.6366360443288 L 479.0065630293824 381.6698943798541 L 474.5123505929083 370.2317389914822 L 471.49879647565064 358.4164526239925 L 469.9284006776094 346.31831802216436 L 469.7636631987848 334.03161793077743 L 470.9670840391765 321.65063509461095 L 473.50116319878475 309.2696522584445 L 477.32840067760947 296.9829521670576 L 482.4112964756506 284.88481756522947 L 488.7123505929083 273.06953119773976 L 496.1940630293824 261.63137580936785 L 504.818933785073 250.66463414489317 L 514.54946285998 240.2635889490952 L 525.3481502541035 230.52252296675343 L 537.1774959674436 221.53571894264735 L 550 213.39745962155615"/>
            <path fill="none" stroke="white" stroke-width="2" stroke-linecap="round" stroke-linejoin="round" class="s-BgHh72J5KvB0" d="M 525 429.9038105676658 L 506.2476465101889 420.1515464070299 L 487.21807462216725 412.31379672345224 L 468.0452479898441 406.3565188354761 L 448.86313026712844 402.2456700616447 L 429.8056851079292 399.9472077205014 L 411.00687616615534 399.42708913058925 L 392.6006670957158 400.6512716104518 L 374.7210215505195 403.5857124786321 L 357.5019031844754 408.19636905367344 L 341.07727565149264 414.44919865411913 L 325.5811026054799 422.31015859851243 L 311.14734770034636 431.7452062053966 L 297.90997459000084 442.72029879331484 L 286.00294692835234 455.2013936808104 L 275.5602283693097 469.1544481864267 L 266.7157825667821 484.5454196287069 L 259.60357317467833 501.3402653261941 L 254.35756384690748 519.5049425974319 L 251.11171823737845 539.0054087609632 L 250 559.8076211353316"/>
            <path fill="none" stroke="white" stroke-width="2" stroke-linecap="round" stroke-linejoin="round" class="s-BgHh72J5KvB0" d="M 525 429.9038105676658 L 511.72205866907143 423.18226020476095 L 498.5433352286932 418.3296496753394 L 485.526730930983 415.2663616543696 L 472.73514702805846 413.9127788168198 L 460.23148477203677 414.18928383765837 L 448.0786454150358 416.01625939185385 L 436.33953020917295 419.3140881543743 L 425.0770404065657 424.00315280018833 L 414.3540772593316 430.0038360042643 L 404.2335420195883 437.2365204415704 L 394.7783359394531 445.6215887870751 L 386.0513602710438 455.0794237157466 L 378.11551626647775 465.5304079025535 L 371.03370517787255 476.894924022464 L 364.8688282573456 489.09335475044645 L 359.68378675701456 502.0460827614694 L 355.541481928997 515.6734907305009 L 352.5048150254104 529.8959613325095 L 350.63668729837224 544.6338772424637 L 350 559.8076211353315"/>
        </mask>
    </defs>
    <polygon fill="white" id="base-polygon" stroke="none" class="s-BgHh72J5KvB0" points="450,40.192378864668385 600,299.99999999999994 450.0000000000001,559.8076211353315 150.00000000000006,559.8076211353316 0,300.0000000000002 149.99999999999966,40.19237886466862"/>
    <g clip-path="url(#polygon-clip-6)" class="s-BgHh72J5KvB0">
        <polygon id="border-polygon" fill="none" stroke="#ff0000" stroke-width="0" filter="url(#glow)" class="s-BgHh72J5KvB0" points="450,40.192378864668385 600,299.99999999999994 450.0000000000001,559.8076211353315 150.00000000000006,559.8076211353316 0,300.0000000000002 149.99999999999966,40.19237886466862"/>
    </g>
    <g clip-path="url(#polygon-clip-6)" class="s-BgHh72J5KvB0">
        <rect width="100%" height="100%" fill="url(#redGradient)" mask="url(#pathMask)" class="s-BgHh72J5KvB0"/>
    </g>
</svg>