<svg xmlns="http://www.w3.org/2000/svg" class="s-BgHh72J5KvB0" viewBox="0 0 600 600" width="600" height="600">
    <defs class="s-BgHh72J5KvB0">
        <clipPath id="polygon-clip-6" class="s-BgHh72J5KvB0">
            <polygon class="s-BgHh72J5KvB0" points="450,40.192378864668385 600,299.99999999999994 450.0000000000001,559.8076211353315 150.00000000000006,559.8076211353316 0,300.0000000000002 149.99999999999966,40.19237886466862"/>
        </clipPath>
        <filter id="glow" x="-50%" y="-50%" width="200%" height="200%">
            <feGaussianBlur stdDeviation="16" result="smallBlur"/>
            <feGaussianBlur stdDeviation="32" result="mediumBlur"/>
            <feGaussianBlur stdDeviation="64" result="largeBlur"/>
            <feMerge>
                <feMergeNode in="largeBlur"/>
                <feMergeNode in="mediumBlur"/>
                <feMergeNode in="smallBlur"/>
                <feMergeNode in="SourceGraphic"/>
            </feMerge>
        </filter>
        <radialGradient id="redGradient" cx="50%" cy="50%" r="100%">
            <stop id="gradientStop1" offset="7%" style="stop-color:#1e293b;stop-opacity:1"/>
            <stop id="gradientStop2" offset="20%" style="stop-color:#1e293b;stop-opacity:1"/>
        </radialGradient>
        <mask id="pathMask">
            <rect width="100%" height="100%" fill="black"/>
            <path fill="none" stroke="white" stroke-width="2" stroke-linecap="round" stroke-linejoin="round" class="s-BgHh72J5KvB0" d="M 550 386.60254037844385 A 99.99999999999999 99.99999999999999 0 0 1 550 213.39745962155615"/>
            <path fill="none" stroke="white" stroke-width="2" stroke-linecap="round" stroke-linejoin="round" class="s-BgHh72J5KvB0" d="M 550 386.60254037844385 L 534.2915996415167 376.74497139257795 L 519.5235572155053 365.8980933316907 L 505.77087272196565 354.1718294263402 L 493.10854616089813 341.67610290708427 L 481.61157753230253 328.52083700448077 L 471.3549668361788 314.81595494908777 L 462.41371407252706 300.67137997146307 L 454.8628192413472 286.1970353021646 L 448.7772823426393 271.50284417175027 L 444.2321033764033 256.69872981077805 L 441.3022823426393 241.89461544980583 L 440.06281924134714 227.20042431939157 L 440.58871407252707 212.72607965009314 L 442.95496683617876 198.58150467246844 L 447.2365775323025 184.87662261707536 L 453.50854616089816 171.72135671447188 L 461.84587272196563 159.22563019521593 L 472.3235572155052 147.49936628986543 L 485.0165996415166 136.6524882289783 L 500 126.79491924311228"/>
            <path fill="none" stroke="white" stroke-width="2" stroke-linecap="round" stroke-linejoin="round" class="s-BgHh72J5KvB0" d="M 500 473.20508075688775 A 99.99999999999997 99.99999999999997 0 0 0 350 559.8076211353315"/>
            <path fill="none" stroke="white" stroke-width="2" stroke-linecap="round" stroke-linejoin="round" class="s-BgHh72J5KvB0" d="M 500 473.20508075688775 L 483.6088946594408 464.52999148655755 L 466.83120149395467 457.1639306119089 L 449.7996168136708 451.11688842294666 L 432.64683692871847 446.3988552096757 L 415.5055581492269 443.01982126210083 L 398.5084767853251 440.989776870227 L 381.78828914714256 440.3187123240591 L 365.4776915448083 441.01661791360203 L 349.7093802884516 443.09348392886056 L 334.61605168820165 446.55930065983955 L 320.33040205418763 451.42405839654407 L 306.98512769653894 457.6977474289788 L 294.7129249253845 465.3903580471487 L 283.6464900508537 474.51188054105853 L 273.9185193830756 485.0723052007134 L 265.66170923217965 497.08162231611794 L 259.0087559082948 510.54982217727724 L 254.09235572155052 525.486895074196 L 251.04520498207592 541.9028312968792 L 250 559.8076211353316"/>
        </mask>
    </defs>
    <polygon fill="white" id="base-polygon" stroke="none" class="s-BgHh72J5KvB0" points="450,40.192378864668385 600,299.99999999999994 450.0000000000001,559.8076211353315 150.00000000000006,559.8076211353316 0,300.0000000000002 149.99999999999966,40.19237886466862"/>
    <g clip-path="url(#polygon-clip-6)" class="s-BgHh72J5KvB0">
        <polygon id="border-polygon" fill="none" stroke="#ff0000" stroke-width="0" filter="url(#glow)" class="s-BgHh72J5KvB0" points="450,40.192378864668385 600,299.99999999999994 450.0000000000001,559.8076211353315 150.00000000000006,559.8076211353316 0,300.0000000000002 149.99999999999966,40.19237886466862"/>
    </g>
    <g clip-path="url(#polygon-clip-6)" class="s-BgHh72J5KvB0">
        <rect width="100%" height="100%" fill="url(#redGradient)" mask="url(#pathMask)" class="s-BgHh72J5KvB0"/>
    </g>
</svg>