<svg xmlns="http://www.w3.org/2000/svg" class="s-BgHh72J5KvB0" viewBox="0 0 600 600" width="600" height="600">
    <defs class="s-BgHh72J5KvB0">
        <clipPath id="polygon-clip-6" class="s-BgHh72J5KvB0">
            <polygon class="s-BgHh72J5KvB0" points="450,40.192378864668385 600,299.99999999999994 450.0000000000001,559.8076211353315 150.00000000000006,559.8076211353316 0,300.0000000000002 149.99999999999966,40.19237886466862"/>
        </clipPath>
        <filter id="glow" x="-50%" y="-50%" width="200%" height="200%">
            <feGaussianBlur stdDeviation="16" result="smallBlur"/>
            <feGaussianBlur stdDeviation="32" result="mediumBlur"/>
            <feGaussianBlur stdDeviation="64" result="largeBlur"/>
            <feMerge>
                <feMergeNode in="largeBlur"/>
                <feMergeNode in="mediumBlur"/>
                <feMergeNode in="smallBlur"/>
                <feMergeNode in="SourceGraphic"/>
            </feMerge>
        </filter>
        <radialGradient id="redGradient" cx="50%" cy="50%" r="100%">
            <stop id="gradientStop1" offset="7%" style="stop-color:#1e293b;stop-opacity:1"/>
            <stop id="gradientStop2" offset="20%" style="stop-color:#1e293b;stop-opacity:1"/>
        </radialGradient>
        <mask id="pathMask">
            <rect width="100%" height="100%" fill="black"/>
            <path fill="none" stroke="white" stroke-width="2" stroke-linecap="round" stroke-linejoin="round" class="s-BgHh72J5KvB0" d="M 300 40.1923788646685 L 300.5735756386114 69.16970513711554 L 302.3051287357905 95.97181158648797 L 305.21089856355496 120.75672926756563 L 309.30712439392187 143.68248923512837 L 314.61004549890896 164.90712254395598 L 321.13590115053364 184.58866024882826 L 328.9009306208133 202.88513340452516 L 337.92137318176555 219.95457306582645 L 348.2134681054076 235.95501028751198 L 359.7934546637572 251.04447612436155 L 372.67757212883157 265.3810016311551 L 386.88205977264823 279.12261786267214 L 402.42315686722463 292.42735587369293 L 419.31710268457834 305.45324671899704 L 437.5801364967267 318.35832145336445 L 457.22849757568724 331.3006111315749 L 478.2784251934775 344.4381468084083 L 500.74615862211465 357.9289595386443 L 524.6479371336163 371.9310803770627 L 550 386.60254037844385"/>
            <path fill="none" stroke="white" stroke-width="2" stroke-linecap="round" stroke-linejoin="round" class="s-BgHh72J5KvB0" d="M 500 473.20508075688775 L 472.26804545993036 456.48909709000293 L 447.2235275845841 439.8961202884388 L 424.72962718492965 423.3190763759099 L 404.64952507193533 406.6508913761307 L 386.84640205656956 389.7844913128157 L 371.1834389498008 372.61280220967956 L 357.52381656259723 355.0287500904366 L 345.7307157059273 336.9252609788013 L 335.66731719075943 318.1952608984884 L 327.1968018280619 298.7316758732123 L 320.18235042880315 278.42743192668746 L 314.4871438039516 257.17545508262856 L 309.97436276447553 234.86867136474996 L 306.5071881213433 211.40000679676626 L 303.9488006855233 186.6623874023918 L 302.1623812679839 160.5487392053413 L 301.01111067969345 132.95198822932915 L 300.3581697316205 103.76506049807003 L 300.0667392347333 72.88088203527847 L 300 40.1923788646685"/>
            <path fill="none" stroke="white" stroke-width="2" stroke-linecap="round" stroke-linejoin="round" class="s-BgHh72J5KvB0" d="M 250 559.8076211353316 A 50 50 0 0 1 350 559.8076211353315"/>
        </mask>
    </defs>
    <polygon fill="white" id="base-polygon" stroke="none" class="s-BgHh72J5KvB0" points="450,40.192378864668385 600,299.99999999999994 450.0000000000001,559.8076211353315 150.00000000000006,559.8076211353316 0,300.0000000000002 149.99999999999966,40.19237886466862"/>
    <g clip-path="url(#polygon-clip-6)" class="s-BgHh72J5KvB0">
        <polygon id="border-polygon" fill="none" stroke="#ff0000" stroke-width="0" filter="url(#glow)" class="s-BgHh72J5KvB0" points="450,40.192378864668385 600,299.99999999999994 450.0000000000001,559.8076211353315 150.00000000000006,559.8076211353316 0,300.0000000000002 149.99999999999966,40.19237886466862"/>
    </g>
    <g clip-path="url(#polygon-clip-6)" class="s-BgHh72J5KvB0">
        <rect width="100%" height="100%" fill="url(#redGradient)" mask="url(#pathMask)" class="s-BgHh72J5KvB0"/>
    </g>
</svg>