<svg xmlns="http://www.w3.org/2000/svg" class="s-BgHh72J5KvB0" viewBox="0 0 600 600" width="600" height="600">
    <defs class="s-BgHh72J5KvB0">
        <clipPath id="polygon-clip-6" class="s-BgHh72J5KvB0">
            <polygon class="s-BgHh72J5KvB0" points="450,40.192378864668385 600,299.99999999999994 450.0000000000001,559.8076211353315 150.00000000000006,559.8076211353316 0,300.0000000000002 149.99999999999966,40.19237886466862"/>
        </clipPath>
        <filter id="glow" x="-50%" y="-50%" width="200%" height="200%">
            <feGaussianBlur stdDeviation="16" result="smallBlur"/>
            <feGaussianBlur stdDeviation="32" result="mediumBlur"/>
            <feGaussianBlur stdDeviation="64" result="largeBlur"/>
            <feMerge>
                <feMergeNode in="largeBlur"/>
                <feMergeNode in="mediumBlur"/>
                <feMergeNode in="smallBlur"/>
                <feMergeNode in="SourceGraphic"/>
            </feMerge>
        </filter>
        <radialGradient id="redGradient" cx="50%" cy="50%" r="100%">
            <stop id="gradientStop1" offset="7%" style="stop-color:#1e293b;stop-opacity:1"/>
            <stop id="gradientStop2" offset="20%" style="stop-color:#1e293b;stop-opacity:1"/>
        </radialGradient>
        <mask id="pathMask">
            <rect width="100%" height="100%" fill="black"/>
            <path fill="none" stroke="white" stroke-width="2" stroke-linecap="round" stroke-linejoin="round" class="s-BgHh72J5KvB0" d="M 300 40.1923788646685 L 299.6375 75.42536815067359 L 298.6 107.73660148747699 L 296.9625000000001 137.45071842499004 L 294.80000000000007 164.89235851312407 L 292.1875000000001 190.38616130179028 L 289.2000000000001 214.25676634089996 L 285.9125000000001 236.8288131803645 L 282.4000000000001 258.4269413700953 L 278.7375 279.37579046000326 L 275.00000000000006 300.00000000000006 L 271.2625 320.6242095399969 L 267.59999999999997 341.57305862990484 L 264.08750000000003 363.1711868196355 L 260.8 385.74323365910004 L 257.81249999999994 409.61383869820975 L 255.2 435.10764148687605 L 253.03749999999997 462.5492815750101 L 251.39999999999998 492.2633985125231 L 250.3625 524.5746318493264 L 250 559.8076211353316"/>
            <path fill="none" stroke="white" stroke-width="2" stroke-linecap="round" stroke-linejoin="round" class="s-BgHh72J5KvB0" d="M 350 559.8076211353315 L 349.63750000000005 524.5746318493265 L 348.59999999999997 492.26339851252294 L 346.9625 462.54928157501 L 344.79999999999995 435.10764148687605 L 342.18749999999994 409.6138386982097 L 339.20000000000005 385.7432336591001 L 335.9125 363.1711868196355 L 332.40000000000003 341.5730586299048 L 328.7375 320.62420953999674 L 325.00000000000006 300 L 321.26250000000005 279.3757904600032 L 317.6 258.4269413700952 L 314.08750000000003 236.82881318036453 L 310.80000000000007 214.25676634090004 L 307.81250000000006 190.3861613017902 L 305.2 164.892358513124 L 303.0375 137.45071842498993 L 301.40000000000003 107.73660148747697 L 300.3625 75.4253681506738 L 300 40.1923788646685"/>
            <path fill="none" stroke="white" stroke-width="2" stroke-linecap="round" stroke-linejoin="round" class="s-BgHh72J5KvB0" d="M 525 170.0961894323342 L 512.5399959674436 178.2344487534253 L 501.7481502541035 187.22125277753148 L 492.58696285998 196.96231875987328 L 485.018933785073 207.36336395567125 L 479.00656302938233 218.3301056201459 L 474.5123505929083 229.7682610085178 L 471.49879647565064 241.58354737600752 L 469.9284006776095 253.6816819778356 L 469.7636631987848 265.9683820692226 L 470.96708403917654 278.34936490538905 L 473.50116319878475 290.7303477415555 L 477.32840067760947 303.0170478329424 L 482.4112964756506 315.11518243477053 L 488.7123505929083 326.93046880226024 L 496.1940630293824 338.36862419063215 L 504.818933785073 349.33536585510683 L 514.54946285998 359.73641105090485 L 525.3481502541035 369.47747703324654 L 537.1774959674436 378.46428105735265 L 550 386.60254037844385"/>
            <path fill="none" stroke="white" stroke-width="2" stroke-linecap="round" stroke-linejoin="round" class="s-BgHh72J5KvB0" d="M 500 473.20508075688775 L 482.5406147475672 461.8411983342835 L 467.27563846907464 449.27998049790335 L 454.1675711645225 435.6544645159448 L 443.1789128339106 421.097687656605 L 434.27216347723896 405.74268718808145 L 427.4098230945076 389.72250037857117 L 422.5543916857165 373.17016449627175 L 419.66836925086585 356.21871680938034 L 418.71425578995536 339.00119458609436 L 419.6545513029853 321.650635094611 L 422.45175578995537 304.30007560312765 L 427.0683692508658 287.08255337984167 L 433.4668916857166 270.1311056929503 L 441.6098230945076 253.57876981065084 L 451.4596634772389 237.55858300114062 L 462.9789128339106 222.2035825326169 L 476.1300711645224 207.64680567327713 L 490.8756384690748 194.02128969131857 L 507.1781147475672 181.46007185493858 L 525 170.0961894323342"/>
        </mask>
    </defs>
    <polygon fill="white" id="base-polygon" stroke="none" class="s-BgHh72J5KvB0" points="450,40.192378864668385 600,299.99999999999994 450.0000000000001,559.8076211353315 150.00000000000006,559.8076211353316 0,300.0000000000002 149.99999999999966,40.19237886466862"/>
    <g clip-path="url(#polygon-clip-6)" class="s-BgHh72J5KvB0">
        <polygon id="border-polygon" fill="none" stroke="#ff0000" stroke-width="0" filter="url(#glow)" class="s-BgHh72J5KvB0" points="450,40.192378864668385 600,299.99999999999994 450.0000000000001,559.8076211353315 150.00000000000006,559.8076211353316 0,300.0000000000002 149.99999999999966,40.19237886466862"/>
    </g>
    <g clip-path="url(#polygon-clip-6)" class="s-BgHh72J5KvB0">
        <rect width="100%" height="100%" fill="url(#redGradient)" mask="url(#pathMask)" class="s-BgHh72J5KvB0"/>
    </g>
</svg>