<svg xmlns="http://www.w3.org/2000/svg" class="s-BgHh72J5KvB0" viewBox="0 0 600 600" width="600" height="600">
    <defs class="s-BgHh72J5KvB0">
        <clipPath id="polygon-clip-6" class="s-BgHh72J5KvB0">
            <polygon class="s-BgHh72J5KvB0" points="450,40.192378864668385 600,299.99999999999994 450.0000000000001,559.8076211353315 150.00000000000006,559.8076211353316 0,300.0000000000002 149.99999999999966,40.19237886466862"/>
        </clipPath>
        <filter id="glow" x="-50%" y="-50%" width="200%" height="200%">
            <feGaussianBlur stdDeviation="16" result="smallBlur"/>
            <feGaussianBlur stdDeviation="32" result="mediumBlur"/>
            <feGaussianBlur stdDeviation="64" result="largeBlur"/>
            <feMerge>
                <feMergeNode in="largeBlur"/>
                <feMergeNode in="mediumBlur"/>
                <feMergeNode in="smallBlur"/>
                <feMergeNode in="SourceGraphic"/>
            </feMerge>
        </filter>
        <radialGradient id="redGradient" cx="50%" cy="50%" r="100%">
            <stop id="gradientStop1" offset="7%" style="stop-color:#1e293b;stop-opacity:1"/>
            <stop id="gradientStop2" offset="20%" style="stop-color:#1e293b;stop-opacity:1"/>
        </radialGradient>
        <mask id="pathMask">
            <rect width="100%" height="100%" fill="black"/>
            <path fill="none" stroke="white" stroke-width="2" stroke-linecap="round" stroke-linejoin="round" class="s-BgHh72J5KvB0" d="M 300 40.1923788646685 A 150 150 0 0 0 525 170.0961894323342"/>
            <path fill="none" stroke="white" stroke-width="2" stroke-linecap="round" stroke-linejoin="round" class="s-BgHh72J5KvB0" d="M 525 170.0961894323342 L 496.7242954599304 186.49823889034715 L 470.1235275845841 202.19271433548494 L 445.1733771849296 217.35164164931683 L 421.8495250719354 232.1470467134122 L 400.12765205656956 246.75095540934038 L 379.98343894980076 261.3353936186706 L 361.39256656259715 276.07238722297217 L 344.3307157059272 291.1339621038146 L 328.7735671907593 306.692144142767 L 314.6968018280618 322.9189592213987 L 302.07610042880304 339.98643322127924 L 290.88714380395146 358.0665920239776 L 281.1056127644754 377.3314615110634 L 272.70718812134317 397.95306756410577 L 265.66755068552317 420.1034360646742 L 259.9623812679838 443.95459289433785 L 255.56736067969337 469.67856393466616 L 252.45816973162044 497.4473750672283 L 250.61048923473328 527.4330521735935 L 250 559.8076211353316"/>
            <path fill="none" stroke="white" stroke-width="2" stroke-linecap="round" stroke-linejoin="round" class="s-BgHh72J5KvB0" d="M 350 559.8076211353315 L 350.0298256386114 530.5163606540126 L 350.2051287357905 502.8157528482138 L 350.6546485635549 476.61271856843916 L 351.5071243939218 451.8141786651926 L 352.89129549890885 428.3270539889781 L 354.93590115053354 406.05826539029977 L 357.76968062081323 384.9147337196615 L 361.5213731817654 364.80337982756737 L 366.31971810540756 345.6311245645214 L 372.29345466375713 327.30488878102744 L 379.57132212883147 309.7315933275896 L 388.28205977264815 292.81815905471205 L 398.55440686722466 276.47150681289844 L 410.51710268457833 260.598557452653 L 424.29888649672677 245.10623182447955 L 440.02849757568737 229.9014507788823 L 457.8346751934774 214.891135166365 L 477.8461586221147 199.98220583743202 L 500.1916871336162 185.08158364258722 L 525 170.0961894323342"/>
        </mask>
    </defs>
    <polygon fill="white" id="base-polygon" stroke="none" class="s-BgHh72J5KvB0" points="450,40.192378864668385 600,299.99999999999994 450.0000000000001,559.8076211353315 150.00000000000006,559.8076211353316 0,300.0000000000002 149.99999999999966,40.19237886466862"/>
    <g clip-path="url(#polygon-clip-6)" class="s-BgHh72J5KvB0">
        <polygon id="border-polygon" fill="none" stroke="#ff0000" stroke-width="0" filter="url(#glow)" class="s-BgHh72J5KvB0" points="450,40.192378864668385 600,299.99999999999994 450.0000000000001,559.8076211353315 150.00000000000006,559.8076211353316 0,300.0000000000002 149.99999999999966,40.19237886466862"/>
    </g>
    <g clip-path="url(#polygon-clip-6)" class="s-BgHh72J5KvB0">
        <rect width="100%" height="100%" fill="url(#redGradient)" mask="url(#pathMask)" class="s-BgHh72J5KvB0"/>
    </g>
</svg>