<svg xmlns="http://www.w3.org/2000/svg" class="s-BgHh72J5KvB0" viewBox="0 0 600 600" width="600" height="600">
    <defs class="s-BgHh72J5KvB0">
        <clipPath id="polygon-clip-6" class="s-BgHh72J5KvB0">
            <polygon class="s-BgHh72J5KvB0" points="450,40.192378864668385 600,299.99999999999994 450.0000000000001,559.8076211353315 150.00000000000006,559.8076211353316 0,300.0000000000002 149.99999999999966,40.19237886466862"/>
        </clipPath>
        <filter id="glow" x="-50%" y="-50%" width="200%" height="200%">
            <feGaussianBlur stdDeviation="16" result="smallBlur"/>
            <feGaussianBlur stdDeviation="32" result="mediumBlur"/>
            <feGaussianBlur stdDeviation="64" result="largeBlur"/>
            <feMerge>
                <feMergeNode in="largeBlur"/>
                <feMergeNode in="mediumBlur"/>
                <feMergeNode in="smallBlur"/>
                <feMergeNode in="SourceGraphic"/>
            </feMerge>
        </filter>
        <radialGradient id="redGradient" cx="50%" cy="50%" r="100%">
            <stop id="gradientStop1" offset="7%" style="stop-color:#1e293b;stop-opacity:1"/>
            <stop id="gradientStop2" offset="20%" style="stop-color:#1e293b;stop-opacity:1"/>
        </radialGradient>
        <mask id="pathMask">
            <rect width="100%" height="100%" fill="black"/>
            <path fill="none" stroke="white" stroke-width="2" stroke-linecap="round" stroke-linejoin="round" class="s-BgHh72J5KvB0" d=""/>
            <path fill="none" stroke="white" stroke-width="2" stroke-linecap="round" stroke-linejoin="round" class="s-BgHh72J5KvB0" d="M 250 559.8076211353316 L 250.3625 524.5746318493266 L 251.39999999999998 492.26339851252305 L 253.03749999999997 462.54928157501007 L 255.20000000000002 435.10764148687605 L 257.8125 409.61383869820975 L 260.8 385.7432336591001 L 264.08750000000003 363.1711868196356 L 267.6 341.57305862990484 L 271.26250000000005 320.6242095399968 L 275.00000000000006 300 L 278.7375 279.37579046000315 L 282.40000000000003 258.4269413700952 L 285.9125 236.82881318036453 L 289.20000000000005 214.25676634090001 L 292.18750000000006 190.3861613017902 L 294.8 164.89235851312398 L 296.96250000000003 137.45071842498987 L 298.6 107.73660148747689 L 299.6375 75.42536815067373 L 300 40.1923788646684"/>
            <path fill="none" stroke="white" stroke-width="2" stroke-linecap="round" stroke-linejoin="round" class="s-BgHh72J5KvB0" d="M 350 559.8076211353315 L 349.63750000000005 524.5746318493265 L 348.59999999999997 492.26339851252294 L 346.9625 462.54928157501 L 344.79999999999995 435.10764148687605 L 342.18749999999994 409.6138386982097 L 339.20000000000005 385.7432336591001 L 335.9125 363.1711868196355 L 332.40000000000003 341.5730586299048 L 328.7375 320.62420953999674 L 325.00000000000006 300 L 321.26250000000005 279.3757904600032 L 317.6 258.4269413700952 L 314.08750000000003 236.82881318036453 L 310.80000000000007 214.25676634090004 L 307.81250000000006 190.3861613017902 L 305.2 164.892358513124 L 303.0375 137.45071842498993 L 301.40000000000003 107.73660148747697 L 300.3625 75.4253681506738 L 300 40.1923788646685"/>
            <path fill="none" stroke="white" stroke-width="2" stroke-linecap="round" stroke-linejoin="round" class="s-BgHh72J5KvB0" d="M 500 126.79491924311228 L 486.5408086690714 133.830403814889 L 472.84333522869315 139.58151570073693 L 459.007980930983 144.0629203204038 L 445.1351470280584 147.2892830936374 L 431.32523477203677 149.2752694401856 L 417.6786454150358 150.03554477979617 L 404.2957802091729 149.584774532217 L 391.2770404065657 147.93762411719578 L 378.7228272593316 145.1087589544804 L 366.73354201958836 141.11284446381867 L 355.40958593945317 135.96454606495834 L 344.8513602710439 129.67852917764725 L 335.1592662664778 122.26945922163323 L 326.4337051778726 113.75200161666407 L 318.7750782573457 104.14082178248758 L 312.28378675701464 93.45058513885152 L 307.0602319289969 81.69595710550385 L 303.2048150254103 68.8916031021922 L 300.8179372983722 55.052188548664525 L 300 40.1923788646685"/>
            <path fill="none" stroke="white" stroke-width="2" stroke-linecap="round" stroke-linejoin="round" class="s-BgHh72J5KvB0" d="M 550 213.39745962155615 L 531.4288965101888 222.83578957332023 L 512.9180746221673 229.7750379004715 L 494.5639979898441 234.3141991897507 L 476.46313026712846 236.55226802789818 L 458.7119351079292 236.5882390016547 L 441.4068761661553 234.52110669776079 L 424.64441709571577 230.44986570295694 L 408.5210215505196 224.4735106039838 L 393.13315318447553 216.69103598758193 L 378.5772756514927 207.20143644049193 L 364.94985260548 196.10370654945427 L 352.34734770034646 183.49684090120962 L 340.8662245900009 169.47983408249854 L 330.6029469283524 154.15168068006162 L 321.65397836930975 137.61137528063932 L 314.1157825667821 119.95791247097227 L 308.0848231746784 101.29028683780118 L 303.65756384690746 81.70749296786643 L 300.9304682373784 61.30852544790875 L 300 40.1923788646685"/>
            <path fill="none" stroke="white" stroke-width="2" stroke-linecap="round" stroke-linejoin="round" class="s-BgHh72J5KvB0" d="M 500 473.20508075688775 A 50.00000000000002 50.00000000000002 0 0 1 550 386.60254037844385"/>
        </mask>
    </defs>
    <polygon fill="white" id="base-polygon" stroke="none" class="s-BgHh72J5KvB0" points="450,40.192378864668385 600,299.99999999999994 450.0000000000001,559.8076211353315 150.00000000000006,559.8076211353316 0,300.0000000000002 149.99999999999966,40.19237886466862"/>
    <g clip-path="url(#polygon-clip-6)" class="s-BgHh72J5KvB0">
        <polygon id="border-polygon" fill="none" stroke="#ff0000" stroke-width="0" filter="url(#glow)" class="s-BgHh72J5KvB0" points="450,40.192378864668385 600,299.99999999999994 450.0000000000001,559.8076211353315 150.00000000000006,559.8076211353316 0,300.0000000000002 149.99999999999966,40.19237886466862"/>
    </g>
    <g clip-path="url(#polygon-clip-6)" class="s-BgHh72J5KvB0">
        <rect width="100%" height="100%" fill="url(#redGradient)" mask="url(#pathMask)" class="s-BgHh72J5KvB0"/>
    </g>
</svg>