<svg xmlns="http://www.w3.org/2000/svg" class="s-BgHh72J5KvB0" viewBox="0 0 600 600" width="600" height="600">
    <defs class="s-BgHh72J5KvB0">
        <clipPath id="polygon-clip-6" class="s-BgHh72J5KvB0">
            <polygon class="s-BgHh72J5KvB0" points="450,40.192378864668385 600,299.99999999999994 450.0000000000001,559.8076211353315 150.00000000000006,559.8076211353316 0,300.0000000000002 149.99999999999966,40.19237886466862"/>
        </clipPath>
        <filter id="glow" x="-50%" y="-50%" width="200%" height="200%">
            <feGaussianBlur stdDeviation="16" result="smallBlur"/>
            <feGaussianBlur stdDeviation="32" result="mediumBlur"/>
            <feGaussianBlur stdDeviation="64" result="largeBlur"/>
            <feMerge>
                <feMergeNode in="largeBlur"/>
                <feMergeNode in="mediumBlur"/>
                <feMergeNode in="smallBlur"/>
                <feMergeNode in="SourceGraphic"/>
            </feMerge>
        </filter>
        <radialGradient id="redGradient" cx="50%" cy="50%" r="100%">
            <stop id="gradientStop1" offset="7%" style="stop-color:#1e293b;stop-opacity:1"/>
            <stop id="gradientStop2" offset="20%" style="stop-color:#1e293b;stop-opacity:1"/>
        </radialGradient>
        <mask id="pathMask">
            <rect width="100%" height="100%" fill="black"/>
            <path fill="none" stroke="white" stroke-width="2" stroke-linecap="round" stroke-linejoin="round" class="s-BgHh72J5KvB0" d="M 250 559.8076211353316 L 251.11171823737837 539.0054087609634 L 254.35756384690745 519.5049425974319 L 259.60357317467833 501.3402653261942 L 266.7157825667821 484.54541962870684 L 275.56022836930975 469.1544481864267 L 286.00294692835223 455.20139368081044 L 297.90997459000073 442.72029879331484 L 311.14734770034624 431.7452062053966 L 325.58110260547994 422.3101585985125 L 341.07727565149264 414.44919865411913 L 357.50190318447545 408.1963690536734 L 374.7210215505194 403.58571247863205 L 392.6006670957157 400.65127161045183 L 411.0068761661553 399.42708913058925 L 429.8056851079292 399.9472077205014 L 448.86313026712844 402.2456700616447 L 468.0452479898441 406.3565188354761 L 487.2180746221673 412.3137967234523 L 506.2476465101887 420.1515464070299 L 525 429.9038105676658"/>
            <path fill="none" stroke="white" stroke-width="2" stroke-linecap="round" stroke-linejoin="round" class="s-BgHh72J5KvB0" d="M 350 559.8076211353315 L 350.6366872983722 544.6338772424637 L 352.5048150254103 529.8959613325096 L 355.54148192899703 515.6734907305009 L 359.6837867570146 502.0460827614694 L 364.8688282573456 489.0933547504465 L 371.0337051778725 476.89492402246407 L 378.1155162664777 465.53040790255346 L 386.05136027104373 455.0794237157466 L 394.77833593945314 445.6215887870751 L 404.23354201958824 437.2365204415704 L 414.35407725933163 430.00383600426426 L 425.07704040656563 424.0031528001884 L 436.3395302091729 419.3140881543744 L 448.0786454150358 416.0162593918538 L 460.23148477203677 414.1892838376584 L 472.73514702805846 413.9127788168198 L 485.526730930983 415.2663616543695 L 498.54333522869325 418.3296496753394 L 511.72205866907126 423.182260204761 L 525 429.9038105676658"/>
            <path fill="none" stroke="white" stroke-width="2" stroke-linecap="round" stroke-linejoin="round" class="s-BgHh72J5KvB0" d="M 525 429.9038105676658 L 500.19168713361637 414.9184163574129 L 477.8461586221146 400.01779416256795 L 457.8346751934774 385.1088648336349 L 440.0284975756873 370.09854922111776 L 424.2988864967267 354.89376817552045 L 410.51710268457845 339.40144254734713 L 398.5544068672247 323.5284931871016 L 388.2820597726482 307.18184094528795 L 379.5713221288315 290.26840667241026 L 372.29345466375713 272.6951112189725 L 366.3197181054076 254.36887543547857 L 361.5213731817655 235.19662017243263 L 357.7696806208134 215.0852662803385 L 354.93590115053365 193.94173460970026 L 352.89129549890896 171.67294601102185 L 351.50712439392186 148.18582133480737 L 350.6546485635549 123.38728143156075 L 350.20512873579054 97.18424715178614 L 350.02982563861144 69.48363934598753 L 350 40.19237886466846"/>
            <path fill="none" stroke="white" stroke-width="2" stroke-linecap="round" stroke-linejoin="round" class="s-BgHh72J5KvB0" d="M 250 40.19237886466854 L 250.61048923473322 72.56694782640648 L 252.4581697316205 102.55262493277189 L 255.56736067969354 130.32143606533404 L 259.9623812679839 156.04540710566226 L 265.66755068552334 179.89656393532593 L 272.7071881213433 202.0469324358943 L 281.10561276447544 222.66853848893666 L 290.8871438039516 241.9334079760224 L 302.0761004288032 260.0135667787209 L 314.6968018280619 277.0810407786014 L 328.7735671907594 293.30785585723316 L 344.33071570592733 308.8660378961854 L 361.3925665625972 323.92761277702783 L 379.98343894980076 338.66460638132935 L 400.12765205656956 353.2490445906597 L 421.84952507193543 367.8529532865878 L 445.1733771849297 382.6483583506833 L 470.12352758458417 397.8072856645151 L 496.7242954599302 413.50176110965265 L 525 429.9038105676658"/>
        </mask>
    </defs>
    <polygon fill="white" id="base-polygon" stroke="none" class="s-BgHh72J5KvB0" points="450,40.192378864668385 600,299.99999999999994 450.0000000000001,559.8076211353315 150.00000000000006,559.8076211353316 0,300.0000000000002 149.99999999999966,40.19237886466862"/>
    <g clip-path="url(#polygon-clip-6)" class="s-BgHh72J5KvB0">
        <polygon id="border-polygon" fill="none" stroke="#ff0000" stroke-width="0" filter="url(#glow)" class="s-BgHh72J5KvB0" points="450,40.192378864668385 600,299.99999999999994 450.0000000000001,559.8076211353315 150.00000000000006,559.8076211353316 0,300.0000000000002 149.99999999999966,40.19237886466862"/>
    </g>
    <g clip-path="url(#polygon-clip-6)" class="s-BgHh72J5KvB0">
        <rect width="100%" height="100%" fill="url(#redGradient)" mask="url(#pathMask)" class="s-BgHh72J5KvB0"/>
    </g>
</svg>