<svg xmlns="http://www.w3.org/2000/svg" class="s-BgHh72J5KvB0" viewBox="0 0 600 600" width="600" height="600">
    <defs class="s-BgHh72J5KvB0">
        <clipPath id="polygon-clip-6" class="s-BgHh72J5KvB0">
            <polygon class="s-BgHh72J5KvB0" points="450,40.192378864668385 600,299.99999999999994 450.0000000000001,559.8076211353315 150.00000000000006,559.8076211353316 0,300.0000000000002 149.99999999999966,40.19237886466862"/>
        </clipPath>
        <filter id="glow" x="-50%" y="-50%" width="200%" height="200%">
            <feGaussianBlur stdDeviation="16" result="smallBlur"/>
            <feGaussianBlur stdDeviation="32" result="mediumBlur"/>
            <feGaussianBlur stdDeviation="64" result="largeBlur"/>
            <feMerge>
                <feMergeNode in="largeBlur"/>
                <feMergeNode in="mediumBlur"/>
                <feMergeNode in="smallBlur"/>
                <feMergeNode in="SourceGraphic"/>
            </feMerge>
        </filter>
        <radialGradient id="redGradient" cx="50%" cy="50%" r="100%">
            <stop id="gradientStop1" offset="7%" style="stop-color:#1e293b;stop-opacity:1"/>
            <stop id="gradientStop2" offset="20%" style="stop-color:#1e293b;stop-opacity:1"/>
        </radialGradient>
        <mask id="pathMask">
            <rect width="100%" height="100%" fill="black"/>
            <path fill="none" stroke="white" stroke-width="2" stroke-linecap="round" stroke-linejoin="round" class="s-BgHh72J5KvB0" d="M 350 559.8076211353315 L 350.0298256386114 530.5163606540126 L 350.2051287357905 502.8157528482138 L 350.6546485635549 476.61271856843916 L 351.5071243939218 451.8141786651926 L 352.89129549890885 428.3270539889781 L 354.93590115053354 406.05826539029977 L 357.76968062081323 384.9147337196615 L 361.5213731817654 364.80337982756737 L 366.31971810540756 345.6311245645214 L 372.29345466375713 327.30488878102744 L 379.57132212883147 309.7315933275896 L 388.28205977264815 292.81815905471205 L 398.55440686722466 276.47150681289844 L 410.51710268457833 260.598557452653 L 424.29888649672677 245.10623182447955 L 440.02849757568737 229.9014507788823 L 457.8346751934774 214.891135166365 L 477.8461586221147 199.98220583743202 L 500.1916871336162 185.08158364258722 L 525 170.0961894323342"/>
            <path fill="none" stroke="white" stroke-width="2" stroke-linecap="round" stroke-linejoin="round" class="s-BgHh72J5KvB0" d="M 550 386.60254037844385 L 537.1774959674436 378.46428105735276 L 525.3481502541036 369.47747703324654 L 514.5494628599799 359.7364110509048 L 504.81893378507294 349.33536585510683 L 496.1940630293824 338.36862419063215 L 488.71235059290825 326.93046880226024 L 482.4112964756506 315.1151824347706 L 477.32840067760947 303.0170478329424 L 473.5011631987848 290.7303477415555 L 470.9670840391765 278.34936490538905 L 469.76366319878474 265.96838206922257 L 469.9284006776095 253.68168197783564 L 471.49879647565064 241.58354737600757 L 474.51235059290826 229.76826100851784 L 479.0065630293824 218.3301056201459 L 485.01893378507305 207.36336395567125 L 492.5869628599799 196.96231875987326 L 501.74815025410356 187.2212527775315 L 512.5399959674436 178.2344487534254 L 525 170.0961894323342"/>
            <path fill="none" stroke="white" stroke-width="2" stroke-linecap="round" stroke-linejoin="round" class="s-BgHh72J5KvB0" d="M 500 473.20508075688775 L 482.5406147475672 461.8411983342835 L 467.27563846907464 449.27998049790335 L 454.1675711645225 435.6544645159448 L 443.1789128339106 421.097687656605 L 434.27216347723896 405.74268718808145 L 427.4098230945076 389.72250037857117 L 422.5543916857165 373.17016449627175 L 419.66836925086585 356.21871680938034 L 418.71425578995536 339.00119458609436 L 419.6545513029853 321.650635094611 L 422.45175578995537 304.30007560312765 L 427.0683692508658 287.08255337984167 L 433.4668916857166 270.1311056929503 L 441.6098230945076 253.57876981065084 L 451.4596634772389 237.55858300114062 L 462.9789128339106 222.2035825326169 L 476.1300711645224 207.64680567327713 L 490.8756384690748 194.02128969131857 L 507.1781147475672 181.46007185493858 L 525 170.0961894323342"/>
            <path fill="none" stroke="white" stroke-width="2" stroke-linecap="round" stroke-linejoin="round" class="s-BgHh72J5KvB0" d="M 250 559.8076211353316 L 250.6104892347332 527.4330521735938 L 252.45816973162044 497.4473750672283 L 255.56736067969342 469.67856393466616 L 259.9623812679838 443.95459289433785 L 265.6675506855232 420.1034360646742 L 272.70718812134317 397.9530675641059 L 281.1056127644753 377.3314615110635 L 290.88714380395146 358.0665920239777 L 302.0761004288031 339.9864332212792 L 314.69680182806184 322.9189592213988 L 328.7735671907593 306.69214414276695 L 344.3307157059272 291.1339621038146 L 361.39256656259715 276.0723872229723 L 379.9834389498007 261.33539361867065 L 400.12765205656956 246.75095540934038 L 421.8495250719354 232.14704671341224 L 445.1733771849296 217.35164164931678 L 470.12352758458417 202.19271433548494 L 496.7242954599302 186.49823889034735 L 525 170.0961894323342"/>
            <path fill="none" stroke="white" stroke-width="2" stroke-linecap="round" stroke-linejoin="round" class="s-BgHh72J5KvB0" d="M 350 40.19237886466846 L 350.6366872983722 55.366122757536324 L 352.5048150254103 70.1040386674904 L 355.54148192899703 84.32650926949904 L 359.6837867570147 97.95391723853061 L 364.8688282573456 110.90664524955346 L 371.03370517787255 123.10507597753598 L 378.1155162664777 134.46959209744648 L 386.0513602710438 144.92057628425337 L 394.7783359394532 154.37841121292493 L 404.23354201958824 162.7634795584296 L 414.3540772593317 169.9961639957357 L 425.07704040656563 175.99684719981155 L 436.33953020917295 180.6859118456256 L 448.0786454150358 183.98374060814615 L 460.23148477203677 185.8107161623416 L 472.73514702805846 186.08722118318025 L 485.526730930983 184.7336383456305 L 498.54333522869325 181.6703503246606 L 511.72205866907126 176.81773979523905 L 525 170.0961894323342"/>
            <path fill="none" stroke="white" stroke-width="2" stroke-linecap="round" stroke-linejoin="round" class="s-BgHh72J5KvB0" d="M 250 40.19237886466854 L 251.1117182373784 60.99459123903687 L 254.3575638469075 80.49505740256826 L 259.6035731746784 98.659734673806 L 266.7157825667822 115.45458037129329 L 275.5602283693098 130.84555181357342 L 286.00294692835234 144.79860631918967 L 297.90997459000084 157.2797012066853 L 311.1473477003464 168.25479379460353 L 325.58110260548 177.68984140148768 L 341.0772756514927 185.55080134588096 L 357.5019031844755 191.80363094632665 L 374.7210215505195 196.41428752136795 L 392.6006670957158 199.34872838954826 L 411.00687616615534 200.57291086941072 L 429.8056851079292 200.05279227949868 L 448.86313026712855 197.75432993835528 L 468.04524798984414 193.64348116452396 L 487.2180746221673 187.68620327654776 L 506.2476465101887 179.84845359297006 L 525 170.0961894323342"/>
        </mask>
    </defs>
    <polygon fill="white" id="base-polygon" stroke="none" class="s-BgHh72J5KvB0" points="450,40.192378864668385 600,299.99999999999994 450.0000000000001,559.8076211353315 150.00000000000006,559.8076211353316 0,300.0000000000002 149.99999999999966,40.19237886466862"/>
    <g clip-path="url(#polygon-clip-6)" class="s-BgHh72J5KvB0">
        <polygon id="border-polygon" fill="none" stroke="#ff0000" stroke-width="0" filter="url(#glow)" class="s-BgHh72J5KvB0" points="450,40.192378864668385 600,299.99999999999994 450.0000000000001,559.8076211353315 150.00000000000006,559.8076211353316 0,300.0000000000002 149.99999999999966,40.19237886466862"/>
    </g>
    <g clip-path="url(#polygon-clip-6)" class="s-BgHh72J5KvB0">
        <rect width="100%" height="100%" fill="url(#redGradient)" mask="url(#pathMask)" class="s-BgHh72J5KvB0"/>
    </g>
</svg>