<svg xmlns="http://www.w3.org/2000/svg" class="s-BgHh72J5KvB0" viewBox="0 0 600 600" width="600" height="600">
    <defs class="s-BgHh72J5KvB0">
        <clipPath id="polygon-clip-6" class="s-BgHh72J5KvB0">
            <polygon class="s-BgHh72J5KvB0" points="450,40.192378864668385 600,299.99999999999994 450.0000000000001,559.8076211353315 150.00000000000006,559.8076211353316 0,300.0000000000002 149.99999999999966,40.19237886466862"/>
        </clipPath>
        <filter id="glow" x="-50%" y="-50%" width="200%" height="200%">
            <feGaussianBlur stdDeviation="16" result="smallBlur"/>
            <feGaussianBlur stdDeviation="32" result="mediumBlur"/>
            <feGaussianBlur stdDeviation="64" result="largeBlur"/>
            <feMerge>
                <feMergeNode in="largeBlur"/>
                <feMergeNode in="mediumBlur"/>
                <feMergeNode in="smallBlur"/>
                <feMergeNode in="SourceGraphic"/>
            </feMerge>
        </filter>
        <radialGradient id="redGradient" cx="50%" cy="50%" r="100%">
            <stop id="gradientStop1" offset="7%" style="stop-color:#1e293b;stop-opacity:1"/>
            <stop id="gradientStop2" offset="20%" style="stop-color:#1e293b;stop-opacity:1"/>
        </radialGradient>
        <mask id="pathMask">
            <rect width="100%" height="100%" fill="black"/>
            <path fill="none" stroke="white" stroke-width="2" stroke-linecap="round" stroke-linejoin="round" class="s-BgHh72J5KvB0" d="M 350 559.8076211353315 L 350.6366872983722 544.6338772424637 L 352.5048150254103 529.8959613325096 L 355.54148192899703 515.6734907305009 L 359.6837867570146 502.0460827614694 L 364.8688282573456 489.0933547504465 L 371.0337051778725 476.89492402246407 L 378.1155162664777 465.53040790255346 L 386.05136027104373 455.0794237157466 L 394.77833593945314 445.6215887870751 L 404.23354201958824 437.2365204415704 L 414.35407725933163 430.00383600426426 L 425.07704040656563 424.0031528001884 L 436.3395302091729 419.3140881543744 L 448.0786454150358 416.0162593918538 L 460.23148477203677 414.1892838376584 L 472.73514702805846 413.9127788168198 L 485.526730930983 415.2663616543695 L 498.54333522869325 418.3296496753394 L 511.72205866907126 423.182260204761 L 525 429.9038105676658"/>
            <path fill="none" stroke="white" stroke-width="2" stroke-linecap="round" stroke-linejoin="round" class="s-BgHh72J5KvB0" d="M 250 559.8076211353316 L 251.11171823737837 539.0054087609634 L 254.35756384690745 519.5049425974319 L 259.60357317467833 501.3402653261942 L 266.7157825667821 484.54541962870684 L 275.56022836930975 469.1544481864267 L 286.00294692835223 455.20139368081044 L 297.90997459000073 442.72029879331484 L 311.14734770034624 431.7452062053966 L 325.58110260547994 422.3101585985125 L 341.07727565149264 414.44919865411913 L 357.50190318447545 408.1963690536734 L 374.7210215505194 403.58571247863205 L 392.6006670957157 400.65127161045183 L 411.0068761661553 399.42708913058925 L 429.8056851079292 399.9472077205014 L 448.86313026712844 402.2456700616447 L 468.0452479898441 406.3565188354761 L 487.2180746221673 412.3137967234523 L 506.2476465101887 420.1515464070299 L 525 429.9038105676658"/>
            <path fill="none" stroke="white" stroke-width="2" stroke-linecap="round" stroke-linejoin="round" class="s-BgHh72J5KvB0" d="M 350 40.19237886466846 L 350.6366872983722 55.366122757536324 L 352.5048150254103 70.1040386674904 L 355.54148192899703 84.32650926949904 L 359.6837867570147 97.95391723853061 L 364.8688282573456 110.90664524955346 L 371.03370517787255 123.10507597753598 L 378.1155162664777 134.46959209744648 L 386.0513602710438 144.92057628425337 L 394.7783359394532 154.37841121292493 L 404.23354201958824 162.7634795584296 L 414.3540772593317 169.9961639957357 L 425.07704040656563 175.99684719981155 L 436.33953020917295 180.6859118456256 L 448.0786454150358 183.98374060814615 L 460.23148477203677 185.8107161623416 L 472.73514702805846 186.08722118318025 L 485.526730930983 184.7336383456305 L 498.54333522869325 181.6703503246606 L 511.72205866907126 176.81773979523905 L 525 170.0961894323342"/>
            <path fill="none" stroke="white" stroke-width="2" stroke-linecap="round" stroke-linejoin="round" class="s-BgHh72J5KvB0" d="M 250 40.19237886466854 L 251.1117182373784 60.99459123903687 L 254.3575638469075 80.49505740256826 L 259.6035731746784 98.659734673806 L 266.7157825667822 115.45458037129329 L 275.5602283693098 130.84555181357342 L 286.00294692835234 144.79860631918967 L 297.90997459000084 157.2797012066853 L 311.1473477003464 168.25479379460353 L 325.58110260548 177.68984140148768 L 341.0772756514927 185.55080134588096 L 357.5019031844755 191.80363094632665 L 374.7210215505195 196.41428752136795 L 392.6006670957158 199.34872838954826 L 411.00687616615534 200.57291086941072 L 429.8056851079292 200.05279227949868 L 448.86313026712855 197.75432993835528 L 468.04524798984414 193.64348116452396 L 487.2180746221673 187.68620327654776 L 506.2476465101887 179.84845359297006 L 525 170.0961894323342"/>
        </mask>
    </defs>
    <polygon fill="white" id="base-polygon" stroke="none" class="s-BgHh72J5KvB0" points="450,40.192378864668385 600,299.99999999999994 450.0000000000001,559.8076211353315 150.00000000000006,559.8076211353316 0,300.0000000000002 149.99999999999966,40.19237886466862"/>
    <g clip-path="url(#polygon-clip-6)" class="s-BgHh72J5KvB0">
        <polygon id="border-polygon" fill="none" stroke="#ff0000" stroke-width="0" filter="url(#glow)" class="s-BgHh72J5KvB0" points="450,40.192378864668385 600,299.99999999999994 450.0000000000001,559.8076211353315 150.00000000000006,559.8076211353316 0,300.0000000000002 149.99999999999966,40.19237886466862"/>
    </g>
    <g clip-path="url(#polygon-clip-6)" class="s-BgHh72J5KvB0">
        <rect width="100%" height="100%" fill="url(#redGradient)" mask="url(#pathMask)" class="s-BgHh72J5KvB0"/>
    </g>
</svg>