<svg xmlns="http://www.w3.org/2000/svg" class="s-BgHh72J5KvB0" viewBox="0 0 600 600" width="600" height="600">
    <defs class="s-BgHh72J5KvB0">
        <clipPath id="polygon-clip-6" class="s-BgHh72J5KvB0">
            <polygon class="s-BgHh72J5KvB0" points="450,40.192378864668385 600,299.99999999999994 450.0000000000001,559.8076211353315 150.00000000000006,559.8076211353316 0,300.0000000000002 149.99999999999966,40.19237886466862"/>
        </clipPath>
        <filter id="glow" x="-50%" y="-50%" width="200%" height="200%">
            <feGaussianBlur stdDeviation="16" result="smallBlur"/>
            <feGaussianBlur stdDeviation="32" result="mediumBlur"/>
            <feGaussianBlur stdDeviation="64" result="largeBlur"/>
            <feMerge>
                <feMergeNode in="largeBlur"/>
                <feMergeNode in="mediumBlur"/>
                <feMergeNode in="smallBlur"/>
                <feMergeNode in="SourceGraphic"/>
            </feMerge>
        </filter>
        <radialGradient id="redGradient" cx="50%" cy="50%" r="100%">
            <stop id="gradientStop1" offset="7%" style="stop-color:#1e293b;stop-opacity:1"/>
            <stop id="gradientStop2" offset="20%" style="stop-color:#1e293b;stop-opacity:1"/>
        </radialGradient>
        <mask id="pathMask">
            <rect width="100%" height="100%" fill="black"/>
            <path fill="none" stroke="white" stroke-width="2" stroke-linecap="round" stroke-linejoin="round" class="s-BgHh72J5KvB0" d="M 74.99999999999996 170.0961894323342 L 103.27570454006963 186.49823889034712 L 129.87647241541592 202.1927143354849 L 154.82662281507035 217.35164164931678 L 178.15047492806465 232.14704671341215 L 199.8723479434304 246.75095540934026 L 220.01656105019924 261.3353936186704 L 238.6074334374028 276.07238722297205 L 255.66928429407275 291.13396210381444 L 271.22643280924063 306.6921441427669 L 285.3031981719381 322.91895922139867 L 297.92389957119684 339.9864332212791 L 309.1128561960484 358.0665920239775 L 318.8943872355245 377.33146151106325 L 327.2928118786567 397.9530675641056 L 334.3324493144768 420.10343606467404 L 340.0376187320161 443.95459289433774 L 344.43263932030663 469.67856393466604 L 347.54183026837956 497.44737506722817 L 349.3895107652667 527.4330521735934 L 350 559.8076211353315"/>
            <path fill="none" stroke="white" stroke-width="2" stroke-linecap="round" stroke-linejoin="round" class="s-BgHh72J5KvB0" d="M 250 559.8076211353316 L 249.97017436138862 530.5163606540127 L 249.79487126420946 502.8157528482139 L 249.34535143644516 476.6127185684393 L 248.49287560607814 451.8141786651926 L 247.10870450109107 428.32705398897815 L 245.0640988494664 406.0582653902998 L 242.2303193791867 384.9147337196616 L 238.4786268182345 364.8033798275674 L 233.6802818945924 345.6311245645214 L 227.70654533624287 327.30488878102744 L 220.42867787116847 309.73159332758956 L 211.7179402273518 292.818159054712 L 201.44559313277534 276.4715068128984 L 189.48289731542167 260.5985574526529 L 175.70111350327323 245.1062318244795 L 159.9715024243127 229.9014507788822 L 142.16532480652253 214.89113516636496 L 122.15384137788536 199.982205837432 L 99.80831286638372 185.0815836425872 L 74.99999999999996 170.0961894323342"/>
            <path fill="none" stroke="white" stroke-width="2" stroke-linecap="round" stroke-linejoin="round" class="s-BgHh72J5KvB0" d="M 525 170.0961894323342 L 512.5399959674436 178.2344487534253 L 501.7481502541035 187.22125277753148 L 492.58696285998 196.96231875987328 L 485.018933785073 207.36336395567125 L 479.00656302938233 218.3301056201459 L 474.5123505929083 229.7682610085178 L 471.49879647565064 241.58354737600752 L 469.9284006776095 253.6816819778356 L 469.7636631987848 265.9683820692226 L 470.96708403917654 278.34936490538905 L 473.50116319878475 290.7303477415555 L 477.32840067760947 303.0170478329424 L 482.4112964756506 315.11518243477053 L 488.7123505929083 326.93046880226024 L 496.1940630293824 338.36862419063215 L 504.818933785073 349.33536585510683 L 514.54946285998 359.73641105090485 L 525.3481502541035 369.47747703324654 L 537.1774959674436 378.46428105735265 L 550 386.60254037844385"/>
            <path fill="none" stroke="white" stroke-width="2" stroke-linecap="round" stroke-linejoin="round" class="s-BgHh72J5KvB0" d="M 500 473.20508075688775 L 482.5406147475672 461.8411983342835 L 467.27563846907464 449.27998049790335 L 454.1675711645225 435.6544645159448 L 443.1789128339106 421.097687656605 L 434.27216347723896 405.74268718808145 L 427.4098230945076 389.72250037857117 L 422.5543916857165 373.17016449627175 L 419.66836925086585 356.21871680938034 L 418.71425578995536 339.00119458609436 L 419.6545513029853 321.650635094611 L 422.45175578995537 304.30007560312765 L 427.0683692508658 287.08255337984167 L 433.4668916857166 270.1311056929503 L 441.6098230945076 253.57876981065084 L 451.4596634772389 237.55858300114062 L 462.9789128339106 222.2035825326169 L 476.1300711645224 207.64680567327713 L 490.8756384690748 194.02128969131857 L 507.1781147475672 181.46007185493858 L 525 170.0961894323342"/>
        </mask>
    </defs>
    <polygon fill="white" id="base-polygon" stroke="none" class="s-BgHh72J5KvB0" points="450,40.192378864668385 600,299.99999999999994 450.0000000000001,559.8076211353315 150.00000000000006,559.8076211353316 0,300.0000000000002 149.99999999999966,40.19237886466862"/>
    <g clip-path="url(#polygon-clip-6)" class="s-BgHh72J5KvB0">
        <polygon id="border-polygon" fill="none" stroke="#ff0000" stroke-width="0" filter="url(#glow)" class="s-BgHh72J5KvB0" points="450,40.192378864668385 600,299.99999999999994 450.0000000000001,559.8076211353315 150.00000000000006,559.8076211353316 0,300.0000000000002 149.99999999999966,40.19237886466862"/>
    </g>
    <g clip-path="url(#polygon-clip-6)" class="s-BgHh72J5KvB0">
        <rect width="100%" height="100%" fill="url(#redGradient)" mask="url(#pathMask)" class="s-BgHh72J5KvB0"/>
    </g>
</svg>