<svg xmlns="http://www.w3.org/2000/svg" class="s-BgHh72J5KvB0" viewBox="0 0 600 600" width="600" height="600">
    <defs class="s-BgHh72J5KvB0">
        <clipPath id="polygon-clip-6" class="s-BgHh72J5KvB0">
            <polygon class="s-BgHh72J5KvB0" points="450,40.192378864668385 600,299.99999999999994 450.0000000000001,559.8076211353315 150.00000000000006,559.8076211353316 0,300.0000000000002 149.99999999999966,40.19237886466862"/>
        </clipPath>
        <filter id="glow" x="-50%" y="-50%" width="200%" height="200%">
            <feGaussianBlur stdDeviation="16" result="smallBlur"/>
            <feGaussianBlur stdDeviation="32" result="mediumBlur"/>
            <feGaussianBlur stdDeviation="64" result="largeBlur"/>
            <feMerge>
                <feMergeNode in="largeBlur"/>
                <feMergeNode in="mediumBlur"/>
                <feMergeNode in="smallBlur"/>
                <feMergeNode in="SourceGraphic"/>
            </feMerge>
        </filter>
        <radialGradient id="redGradient" cx="50%" cy="50%" r="100%">
            <stop id="gradientStop1" offset="7%" style="stop-color:#1e293b;stop-opacity:1"/>
            <stop id="gradientStop2" offset="20%" style="stop-color:#1e293b;stop-opacity:1"/>
        </radialGradient>
        <mask id="pathMask">
            <rect width="100%" height="100%" fill="black"/>
            <path fill="none" stroke="white" stroke-width="2" stroke-linecap="round" stroke-linejoin="round" class="s-BgHh72J5KvB0" d="M 74.99999999999996 170.0961894323342 A 450.0000000000004 450.0000000000004 0 0 0 525 170.0961894323342"/>
            <path fill="none" stroke="white" stroke-width="2" stroke-linecap="round" stroke-linejoin="round" class="s-BgHh72J5KvB0" d="M 550 386.60254037844385 L 531.4288965101888 377.16421042667986 L 512.9180746221672 370.2249620995285 L 494.5639979898441 365.68580081024936 L 476.4631302671284 363.44773197210185 L 458.7119351079292 363.41176099834536 L 441.4068761661553 365.47889330223927 L 424.64441709571577 369.5501342970431 L 408.5210215505195 375.52648939601625 L 393.1331531844755 383.30896401241813 L 378.57727565149264 392.7985635595081 L 364.9498526054799 403.8962934505458 L 352.34734770034635 416.50315909879043 L 340.86622459000085 430.5201659175015 L 330.6029469283523 445.84831931993847 L 321.6539783693097 462.38862471936073 L 314.11578256678206 480.04208752902775 L 308.0848231746783 498.70971316219897 L 303.65756384690746 518.2925070321337 L 300.9304682373784 538.6914745520913 L 300 559.8076211353316"/>
            <path fill="none" stroke="white" stroke-width="2" stroke-linecap="round" stroke-linejoin="round" class="s-BgHh72J5KvB0" d="M 300 559.8076211353316 L 300.81793729837216 544.9478114513356 L 303.2048150254103 531.1083968978079 L 307.06023192899704 518.3040428944963 L 312.2837867570146 506.5494148611485 L 318.77507825734557 495.8591782175125 L 326.43370517787247 486.247998383336 L 335.1592662664777 477.73054077836684 L 344.85136027104375 470.32147082235286 L 355.4095859394531 464.0354539350418 L 366.73354201958824 458.8871555361814 L 378.72282725933167 454.8912410455196 L 391.2770404065656 452.0623758828043 L 404.2957802091729 450.4152254677831 L 417.67864541503576 449.9644552202039 L 431.32523477203677 450.7247305598145 L 445.1351470280584 452.7107169063627 L 459.007980930983 455.93707967959625 L 472.84333522869315 460.4184842992631 L 486.5408086690713 466.16959618511106 L 500 473.20508075688775"/>
        </mask>
    </defs>
    <polygon fill="white" id="base-polygon" stroke="none" class="s-BgHh72J5KvB0" points="450,40.192378864668385 600,299.99999999999994 450.0000000000001,559.8076211353315 150.00000000000006,559.8076211353316 0,300.0000000000002 149.99999999999966,40.19237886466862"/>
    <g clip-path="url(#polygon-clip-6)" class="s-BgHh72J5KvB0">
        <polygon id="border-polygon" fill="none" stroke="#ff0000" stroke-width="0" filter="url(#glow)" class="s-BgHh72J5KvB0" points="450,40.192378864668385 600,299.99999999999994 450.0000000000001,559.8076211353315 150.00000000000006,559.8076211353316 0,300.0000000000002 149.99999999999966,40.19237886466862"/>
    </g>
    <g clip-path="url(#polygon-clip-6)" class="s-BgHh72J5KvB0">
        <rect width="100%" height="100%" fill="url(#redGradient)" mask="url(#pathMask)" class="s-BgHh72J5KvB0"/>
    </g>
</svg>