<svg xmlns="http://www.w3.org/2000/svg" class="s-BgHh72J5KvB0" viewBox="0 0 600 600" width="600" height="600">
    <defs class="s-BgHh72J5KvB0">
        <clipPath id="polygon-clip-6" class="s-BgHh72J5KvB0">
            <polygon class="s-BgHh72J5KvB0" points="450,40.192378864668385 600,299.99999999999994 450.0000000000001,559.8076211353315 150.00000000000006,559.8076211353316 0,300.0000000000002 149.99999999999966,40.19237886466862"/>
        </clipPath>
        <filter id="glow" x="-50%" y="-50%" width="200%" height="200%">
            <feGaussianBlur stdDeviation="16" result="smallBlur"/>
            <feGaussianBlur stdDeviation="32" result="mediumBlur"/>
            <feGaussianBlur stdDeviation="64" result="largeBlur"/>
            <feMerge>
                <feMergeNode in="largeBlur"/>
                <feMergeNode in="mediumBlur"/>
                <feMergeNode in="smallBlur"/>
                <feMergeNode in="SourceGraphic"/>
            </feMerge>
        </filter>
        <radialGradient id="redGradient" cx="50%" cy="50%" r="100%">
            <stop id="gradientStop1" offset="7%" style="stop-color:#1e293b;stop-opacity:1"/>
            <stop id="gradientStop2" offset="20%" style="stop-color:#1e293b;stop-opacity:1"/>
        </radialGradient>
        <mask id="pathMask">
            <rect width="100%" height="100%" fill="black"/>
            <path fill="none" stroke="white" stroke-width="2" stroke-linecap="round" stroke-linejoin="round" class="s-BgHh72J5KvB0" d="M 74.99999999999996 170.0961894323342 L 100.38188850499505 184.08812149452834 L 124.45897011367589 195.9896057490558 L 147.37622337007744 205.86559410120037 L 169.27862681823456 213.78103845624594 L 190.31115900218217 219.80089071947629 L 210.61879846595525 223.99010279617522 L 230.34652375358863 226.41362659162667 L 249.63931340911728 227.13641401111434 L 268.6421459765761 226.22341695992213 L 287.5 223.73958734333394 L 306.357854023424 219.7498770666335 L 325.36068659088266 214.31923803510466 L 344.6534762464114 207.51262215403128 L 364.3812015340447 199.3949813286972 L 384.6888409978178 190.03126746438625 L 405.72137318176544 179.4864324663822 L 427.62377662992265 167.825428239969 L 450.54102988632417 155.11320669043036 L 474.6181114950047 141.41471972305018 L 500 126.79491924311228"/>
            <path fill="none" stroke="white" stroke-width="2" stroke-linecap="round" stroke-linejoin="round" class="s-BgHh72J5KvB0" d="M 550 213.39745962155615 L 521.6575562251973 229.0560449164093 L 494.7653578529637 242.44874522121054 L 469.1622665052361 253.6405124412438 L 444.68714380395147 262.6962984817928 L 421.1788513710464 269.68105524814143 L 398.4762508284576 274.65973464557356 L 376.4182037981218 277.69728857937304 L 354.8435719019758 278.8586689548236 L 333.5912167619563 278.2088276772091 L 312.5 275.81271665181345 L 291.4087832380437 271.7352877839204 L 270.1564280980243 266.04149297881384 L 248.5817962018783 258.79628414177756 L 226.52374917154253 250.06461317809544 L 203.82114862895364 239.9114319930513 L 180.31285619604853 228.4016924919289 L 155.83773349476374 215.60034658001223 L 130.23464214703637 201.57234616258495 L 103.34244377480303 186.38264314493102 L 74.99999999999996 170.0961894323342"/>
            <path fill="none" stroke="white" stroke-width="2" stroke-linecap="round" stroke-linejoin="round" class="s-BgHh72J5KvB0" d="M 250 559.8076211353316 A 50 50 0 0 1 350 559.8076211353315"/>
        </mask>
    </defs>
    <polygon fill="white" id="base-polygon" stroke="none" class="s-BgHh72J5KvB0" points="450,40.192378864668385 600,299.99999999999994 450.0000000000001,559.8076211353315 150.00000000000006,559.8076211353316 0,300.0000000000002 149.99999999999966,40.19237886466862"/>
    <g clip-path="url(#polygon-clip-6)" class="s-BgHh72J5KvB0">
        <polygon id="border-polygon" fill="none" stroke="#ff0000" stroke-width="0" filter="url(#glow)" class="s-BgHh72J5KvB0" points="450,40.192378864668385 600,299.99999999999994 450.0000000000001,559.8076211353315 150.00000000000006,559.8076211353316 0,300.0000000000002 149.99999999999966,40.19237886466862"/>
    </g>
    <g clip-path="url(#polygon-clip-6)" class="s-BgHh72J5KvB0">
        <rect width="100%" height="100%" fill="url(#redGradient)" mask="url(#pathMask)" class="s-BgHh72J5KvB0"/>
    </g>
</svg>