<svg xmlns="http://www.w3.org/2000/svg" class="s-BgHh72J5KvB0" viewBox="0 0 600 600" width="600" height="600">
    <defs class="s-BgHh72J5KvB0">
        <clipPath id="polygon-clip-6" class="s-BgHh72J5KvB0">
            <polygon class="s-BgHh72J5KvB0" points="450,40.192378864668385 600,299.99999999999994 450.0000000000001,559.8076211353315 150.00000000000006,559.8076211353316 0,300.0000000000002 149.99999999999966,40.19237886466862"/>
        </clipPath>
        <filter id="glow" x="-50%" y="-50%" width="200%" height="200%">
            <feGaussianBlur stdDeviation="16" result="smallBlur"/>
            <feGaussianBlur stdDeviation="32" result="mediumBlur"/>
            <feGaussianBlur stdDeviation="64" result="largeBlur"/>
            <feMerge>
                <feMergeNode in="largeBlur"/>
                <feMergeNode in="mediumBlur"/>
                <feMergeNode in="smallBlur"/>
                <feMergeNode in="SourceGraphic"/>
            </feMerge>
        </filter>
        <radialGradient id="redGradient" cx="50%" cy="50%" r="100%">
            <stop id="gradientStop1" offset="7%" style="stop-color:#1e293b;stop-opacity:1"/>
            <stop id="gradientStop2" offset="20%" style="stop-color:#1e293b;stop-opacity:1"/>
        </radialGradient>
        <mask id="pathMask">
            <rect width="100%" height="100%" fill="black"/>
            <path fill="none" stroke="white" stroke-width="2" stroke-linecap="round" stroke-linejoin="round" class="s-BgHh72J5KvB0" d="M 74.99999999999996 170.0961894323342 L 100.38188850499505 184.08812149452834 L 124.45897011367589 195.9896057490558 L 147.37622337007744 205.86559410120037 L 169.27862681823456 213.78103845624594 L 190.31115900218217 219.80089071947629 L 210.61879846595525 223.99010279617522 L 230.34652375358863 226.41362659162667 L 249.63931340911728 227.13641401111434 L 268.6421459765761 226.22341695992213 L 287.5 223.73958734333394 L 306.357854023424 219.7498770666335 L 325.36068659088266 214.31923803510466 L 344.6534762464114 207.51262215403128 L 364.3812015340447 199.3949813286972 L 384.6888409978178 190.03126746438625 L 405.72137318176544 179.4864324663822 L 427.62377662992265 167.825428239969 L 450.54102988632417 155.11320669043036 L 474.6181114950047 141.41471972305018 L 500 126.79491924311228"/>
            <path fill="none" stroke="white" stroke-width="2" stroke-linecap="round" stroke-linejoin="round" class="s-BgHh72J5KvB0" d="M 550 213.39745962155615 L 521.6575562251973 229.0560449164093 L 494.7653578529637 242.44874522121054 L 469.1622665052361 253.6405124412438 L 444.68714380395147 262.6962984817928 L 421.1788513710464 269.68105524814143 L 398.4762508284576 274.65973464557356 L 376.4182037981218 277.69728857937304 L 354.8435719019758 278.8586689548236 L 333.5912167619563 278.2088276772091 L 312.5 275.81271665181345 L 291.4087832380437 271.7352877839204 L 270.1564280980243 266.04149297881384 L 248.5817962018783 258.79628414177756 L 226.52374917154253 250.06461317809544 L 203.82114862895364 239.9114319930513 L 180.31285619604853 228.4016924919289 L 155.83773349476374 215.60034658001223 L 130.23464214703637 201.57234616258495 L 103.34244377480303 186.38264314493102 L 74.99999999999996 170.0961894323342"/>
            <path fill="none" stroke="white" stroke-width="2" stroke-linecap="round" stroke-linejoin="round" class="s-BgHh72J5KvB0" d="M 250 559.8076211353316 L 251.11171823737837 539.0054087609634 L 254.35756384690745 519.5049425974319 L 259.60357317467833 501.3402653261942 L 266.7157825667821 484.54541962870684 L 275.56022836930975 469.1544481864267 L 286.00294692835223 455.20139368081044 L 297.90997459000073 442.72029879331484 L 311.14734770034624 431.7452062053966 L 325.58110260547994 422.3101585985125 L 341.07727565149264 414.44919865411913 L 357.50190318447545 408.1963690536734 L 374.7210215505194 403.58571247863205 L 392.6006670957157 400.65127161045183 L 411.0068761661553 399.42708913058925 L 429.8056851079292 399.9472077205014 L 448.86313026712844 402.2456700616447 L 468.0452479898441 406.3565188354761 L 487.2180746221673 412.3137967234523 L 506.2476465101887 420.1515464070299 L 525 429.9038105676658"/>
            <path fill="none" stroke="white" stroke-width="2" stroke-linecap="round" stroke-linejoin="round" class="s-BgHh72J5KvB0" d="M 350 559.8076211353315 L 350.6366872983722 544.6338772424637 L 352.5048150254103 529.8959613325096 L 355.54148192899703 515.6734907305009 L 359.6837867570146 502.0460827614694 L 364.8688282573456 489.0933547504465 L 371.0337051778725 476.89492402246407 L 378.1155162664777 465.53040790255346 L 386.05136027104373 455.0794237157466 L 394.77833593945314 445.6215887870751 L 404.23354201958824 437.2365204415704 L 414.35407725933163 430.00383600426426 L 425.07704040656563 424.0031528001884 L 436.3395302091729 419.3140881543744 L 448.0786454150358 416.0162593918538 L 460.23148477203677 414.1892838376584 L 472.73514702805846 413.9127788168198 L 485.526730930983 415.2663616543695 L 498.54333522869325 418.3296496753394 L 511.72205866907126 423.182260204761 L 525 429.9038105676658"/>
        </mask>
    </defs>
    <polygon fill="white" id="base-polygon" stroke="none" class="s-BgHh72J5KvB0" points="450,40.192378864668385 600,299.99999999999994 450.0000000000001,559.8076211353315 150.00000000000006,559.8076211353316 0,300.0000000000002 149.99999999999966,40.19237886466862"/>
    <g clip-path="url(#polygon-clip-6)" class="s-BgHh72J5KvB0">
        <polygon id="border-polygon" fill="none" stroke="#ff0000" stroke-width="0" filter="url(#glow)" class="s-BgHh72J5KvB0" points="450,40.192378864668385 600,299.99999999999994 450.0000000000001,559.8076211353315 150.00000000000006,559.8076211353316 0,300.0000000000002 149.99999999999966,40.19237886466862"/>
    </g>
    <g clip-path="url(#polygon-clip-6)" class="s-BgHh72J5KvB0">
        <rect width="100%" height="100%" fill="url(#redGradient)" mask="url(#pathMask)" class="s-BgHh72J5KvB0"/>
    </g>
</svg>