<svg xmlns="http://www.w3.org/2000/svg" class="s-BgHh72J5KvB0" viewBox="0 0 600 600" width="600" height="600">
    <defs class="s-BgHh72J5KvB0">
        <clipPath id="polygon-clip-6" class="s-BgHh72J5KvB0">
            <polygon class="s-BgHh72J5KvB0" points="450,40.192378864668385 600,299.99999999999994 450.0000000000001,559.8076211353315 150.00000000000006,559.8076211353316 0,300.0000000000002 149.99999999999966,40.19237886466862"/>
        </clipPath>
        <filter id="glow" x="-50%" y="-50%" width="200%" height="200%">
            <feGaussianBlur stdDeviation="16" result="smallBlur"/>
            <feGaussianBlur stdDeviation="32" result="mediumBlur"/>
            <feGaussianBlur stdDeviation="64" result="largeBlur"/>
            <feMerge>
                <feMergeNode in="largeBlur"/>
                <feMergeNode in="mediumBlur"/>
                <feMergeNode in="smallBlur"/>
                <feMergeNode in="SourceGraphic"/>
            </feMerge>
        </filter>
        <radialGradient id="redGradient" cx="50%" cy="50%" r="100%">
            <stop id="gradientStop1" offset="7%" style="stop-color:#1e293b;stop-opacity:1"/>
            <stop id="gradientStop2" offset="20%" style="stop-color:#1e293b;stop-opacity:1"/>
        </radialGradient>
        <mask id="pathMask">
            <rect width="100%" height="100%" fill="black"/>
            <path fill="none" stroke="white" stroke-width="2" stroke-linecap="round" stroke-linejoin="round" class="s-BgHh72J5KvB0" d="M 74.99999999999996 170.0961894323342 L 88.2779413309286 176.81773979523905 L 101.45666477130678 181.6703503246606 L 114.47326906901696 184.73363834563045 L 127.26485297194161 186.0872211831802 L 139.76851522796318 185.81071616234158 L 151.9213545849642 183.98374060814615 L 163.66046979082708 180.68591184562564 L 174.92295959343434 175.99684719981158 L 185.6459227406684 169.9961639957357 L 195.76645798041176 162.7634795584296 L 205.2216640605469 154.37841121292496 L 213.9486397289562 144.9205762842534 L 221.8844837335223 134.4695920974465 L 228.9662948221275 123.10507597753602 L 235.13117174265443 110.90664524955352 L 240.31621324298544 97.95391723853064 L 244.45851807100306 84.3265092694991 L 247.49518497458968 70.10403866749046 L 249.36331270162776 55.36612275753644 L 250 40.19237886466854"/>
            <path fill="none" stroke="white" stroke-width="2" stroke-linecap="round" stroke-linejoin="round" class="s-BgHh72J5KvB0" d="M 350 40.19237886466846 A 50 50 0 0 1 250 40.19237886466854"/>
            <path fill="none" stroke="white" stroke-width="2" stroke-linecap="round" stroke-linejoin="round" class="s-BgHh72J5KvB0" d="M 525 170.0961894323342 L 500.19168713361637 185.08158364258705 L 477.8461586221146 199.98220583743202 L 457.8346751934774 214.8911351663651 L 440.0284975756873 229.90145077888226 L 424.29888649672677 245.10623182447958 L 410.5171026845784 260.5985574526529 L 398.55440686722466 276.4715068128984 L 388.2820597726482 292.818159054712 L 379.5713221288315 309.73159332758974 L 372.2934546637571 327.3048887810275 L 366.3197181054075 345.6311245645215 L 361.52137318176545 364.80337982756737 L 357.7696806208133 384.9147337196615 L 354.9359011505336 406.0582653902997 L 352.89129549890885 428.32705398897815 L 351.50712439392174 451.8141786651926 L 350.6546485635548 476.61271856843916 L 350.2051287357905 502.81575284821383 L 350.02982563861144 530.5163606540125 L 350 559.8076211353315"/>
            <path fill="none" stroke="white" stroke-width="2" stroke-linecap="round" stroke-linejoin="round" class="s-BgHh72J5KvB0" d="M 250 559.8076211353316 A 50 50 0 0 1 350 559.8076211353315"/>
        </mask>
    </defs>
    <polygon fill="white" id="base-polygon" stroke="none" class="s-BgHh72J5KvB0" points="450,40.192378864668385 600,299.99999999999994 450.0000000000001,559.8076211353315 150.00000000000006,559.8076211353316 0,300.0000000000002 149.99999999999966,40.19237886466862"/>
    <g clip-path="url(#polygon-clip-6)" class="s-BgHh72J5KvB0">
        <polygon id="border-polygon" fill="none" stroke="#ff0000" stroke-width="0" filter="url(#glow)" class="s-BgHh72J5KvB0" points="450,40.192378864668385 600,299.99999999999994 450.0000000000001,559.8076211353315 150.00000000000006,559.8076211353316 0,300.0000000000002 149.99999999999966,40.19237886466862"/>
    </g>
    <g clip-path="url(#polygon-clip-6)" class="s-BgHh72J5KvB0">
        <rect width="100%" height="100%" fill="url(#redGradient)" mask="url(#pathMask)" class="s-BgHh72J5KvB0"/>
    </g>
</svg>