<svg width="1024" height="1024" viewBox="0 0 1024 1024" xmlns="http://www.w3.org/2000/svg">
  <!-- Background gradient -->
  <defs>
    <linearGradient id="bgGradient" x1="0%" y1="0%" x2="100%" y2="100%">
      <stop offset="0%" style="stop-color:#1e293b;stop-opacity:1" />
      <stop offset="100%" style="stop-color:#0f172a;stop-opacity:1" />
    </linearGradient>
    <linearGradient id="tileGradient" x1="0%" y1="0%" x2="100%" y2="100%">
      <stop offset="0%" style="stop-color:#6366f1;stop-opacity:1" />
      <stop offset="100%" style="stop-color:#4f46e5;stop-opacity:1" />
    </linearGradient>
    <linearGradient id="pathGradient" x1="0%" y1="0%" x2="100%" y2="100%">
      <stop offset="0%" style="stop-color:#fbbf24;stop-opacity:1" />
      <stop offset="100%" style="stop-color:#f59e0b;stop-opacity:1" />
    </linearGradient>
    <!-- Glow effect -->
    <filter id="glow">
      <feGaussianBlur stdDeviation="6" result="coloredBlur"/>
      <feMerge> 
        <feMergeNode in="coloredBlur"/>
        <feMergeNode in="SourceGraphic"/>
      </feMerge>
    </filter>
  </defs>
  
  <!-- Background circle with subtle border -->
  <circle cx="512" cy="512" r="480" fill="url(#bgGradient)" stroke="#374151" stroke-width="12"/>
  
  <!-- Main geometric pattern - larger hexagonal tiles forming a clear loop -->
  
  <!-- Center hexagon -->
  <polygon points="512,360 580,395 580,465 512,500 444,465 444,395" 
           fill="url(#tileGradient)" 
           stroke="#e5e7eb" 
           stroke-width="4"/>
  
  <!-- Surrounding hexagons - positioned to form a clear loop -->
  <polygon points="380,300 448,335 448,405 380,440 312,405 312,335" 
           fill="url(#tileGradient)" 
           stroke="#e5e7eb" 
           stroke-width="4"/>
  
  <polygon points="644,300 712,335 712,405 644,440 576,405 576,335" 
           fill="url(#tileGradient)" 
           stroke="#e5e7eb" 
           stroke-width="4"/>
  
  <polygon points="380,520 448,555 448,625 380,660 312,625 312,555" 
           fill="url(#tileGradient)" 
           stroke="#e5e7eb" 
           stroke-width="4"/>
  
  <polygon points="644,520 712,555 712,625 644,660 576,625 576,555" 
           fill="url(#tileGradient)" 
           stroke="#e5e7eb" 
           stroke-width="4"/>
  
  <!-- Outer hexagons to complete the loop -->
  <polygon points="250,430 318,465 318,535 250,570 182,535 182,465" 
           fill="url(#tileGradient)" 
           stroke="#e5e7eb" 
           stroke-width="4"/>
  
  <polygon points="774,430 842,465 842,535 774,570 706,535 706,465" 
           fill="url(#tileGradient)" 
           stroke="#e5e7eb" 
           stroke-width="4"/>
  
  <!-- Connection paths forming a clear loop -->
  <path d="M 512,360 
           C 580,320 620,280 680,300 
           C 740,320 780,380 774,430 
           C 768,480 728,520 674,540 
           C 620,560 580,600 512,580 
           C 444,560 404,520 350,540 
           C 296,560 256,500 250,430 
           C 244,360 284,320 344,300 
           C 404,280 444,320 512,360 Z" 
        fill="none" 
        stroke="url(#pathGradient)" 
        stroke-width="20" 
        stroke-linecap="round" 
        filter="url(#glow)"/>
  
  <!-- Inner connecting lines between hexagons -->
  <line x1="448" y1="370" x2="444" y2="430" stroke="url(#pathGradient)" stroke-width="12" stroke-linecap="round"/>
  <line x1="576" y1="370" x2="580" y2="430" stroke="url(#pathGradient)" stroke-width="12" stroke-linecap="round"/>
  <line x1="448" y1="530" x2="444" y2="590" stroke="url(#pathGradient)" stroke-width="12" stroke-linecap="round"/>
  <line x1="576" y1="530" x2="580" y2="590" stroke="url(#pathGradient)" stroke-width="12" stroke-linecap="round"/>
  
  <!-- Central connection -->
  <circle cx="512" cy="432" r="16" fill="url(#pathGradient)" filter="url(#glow)"/>
</svg> 