<svg xmlns="http://www.w3.org/2000/svg" class="s-BgHh72J5KvB0" viewBox="0 0 600 600" width="600" height="600">
    <defs class="s-BgHh72J5KvB0">
        <clipPath id="polygon-clip-6" class="s-BgHh72J5KvB0">
            <polygon class="s-BgHh72J5KvB0" points="450,40.192378864668385 600,299.99999999999994 450.0000000000001,559.8076211353315 150.00000000000006,559.8076211353316 0,300.0000000000002 149.99999999999966,40.19237886466862"/>
        </clipPath>
        <filter id="glow" x="-50%" y="-50%" width="200%" height="200%">
            <feGaussianBlur stdDeviation="16" result="smallBlur"/>
            <feGaussianBlur stdDeviation="32" result="mediumBlur"/>
            <feGaussianBlur stdDeviation="64" result="largeBlur"/>
            <feMerge>
                <feMergeNode in="largeBlur"/>
                <feMergeNode in="mediumBlur"/>
                <feMergeNode in="smallBlur"/>
                <feMergeNode in="SourceGraphic"/>
            </feMerge>
        </filter>
        <radialGradient id="redGradient" cx="50%" cy="50%" r="100%">
            <stop id="gradientStop1" offset="7%" style="stop-color:#1e293b;stop-opacity:1"/>
            <stop id="gradientStop2" offset="20%" style="stop-color:#1e293b;stop-opacity:1"/>
        </radialGradient>
        <mask id="pathMask">
            <rect width="100%" height="100%" fill="black"/>
            <path fill="none" stroke="white" stroke-width="2" stroke-linecap="round" stroke-linejoin="round" class="s-BgHh72J5KvB0" d="M 300 40.1923788646685 L 300.5735756386114 69.16970513711554 L 302.3051287357905 95.97181158648797 L 305.21089856355496 120.75672926756563 L 309.30712439392187 143.68248923512837 L 314.61004549890896 164.90712254395598 L 321.13590115053364 184.58866024882826 L 328.9009306208133 202.88513340452516 L 337.92137318176555 219.95457306582645 L 348.2134681054076 235.95501028751198 L 359.7934546637572 251.04447612436155 L 372.67757212883157 265.3810016311551 L 386.88205977264823 279.12261786267214 L 402.42315686722463 292.42735587369293 L 419.31710268457834 305.45324671899704 L 437.5801364967267 318.35832145336445 L 457.22849757568724 331.3006111315749 L 478.2784251934775 344.4381468084083 L 500.74615862211465 357.9289595386443 L 524.6479371336163 371.9310803770627 L 550 386.60254037844385"/>
            <path fill="none" stroke="white" stroke-width="2" stroke-linecap="round" stroke-linejoin="round" class="s-BgHh72J5KvB0" d="M 500 473.20508075688775 A 50.00000000000002 50.00000000000002 0 0 1 550 386.60254037844385"/>
            <path fill="none" stroke="white" stroke-width="2" stroke-linecap="round" stroke-linejoin="round" class="s-BgHh72J5KvB0" d="M 500 473.20508075688775 L 486.5408086690714 466.16959618511106 L 472.84333522869315 460.4184842992631 L 459.007980930983 455.9370796795963 L 445.1351470280584 452.7107169063627 L 431.32523477203677 450.7247305598144 L 417.6786454150358 449.9644552202039 L 404.2957802091729 450.41522546778305 L 391.2770404065657 452.0623758828043 L 378.7228272593316 454.8912410455197 L 366.73354201958824 458.88715553618147 L 355.4095859394531 464.0354539350417 L 344.85136027104386 470.3214708223528 L 335.15926626647774 477.73054077836696 L 326.4337051778725 486.247998383336 L 318.7750782573456 495.8591782175125 L 312.2837867570146 506.5494148611485 L 307.0602319289969 518.3040428944963 L 303.2048150254103 531.1083968978079 L 300.8179372983722 544.9478114513356 L 300 559.8076211353316"/>
        </mask>
    </defs>
    <polygon fill="white" id="base-polygon" stroke="none" class="s-BgHh72J5KvB0" points="450,40.192378864668385 600,299.99999999999994 450.0000000000001,559.8076211353315 150.00000000000006,559.8076211353316 0,300.0000000000002 149.99999999999966,40.19237886466862"/>
    <g clip-path="url(#polygon-clip-6)" class="s-BgHh72J5KvB0">
        <polygon id="border-polygon" fill="none" stroke="#ff0000" stroke-width="0" filter="url(#glow)" class="s-BgHh72J5KvB0" points="450,40.192378864668385 600,299.99999999999994 450.0000000000001,559.8076211353315 150.00000000000006,559.8076211353316 0,300.0000000000002 149.99999999999966,40.19237886466862"/>
    </g>
    <g clip-path="url(#polygon-clip-6)" class="s-BgHh72J5KvB0">
        <rect width="100%" height="100%" fill="url(#redGradient)" mask="url(#pathMask)" class="s-BgHh72J5KvB0"/>
    </g>
</svg>