<svg xmlns="http://www.w3.org/2000/svg" class="s-BgHh72J5KvB0" viewBox="0 0 600 600" width="600" height="600">
    <defs class="s-BgHh72J5KvB0">
        <clipPath id="polygon-clip-6" class="s-BgHh72J5KvB0">
            <polygon class="s-BgHh72J5KvB0" points="450,40.192378864668385 600,299.99999999999994 450.0000000000001,559.8076211353315 150.00000000000006,559.8076211353316 0,300.0000000000002 149.99999999999966,40.19237886466862"/>
        </clipPath>
        <filter id="glow" x="-50%" y="-50%" width="200%" height="200%">
            <feGaussianBlur stdDeviation="16" result="smallBlur"/>
            <feGaussianBlur stdDeviation="32" result="mediumBlur"/>
            <feGaussianBlur stdDeviation="64" result="largeBlur"/>
            <feMerge>
                <feMergeNode in="largeBlur"/>
                <feMergeNode in="mediumBlur"/>
                <feMergeNode in="smallBlur"/>
                <feMergeNode in="SourceGraphic"/>
            </feMerge>
        </filter>
        <radialGradient id="redGradient" cx="50%" cy="50%" r="100%">
            <stop id="gradientStop1" offset="7%" style="stop-color:#1e293b;stop-opacity:1"/>
            <stop id="gradientStop2" offset="20%" style="stop-color:#1e293b;stop-opacity:1"/>
        </radialGradient>
        <mask id="pathMask">
            <rect width="100%" height="100%" fill="black"/>
            <path fill="none" stroke="white" stroke-width="2" stroke-linecap="round" stroke-linejoin="round" class="s-BgHh72J5KvB0" d="M 300 40.1923788646685 A 150 150 0 0 0 525 170.0961894323342"/>
            <path fill="none" stroke="white" stroke-width="2" stroke-linecap="round" stroke-linejoin="round" class="s-BgHh72J5KvB0" d="M 525 170.0961894323342 L 512.5399959674436 178.2344487534253 L 501.7481502541035 187.22125277753148 L 492.58696285998 196.96231875987328 L 485.018933785073 207.36336395567125 L 479.00656302938233 218.3301056201459 L 474.5123505929083 229.7682610085178 L 471.49879647565064 241.58354737600752 L 469.9284006776095 253.6816819778356 L 469.7636631987848 265.9683820692226 L 470.96708403917654 278.34936490538905 L 473.50116319878475 290.7303477415555 L 477.32840067760947 303.0170478329424 L 482.4112964756506 315.11518243477053 L 488.7123505929083 326.93046880226024 L 496.1940630293824 338.36862419063215 L 504.818933785073 349.33536585510683 L 514.54946285998 359.73641105090485 L 525.3481502541035 369.47747703324654 L 537.1774959674436 378.46428105735265 L 550 386.60254037844385"/>
            <path fill="none" stroke="white" stroke-width="2" stroke-linecap="round" stroke-linejoin="round" class="s-BgHh72J5KvB0" d="M 500 473.20508075688775 A 50.00000000000002 50.00000000000002 0 0 1 550 386.60254037844385"/>
            <path fill="none" stroke="white" stroke-width="2" stroke-linecap="round" stroke-linejoin="round" class="s-BgHh72J5KvB0" d="M 300 559.8076211353316 L 300.81793729837216 544.9478114513356 L 303.2048150254103 531.1083968978079 L 307.06023192899704 518.3040428944963 L 312.2837867570146 506.5494148611485 L 318.77507825734557 495.8591782175125 L 326.43370517787247 486.247998383336 L 335.1592662664777 477.73054077836684 L 344.85136027104375 470.32147082235286 L 355.4095859394531 464.0354539350418 L 366.73354201958824 458.8871555361814 L 378.72282725933167 454.8912410455196 L 391.2770404065656 452.0623758828043 L 404.2957802091729 450.4152254677831 L 417.67864541503576 449.9644552202039 L 431.32523477203677 450.7247305598145 L 445.1351470280584 452.7107169063627 L 459.007980930983 455.93707967959625 L 472.84333522869315 460.4184842992631 L 486.5408086690713 466.16959618511106 L 500 473.20508075688775"/>
        </mask>
    </defs>
    <polygon fill="white" id="base-polygon" stroke="none" class="s-BgHh72J5KvB0" points="450,40.192378864668385 600,299.99999999999994 450.0000000000001,559.8076211353315 150.00000000000006,559.8076211353316 0,300.0000000000002 149.99999999999966,40.19237886466862"/>
    <g clip-path="url(#polygon-clip-6)" class="s-BgHh72J5KvB0">
        <polygon id="border-polygon" fill="none" stroke="#ff0000" stroke-width="0" filter="url(#glow)" class="s-BgHh72J5KvB0" points="450,40.192378864668385 600,299.99999999999994 450.0000000000001,559.8076211353315 150.00000000000006,559.8076211353316 0,300.0000000000002 149.99999999999966,40.19237886466862"/>
    </g>
    <g clip-path="url(#polygon-clip-6)" class="s-BgHh72J5KvB0">
        <rect width="100%" height="100%" fill="url(#redGradient)" mask="url(#pathMask)" class="s-BgHh72J5KvB0"/>
    </g>
</svg>