<svg xmlns="http://www.w3.org/2000/svg" class="s-BgHh72J5KvB0" viewBox="0 0 600 600" width="600" height="600">
    <defs class="s-BgHh72J5KvB0">
        <clipPath id="polygon-clip-6" class="s-BgHh72J5KvB0">
            <polygon class="s-BgHh72J5KvB0" points="450,40.192378864668385 600,299.99999999999994 450.0000000000001,559.8076211353315 150.00000000000006,559.8076211353316 0,300.0000000000002 149.99999999999966,40.19237886466862"/>
        </clipPath>
        <filter id="glow" x="-50%" y="-50%" width="200%" height="200%">
            <feGaussianBlur stdDeviation="16" result="smallBlur"/>
            <feGaussianBlur stdDeviation="32" result="mediumBlur"/>
            <feGaussianBlur stdDeviation="64" result="largeBlur"/>
            <feMerge>
                <feMergeNode in="largeBlur"/>
                <feMergeNode in="mediumBlur"/>
                <feMergeNode in="smallBlur"/>
                <feMergeNode in="SourceGraphic"/>
            </feMerge>
        </filter>
        <radialGradient id="redGradient" cx="50%" cy="50%" r="100%">
            <stop id="gradientStop1" offset="7%" style="stop-color:#1e293b;stop-opacity:1"/>
            <stop id="gradientStop2" offset="20%" style="stop-color:#1e293b;stop-opacity:1"/>
        </radialGradient>
        <mask id="pathMask">
            <rect width="100%" height="100%" fill="black"/>
            <path fill="none" stroke="white" stroke-width="2" stroke-linecap="round" stroke-linejoin="round" class="s-BgHh72J5KvB0" d="M 74.99999999999996 170.0961894323342 L 100.38188850499505 184.08812149452834 L 124.45897011367589 195.9896057490558 L 147.37622337007744 205.86559410120037 L 169.27862681823456 213.78103845624594 L 190.31115900218217 219.80089071947629 L 210.61879846595525 223.99010279617522 L 230.34652375358863 226.41362659162667 L 249.63931340911728 227.13641401111434 L 268.6421459765761 226.22341695992213 L 287.5 223.73958734333394 L 306.357854023424 219.7498770666335 L 325.36068659088266 214.31923803510466 L 344.6534762464114 207.51262215403128 L 364.3812015340447 199.3949813286972 L 384.6888409978178 190.03126746438625 L 405.72137318176544 179.4864324663822 L 427.62377662992265 167.825428239969 L 450.54102988632417 155.11320669043036 L 474.6181114950047 141.41471972305018 L 500 126.79491924311228"/>
            <path fill="none" stroke="white" stroke-width="2" stroke-linecap="round" stroke-linejoin="round" class="s-BgHh72J5KvB0" d="M 550 213.39745962155615 L 537.1774959674436 221.53571894264726 L 525.3481502541036 230.52252296675343 L 514.5494628599799 240.26358894909526 L 504.81893378507294 250.6646341448932 L 496.19406302938233 261.63137580936785 L 488.71235059290825 273.06953119773976 L 482.4112964756506 284.88481756522947 L 477.32840067760947 296.9829521670576 L 473.5011631987848 309.2696522584446 L 470.96708403917654 321.650635094611 L 469.7636631987848 334.03161793077743 L 469.92840067760943 346.31831802216436 L 471.4987964756507 358.4164526239925 L 474.51235059290826 370.23173899148213 L 479.0065630293824 381.6698943798541 L 485.01893378507305 392.6366360443288 L 492.5869628599799 403.0376812401268 L 501.7481502541035 412.7787472224685 L 512.5399959674436 421.76555124657466 L 525 429.9038105676658"/>
            <path fill="none" stroke="white" stroke-width="2" stroke-linecap="round" stroke-linejoin="round" class="s-BgHh72J5KvB0" d="M 525 429.9038105676658 L 511.72205866907143 423.18226020476095 L 498.5433352286932 418.3296496753394 L 485.526730930983 415.2663616543696 L 472.73514702805846 413.9127788168198 L 460.23148477203677 414.18928383765837 L 448.0786454150358 416.01625939185385 L 436.33953020917295 419.3140881543743 L 425.0770404065657 424.00315280018833 L 414.3540772593316 430.0038360042643 L 404.2335420195883 437.2365204415704 L 394.7783359394531 445.6215887870751 L 386.0513602710438 455.0794237157466 L 378.11551626647775 465.5304079025535 L 371.03370517787255 476.894924022464 L 364.8688282573456 489.09335475044645 L 359.68378675701456 502.0460827614694 L 355.541481928997 515.6734907305009 L 352.5048150254104 529.8959613325095 L 350.63668729837224 544.6338772424637 L 350 559.8076211353315"/>
            <path fill="none" stroke="white" stroke-width="2" stroke-linecap="round" stroke-linejoin="round" class="s-BgHh72J5KvB0" d="M 250 559.8076211353316 A 499.9999999999999 499.9999999999999 0 0 1 500 126.79491924311228"/>
        </mask>
    </defs>
    <polygon fill="white" id="base-polygon" stroke="none" class="s-BgHh72J5KvB0" points="450,40.192378864668385 600,299.99999999999994 450.0000000000001,559.8076211353315 150.00000000000006,559.8076211353316 0,300.0000000000002 149.99999999999966,40.19237886466862"/>
    <g clip-path="url(#polygon-clip-6)" class="s-BgHh72J5KvB0">
        <polygon id="border-polygon" fill="none" stroke="#ff0000" stroke-width="0" filter="url(#glow)" class="s-BgHh72J5KvB0" points="450,40.192378864668385 600,299.99999999999994 450.0000000000001,559.8076211353315 150.00000000000006,559.8076211353316 0,300.0000000000002 149.99999999999966,40.19237886466862"/>
    </g>
    <g clip-path="url(#polygon-clip-6)" class="s-BgHh72J5KvB0">
        <rect width="100%" height="100%" fill="url(#redGradient)" mask="url(#pathMask)" class="s-BgHh72J5KvB0"/>
    </g>
</svg>