<svg xmlns="http://www.w3.org/2000/svg" class="s-BgHh72J5KvB0" viewBox="0 0 600 600" width="600" height="600">
    <defs class="s-BgHh72J5KvB0">
        <clipPath id="polygon-clip-6" class="s-BgHh72J5KvB0">
            <polygon class="s-BgHh72J5KvB0" points="450,40.192378864668385 600,299.99999999999994 450.0000000000001,559.8076211353315 150.00000000000006,559.8076211353316 0,300.0000000000002 149.99999999999966,40.19237886466862"/>
        </clipPath>
        <filter id="glow" x="-50%" y="-50%" width="200%" height="200%">
            <feGaussianBlur stdDeviation="16" result="smallBlur"/>
            <feGaussianBlur stdDeviation="32" result="mediumBlur"/>
            <feGaussianBlur stdDeviation="64" result="largeBlur"/>
            <feMerge>
                <feMergeNode in="largeBlur"/>
                <feMergeNode in="mediumBlur"/>
                <feMergeNode in="smallBlur"/>
                <feMergeNode in="SourceGraphic"/>
            </feMerge>
        </filter>
        <radialGradient id="redGradient" cx="50%" cy="50%" r="100%">
            <stop id="gradientStop1" offset="7%" style="stop-color:#1e293b;stop-opacity:1"/>
            <stop id="gradientStop2" offset="20%" style="stop-color:#1e293b;stop-opacity:1"/>
        </radialGradient>
        <mask id="pathMask">
            <rect width="100%" height="100%" fill="black"/>
            <path fill="none" stroke="white" stroke-width="2" stroke-linecap="round" stroke-linejoin="round" class="s-BgHh72J5KvB0" d="M 74.99999999999996 429.9038105676658 A 150 150 0 0 0 74.99999999999996 170.0961894323342"/>
            <path fill="none" stroke="white" stroke-width="2" stroke-linecap="round" stroke-linejoin="round" class="s-BgHh72J5KvB0" d="M 250 40.19237886466854 L 250.00000000000003 75.28069713710073 L 250.00000000000006 107.49294504356482 L 250.00000000000006 137.14868595805726 L 250.00000000000009 164.56748325457448 L 250.00000000000009 190.06890030711293 L 250.00000000000006 213.97250048966907 L 250.00000000000003 236.59784717623938 L 250.00000000000006 258.26450374082043 L 250.00000000000006 279.2920335574085 L 250.00000000000003 300.00000000000006 L 250.00000000000003 320.7079664425917 L 250.00000000000003 341.7354962591797 L 250.00000000000003 363.4021528237607 L 250 386.0274995103309 L 250 409.9310996928872 L 249.99999999999997 435.43251674542563 L 249.99999999999997 462.85131404194294 L 249.99999999999997 492.50705495643535 L 250 524.7193028628992 L 250 559.8076211353316"/>
            <path fill="none" stroke="white" stroke-width="2" stroke-linecap="round" stroke-linejoin="round" class="s-BgHh72J5KvB0" d="M 350 40.19237886466846 L 350.00000000000006 75.28069713710065 L 350.00000000000006 107.49294504356473 L 350.00000000000006 137.14868595805714 L 350.0000000000001 164.56748325457437 L 350.00000000000006 190.0689003071128 L 350.0000000000001 213.97250048966896 L 350.0000000000001 236.59784717623927 L 350.00000000000006 258.2645037408203 L 350.00000000000006 279.29203355740844 L 350.00000000000006 299.99999999999994 L 350 320.70796644259167 L 350 341.73549625917957 L 350 363.4021528237605 L 350 386.0274995103308 L 349.99999999999994 409.9310996928871 L 349.99999999999994 435.4325167454257 L 349.99999999999994 462.8513140419429 L 350 492.50705495643524 L 350 524.7193028628991 L 350 559.8076211353315"/>
            <path fill="none" stroke="white" stroke-width="2" stroke-linecap="round" stroke-linejoin="round" class="s-BgHh72J5KvB0" d="M 500 473.20508075688775 A 200 200 0 0 1 500 126.79491924311228"/>
            <path fill="none" stroke="white" stroke-width="2" stroke-linecap="round" stroke-linejoin="round" class="s-BgHh72J5KvB0" d="M 550 386.60254037844385 A 99.99999999999999 99.99999999999999 0 0 1 550 213.39745962155615"/>
        </mask>
    </defs>
    <polygon fill="white" id="base-polygon" stroke="none" class="s-BgHh72J5KvB0" points="450,40.192378864668385 600,299.99999999999994 450.0000000000001,559.8076211353315 150.00000000000006,559.8076211353316 0,300.0000000000002 149.99999999999966,40.19237886466862"/>
    <g clip-path="url(#polygon-clip-6)" class="s-BgHh72J5KvB0">
        <polygon id="border-polygon" fill="none" stroke="#ff0000" stroke-width="0" filter="url(#glow)" class="s-BgHh72J5KvB0" points="450,40.192378864668385 600,299.99999999999994 450.0000000000001,559.8076211353315 150.00000000000006,559.8076211353316 0,300.0000000000002 149.99999999999966,40.19237886466862"/>
    </g>
    <g clip-path="url(#polygon-clip-6)" class="s-BgHh72J5KvB0">
        <rect width="100%" height="100%" fill="url(#redGradient)" mask="url(#pathMask)" class="s-BgHh72J5KvB0"/>
    </g>
</svg>