<svg xmlns="http://www.w3.org/2000/svg" class="bg-white cursor-crosshair rounded-xl shadow-xl border border-slate-200 s-BgHh72J5KvB0" viewBox="0 0 600 600" width="600" height="600"><polygon id="border-polygon" fill="white" stroke="#00000033" stroke-width="1" class="s-BgHh72J5KvB0" points="512.1320343559643,87.86796564403573 512.1320343559643,512.1320343559643 87.86796564403576,512.1320343559643 87.86796564403569,87.86796564403576"/><!----><defs class="s-BgHh72J5KvB0"><clipPath id="polygon-clip" class="s-BgHh72J5KvB0"><polygon class="s-BgHh72J5KvB0" points="512.1320343559643,87.86796564403573 512.1320343559643,512.1320343559643 87.86796564403576,512.1320343559643 87.86796564403569,87.86796564403576"/></clipPath></defs><g clip-path="url(#polygon-clip)" class="s-BgHh72J5KvB0"><!----><path fill="none" stroke="#1e293b" stroke-width="2" stroke-linecap="round" stroke-linejoin="round" class="s-BgHh72J5KvB0" d="M 229.28932188134524 87.86796564403575 A 212.13203435596424 141.42135623730954 90 0 1 87.86796564403573 300"/><!----><path fill="none" stroke="#1e293b" stroke-width="2" stroke-linecap="round" stroke-linejoin="round" class="s-BgHh72J5KvB0" d="M 87.86796564403573 300 A 212.13203435596427 212.13203435596427 0 0 1 300 512.1320343559643"/><!----><path fill="none" stroke="#1e293b" stroke-width="2" stroke-linecap="round" stroke-linejoin="round" class="s-BgHh72J5KvB0" d="M 300 512.1320343559643 A 212.13203435596427 212.13203435596427 0 0 1 512.1320343559643 300"/><!----><path fill="none" stroke="#1e293b" stroke-width="2" stroke-linecap="round" stroke-linejoin="round" class="s-BgHh72J5KvB0" d="M 512.1320343559643 300 A 212.13203435596424 141.4213562373095 90 0 1 370.71067811865476 87.86796564403576"/><!----><path fill="none" stroke="#1e293b" stroke-width="2" stroke-linecap="round" stroke-linejoin="round" class="s-BgHh72J5KvB0" d="M 229.28932188134524 87.86796564403576 A 70.71067811865476 70.71067811865476 0 0 0 370.71067811865476 87.86796564403576"/><!----><!----></g><!----><!----><!----></svg>