<svg xmlns="http://www.w3.org/2000/svg" class="s-BgHh72J5KvB0" viewBox="0 0 600 600" width="600" height="600">
    <defs class="s-BgHh72J5KvB0">
        <clipPath id="polygon-clip-6" class="s-BgHh72J5KvB0">
            <polygon class="s-BgHh72J5KvB0" points="450,40.192378864668385 600,299.99999999999994 450.0000000000001,559.8076211353315 150.00000000000006,559.8076211353316 0,300.0000000000002 149.99999999999966,40.19237886466862"/>
        </clipPath>
        <filter id="glow" x="-50%" y="-50%" width="200%" height="200%">
            <feGaussianBlur stdDeviation="16" result="smallBlur"/>
            <feGaussianBlur stdDeviation="32" result="mediumBlur"/>
            <feGaussianBlur stdDeviation="64" result="largeBlur"/>
            <feMerge>
                <feMergeNode in="largeBlur"/>
                <feMergeNode in="mediumBlur"/>
                <feMergeNode in="smallBlur"/>
                <feMergeNode in="SourceGraphic"/>
            </feMerge>
        </filter>
        <radialGradient id="redGradient" cx="50%" cy="50%" r="100%">
            <stop id="gradientStop1" offset="7%" style="stop-color:#1e293b;stop-opacity:1"/>
            <stop id="gradientStop2" offset="20%" style="stop-color:#1e293b;stop-opacity:1"/>
        </radialGradient>
        <mask id="pathMask">
            <rect width="100%" height="100%" fill="black"/>
            <path fill="none" stroke="white" stroke-width="2" stroke-linecap="round" stroke-linejoin="round" class="s-BgHh72J5KvB0" d="M 74.99999999999996 170.0961894323342 A 150 150 0 0 0 300 40.1923788646685"/>
            <path fill="none" stroke="white" stroke-width="2" stroke-linecap="round" stroke-linejoin="round" class="s-BgHh72J5KvB0" d="M 300 40.1923788646685 L 300.81793729837216 55.0521885486645 L 303.2048150254103 68.89160310219222 L 307.06023192899704 81.69595710550385 L 312.28378675701464 93.45058513885155 L 318.7750782573456 104.14082178248758 L 326.4337051778725 113.75200161666407 L 335.15926626647774 122.26945922163324 L 344.85136027104386 129.67852917764725 L 355.40958593945317 135.96454606495834 L 366.73354201958824 141.11284446381865 L 378.72282725933167 145.10875895448044 L 391.2770404065657 147.93762411719578 L 404.29578020917296 149.58477453221698 L 417.67864541503576 150.03554477979617 L 431.32523477203677 149.2752694401856 L 445.13514702805844 147.28928309363738 L 459.007980930983 144.0629203204038 L 472.84333522869326 139.5815157007369 L 486.5408086690713 133.830403814889 L 500 126.79491924311228"/>
            <path fill="none" stroke="white" stroke-width="2" stroke-linecap="round" stroke-linejoin="round" class="s-BgHh72J5KvB0" d="M 500 126.79491924311228 A 200 200 0 0 0 500 473.20508075688775"/>
            <path fill="none" stroke="white" stroke-width="2" stroke-linecap="round" stroke-linejoin="round" class="s-BgHh72J5KvB0" d="M 550 386.60254037844385 A 99.99999999999999 99.99999999999999 0 0 1 550 213.39745962155615"/>
            <path fill="none" stroke="white" stroke-width="2" stroke-linecap="round" stroke-linejoin="round" class="s-BgHh72J5KvB0" d="M 500 473.20508075688775 L 486.5408086690714 466.16959618511106 L 472.84333522869315 460.4184842992631 L 459.007980930983 455.9370796795963 L 445.1351470280584 452.7107169063627 L 431.32523477203677 450.7247305598144 L 417.6786454150358 449.9644552202039 L 404.2957802091729 450.41522546778305 L 391.2770404065657 452.0623758828043 L 378.7228272593316 454.8912410455197 L 366.73354201958824 458.88715553618147 L 355.4095859394531 464.0354539350417 L 344.85136027104386 470.3214708223528 L 335.15926626647774 477.73054077836696 L 326.4337051778725 486.247998383336 L 318.7750782573456 495.8591782175125 L 312.2837867570146 506.5494148611485 L 307.0602319289969 518.3040428944963 L 303.2048150254103 531.1083968978079 L 300.8179372983722 544.9478114513356 L 300 559.8076211353316"/>
        </mask>
    </defs>
    <polygon fill="white" id="base-polygon" stroke="none" class="s-BgHh72J5KvB0" points="450,40.192378864668385 600,299.99999999999994 450.0000000000001,559.8076211353315 150.00000000000006,559.8076211353316 0,300.0000000000002 149.99999999999966,40.19237886466862"/>
    <g clip-path="url(#polygon-clip-6)" class="s-BgHh72J5KvB0">
        <polygon id="border-polygon" fill="none" stroke="#ff0000" stroke-width="0" filter="url(#glow)" class="s-BgHh72J5KvB0" points="450,40.192378864668385 600,299.99999999999994 450.0000000000001,559.8076211353315 150.00000000000006,559.8076211353316 0,300.0000000000002 149.99999999999966,40.19237886466862"/>
    </g>
    <g clip-path="url(#polygon-clip-6)" class="s-BgHh72J5KvB0">
        <rect width="100%" height="100%" fill="url(#redGradient)" mask="url(#pathMask)" class="s-BgHh72J5KvB0"/>
    </g>
</svg>