<svg xmlns="http://www.w3.org/2000/svg" class="s-BgHh72J5KvB0" viewBox="0 0 600 600" width="600" height="600">
    <defs class="s-BgHh72J5KvB0">
        <clipPath id="polygon-clip-6" class="s-BgHh72J5KvB0">
            <polygon class="s-BgHh72J5KvB0" points="450,40.192378864668385 600,299.99999999999994 450.0000000000001,559.8076211353315 150.00000000000006,559.8076211353316 0,300.0000000000002 149.99999999999966,40.19237886466862"/>
        </clipPath>
        <filter id="glow" x="-50%" y="-50%" width="200%" height="200%">
            <feGaussianBlur stdDeviation="16" result="smallBlur"/>
            <feGaussianBlur stdDeviation="32" result="mediumBlur"/>
            <feGaussianBlur stdDeviation="64" result="largeBlur"/>
            <feMerge>
                <feMergeNode in="largeBlur"/>
                <feMergeNode in="mediumBlur"/>
                <feMergeNode in="smallBlur"/>
                <feMergeNode in="SourceGraphic"/>
            </feMerge>
        </filter>
        <radialGradient id="redGradient" cx="50%" cy="50%" r="100%">
            <stop id="gradientStop1" offset="7%" style="stop-color:#1e293b;stop-opacity:1"/>
            <stop id="gradientStop2" offset="20%" style="stop-color:#1e293b;stop-opacity:1"/>
        </radialGradient>
        <mask id="pathMask">
            <rect width="100%" height="100%" fill="black"/>
            <path fill="none" stroke="white" stroke-width="2" stroke-linecap="round" stroke-linejoin="round" class="s-BgHh72J5KvB0" d="M 74.99999999999996 429.9038105676658 L 87.4600040325564 421.76555124657466 L 98.25184974589641 412.7787472224685 L 107.41303714001992 403.0376812401267 L 114.98106621492698 392.63663604432867 L 120.99343697061755 381.6698943798541 L 125.48764940709168 370.23173899148213 L 128.50120352434934 358.4164526239924 L 130.0715993223905 346.3183180221643 L 130.23633680121523 334.0316179307773 L 129.03291596082346 321.65063509461095 L 126.49883680121525 309.26965225844447 L 122.67159932239053 296.98295216705753 L 117.58870352434936 284.88481756522947 L 111.28764940709172 273.06953119773976 L 103.80593697061764 261.6313758093678 L 95.18106621492703 250.6646341448931 L 85.45053714002002 240.26358894909518 L 74.65184974589647 230.5225229667534 L 62.82250403255648 221.53571894264735 L 50.000000000000014 213.39745962155615"/>
            <path fill="none" stroke="white" stroke-width="2" stroke-linecap="round" stroke-linejoin="round" class="s-BgHh72J5KvB0" d="M 74.99999999999996 429.9038105676658 L 88.27794133092858 423.18226020476095 L 101.45666477130676 418.3296496753394 L 114.47326906901694 415.2663616543695 L 127.26485297194156 413.91277881681975 L 139.76851522796315 414.1892838376584 L 151.92135458496415 416.0162593918538 L 163.66046979082705 419.3140881543743 L 174.9229595934343 424.00315280018845 L 185.64592274066834 430.0038360042643 L 195.76645798041167 437.2365204415704 L 205.22166406054683 445.6215887870751 L 213.94863972895612 455.07942371574666 L 221.88448373352222 465.5304079025536 L 228.96629482212742 476.89492402246407 L 235.13117174265437 489.09335475044657 L 240.31621324298536 502.04608276146945 L 244.45851807100303 515.673490730501 L 247.49518497458965 529.8959613325096 L 249.36331270162776 544.6338772424638 L 250 559.8076211353316"/>
            <path fill="none" stroke="white" stroke-width="2" stroke-linecap="round" stroke-linejoin="round" class="s-BgHh72J5KvB0" d="M 350 559.8076211353315 A 499.9999999999998 499.9999999999998 0 0 0 99.99999999999993 126.79491924311222"/>
            <path fill="none" stroke="white" stroke-width="2" stroke-linecap="round" stroke-linejoin="round" class="s-BgHh72J5KvB0" d="M 250 40.19237886466854 A 500.0000000000001 500.0000000000001 0 0 0 500 473.20508075688775"/>
            <path fill="none" stroke="white" stroke-width="2" stroke-linecap="round" stroke-linejoin="round" class="s-BgHh72J5KvB0" d="M 550 386.60254037844385 A 99.99999999999999 99.99999999999999 0 0 1 550 213.39745962155615"/>
            <path fill="none" stroke="white" stroke-width="2" stroke-linecap="round" stroke-linejoin="round" class="s-BgHh72J5KvB0" d="M 500 126.79491924311228 A 100 100 0 0 1 350 40.19237886466846"/>
        </mask>
    </defs>
    <polygon fill="white" id="base-polygon" stroke="none" class="s-BgHh72J5KvB0" points="450,40.192378864668385 600,299.99999999999994 450.0000000000001,559.8076211353315 150.00000000000006,559.8076211353316 0,300.0000000000002 149.99999999999966,40.19237886466862"/>
    <g clip-path="url(#polygon-clip-6)" class="s-BgHh72J5KvB0">
        <polygon id="border-polygon" fill="none" stroke="#ff0000" stroke-width="0" filter="url(#glow)" class="s-BgHh72J5KvB0" points="450,40.192378864668385 600,299.99999999999994 450.0000000000001,559.8076211353315 150.00000000000006,559.8076211353316 0,300.0000000000002 149.99999999999966,40.19237886466862"/>
    </g>
    <g clip-path="url(#polygon-clip-6)" class="s-BgHh72J5KvB0">
        <rect width="100%" height="100%" fill="url(#redGradient)" mask="url(#pathMask)" class="s-BgHh72J5KvB0"/>
    </g>
</svg>