<svg xmlns="http://www.w3.org/2000/svg" class="s-BgHh72J5KvB0" viewBox="0 0 600 600" width="600" height="600">
    <defs class="s-BgHh72J5KvB0">
        <clipPath id="polygon-clip-6" class="s-BgHh72J5KvB0">
            <polygon class="s-BgHh72J5KvB0" points="450,40.192378864668385 600,299.99999999999994 450.0000000000001,559.8076211353315 150.00000000000006,559.8076211353316 0,300.0000000000002 149.99999999999966,40.19237886466862"/>
        </clipPath>
        <filter id="glow" x="-50%" y="-50%" width="200%" height="200%">
            <feGaussianBlur stdDeviation="16" result="smallBlur"/>
            <feGaussianBlur stdDeviation="32" result="mediumBlur"/>
            <feGaussianBlur stdDeviation="64" result="largeBlur"/>
            <feMerge>
                <feMergeNode in="largeBlur"/>
                <feMergeNode in="mediumBlur"/>
                <feMergeNode in="smallBlur"/>
                <feMergeNode in="SourceGraphic"/>
            </feMerge>
        </filter>
        <radialGradient id="redGradient" cx="50%" cy="50%" r="100%">
            <stop id="gradientStop1" offset="7%" style="stop-color:#1e293b;stop-opacity:1"/>
            <stop id="gradientStop2" offset="20%" style="stop-color:#1e293b;stop-opacity:1"/>
        </radialGradient>
        <mask id="pathMask">
            <rect width="100%" height="100%" fill="black"/>
            <path fill="none" stroke="white" stroke-width="2" stroke-linecap="round" stroke-linejoin="round" class="s-BgHh72J5KvB0" d="M 49.99999999999993 386.60254037844385 A 99.99999999999997 99.99999999999997 0 0 0 50.000000000000014 213.39745962155615"/>
            <path fill="none" stroke="white" stroke-width="2" stroke-linecap="round" stroke-linejoin="round" class="s-BgHh72J5KvB0" d="M 99.99999999999993 126.79491924311222 A 200 200 0 0 1 99.99999999999997 473.2050807568877"/>
            <path fill="none" stroke="white" stroke-width="2" stroke-linecap="round" stroke-linejoin="round" class="s-BgHh72J5KvB0" d="M 250 40.19237886466854 A 200 200 0 0 0 550 213.39745962155615"/>
            <path fill="none" stroke="white" stroke-width="2" stroke-linecap="round" stroke-linejoin="round" class="s-BgHh72J5KvB0" d="M 350 40.19237886466846 A 100 100 0 0 0 500 126.79491924311228"/>
            <path fill="none" stroke="white" stroke-width="2" stroke-linecap="round" stroke-linejoin="round" class="s-BgHh72J5KvB0" d="M 550 386.60254037844385 A 200.00000000000003 200.00000000000003 0 0 0 250 559.8076211353316"/>
            <path fill="none" stroke="white" stroke-width="2" stroke-linecap="round" stroke-linejoin="round" class="s-BgHh72J5KvB0" d="M 350 559.8076211353315 A 99.99999999999997 99.99999999999997 0 0 1 500 473.20508075688775"/>
        </mask>
    </defs>
    <polygon fill="white" id="base-polygon" stroke="none" class="s-BgHh72J5KvB0" points="450,40.192378864668385 600,299.99999999999994 450.0000000000001,559.8076211353315 150.00000000000006,559.8076211353316 0,300.0000000000002 149.99999999999966,40.19237886466862"/>
    <g clip-path="url(#polygon-clip-6)" class="s-BgHh72J5KvB0">
        <polygon id="border-polygon" fill="none" stroke="#ff0000" stroke-width="0" filter="url(#glow)" class="s-BgHh72J5KvB0" points="450,40.192378864668385 600,299.99999999999994 450.0000000000001,559.8076211353315 150.00000000000006,559.8076211353316 0,300.0000000000002 149.99999999999966,40.19237886466862"/>
    </g>
    <g clip-path="url(#polygon-clip-6)" class="s-BgHh72J5KvB0">
        <rect width="100%" height="100%" fill="url(#redGradient)" mask="url(#pathMask)" class="s-BgHh72J5KvB0"/>
    </g>
</svg>