<svg xmlns="http://www.w3.org/2000/svg" class="s-BgHh72J5KvB0" viewBox="0 0 600 600" width="600" height="600">
    <defs class="s-BgHh72J5KvB0">
        <clipPath id="polygon-clip-4" class="s-BgHh72J5KvB0">
            <polygon class="s-BgHh72J5KvB0" points="512.1320343559643,87.86796564403573 512.1320343559643,512.1320343559643 87.86796564403576,512.1320343559643 87.86796564403569,87.86796564403576"/>
        </clipPath>
        <filter id="glow" x="-50%" y="-50%" width="200%" height="200%">
            <feGaussianBlur stdDeviation="16" result="smallBlur"/>
            <feGaussianBlur stdDeviation="32" result="mediumBlur"/>
            <feGaussianBlur stdDeviation="64" result="largeBlur"/>
            <feMerge>
                <feMergeNode in="largeBlur"/>
                <feMergeNode in="mediumBlur"/>
                <feMergeNode in="smallBlur"/>
                <feMergeNode in="SourceGraphic"/>
            </feMerge>
        </filter>
        <radialGradient id="redGradient" cx="50%" cy="50%" r="100%">
            <stop id="gradientStop1" offset="7%" style="stop-color:#1e293b;stop-opacity:1"/>
            <stop id="gradientStop2" offset="20%" style="stop-color:#1e293b;stop-opacity:1"/>
        </radialGradient>
        <mask id="pathMask">
            <rect width="100%" height="100%" fill="black"/>
            <path fill="none" stroke="white" stroke-width="2" stroke-linecap="round" stroke-linejoin="round" class="s-BgHh72J5KvB0" d="M 300 512.1320343559643 A 212.13203435596424 141.4213562373095 0 0 0 87.86796564403573 370.71067811865476"/>
            <path fill="none" stroke="white" stroke-width="2" stroke-linecap="round" stroke-linejoin="round" class="s-BgHh72J5KvB0" d="M 300 512.1320343559643 A 282.842712474619 212.13203435596418 -90.00000000000001 0 0 87.86796564403576 229.28932188134524"/>
            <path fill="none" stroke="white" stroke-width="2" stroke-linecap="round" stroke-linejoin="round" class="s-BgHh72J5KvB0" d="M 300 512.1320343559643 L 299.48734758363975 483.1297867935947 L 298.0201010126776 456.5872373765218 L 295.7043263042918 432.231086310824 L 292.64608947565995 409.7880338025792 L 288.9514565439602 388.98478005786546 L 284.7264935263706 369.5480252827613 L 280.077266440069 351.2044696833444 L 275.1098413022335 333.6808134656932 L 269.9302841300421 316.7037568358857 L 264.6446609406726 300 L 259.35903775130316 283.2962431641143 L 254.17948057911173 266.3191865343069 L 249.21205544127622 248.79553031665566 L 244.56282835497467 230.45197471723884 L 240.33786533738504 211.01521994213445 L 236.64323240568532 190.21196619742082 L 233.58499557705352 167.76891368917592 L 231.2692208686676 143.4127626234781 L 229.80197429770553 116.87021320640554 L 229.28932188134524 87.86796564403576"/>
            <path fill="none" stroke="white" stroke-width="2" stroke-linecap="round" stroke-linejoin="round" class="s-BgHh72J5KvB0" d="M 300 512.1320343559643 L 300.51265241636025 483.1297867935947 L 301.9798989873223 456.5872373765218 L 304.29567369570833 432.231086310824 L 307.3539105243401 409.7880338025792 L 311.0485434560398 388.98478005786546 L 315.2735064736294 369.5480252827613 L 319.922733559931 351.2044696833444 L 324.8901586977665 333.6808134656932 L 330.0697158699579 316.7037568358857 L 335.3553390593274 300 L 340.64096224869684 283.2962431641143 L 345.8205194208883 266.3191865343069 L 350.7879445587238 248.79553031665566 L 355.43717164502533 230.45197471723884 L 359.66213466261496 211.01521994213445 L 363.35676759431465 190.21196619742082 L 366.4150044229465 167.76891368917592 L 368.73077913133244 143.4127626234781 L 370.1980257022945 116.87021320640554 L 370.71067811865476 87.86796564403576"/>
        </mask>
    </defs>
    <polygon fill="white" id="base-polygon" stroke="none" class="s-BgHh72J5KvB0" points="512.1320343559643,87.86796564403573 512.1320343559643,512.1320343559643 87.86796564403576,512.1320343559643 87.86796564403569,87.86796564403576"/>
    <g clip-path="url(#polygon-clip-4)" class="s-BgHh72J5KvB0">
        <polygon id="border-polygon" fill="none" stroke="#ff0000" stroke-width="0" filter="url(#glow)" class="s-BgHh72J5KvB0" points="512.1320343559643,87.86796564403573 512.1320343559643,512.1320343559643 87.86796564403576,512.1320343559643 87.86796564403569,87.86796564403576"/>
    </g>
    <g clip-path="url(#polygon-clip-4)" class="s-BgHh72J5KvB0">
        <rect width="100%" height="100%" fill="url(#redGradient)" mask="url(#pathMask)" class="s-BgHh72J5KvB0"/>
    </g>
</svg>