<svg xmlns="http://www.w3.org/2000/svg" class="s-BgHh72J5KvB0" viewBox="0 0 600 600" width="600" height="600">
    <defs class="s-BgHh72J5KvB0">
        <clipPath id="polygon-clip-4" class="s-BgHh72J5KvB0">
            <polygon class="s-BgHh72J5KvB0" points="512.1320343559643,87.86796564403573 512.1320343559643,512.1320343559643 87.86796564403576,512.1320343559643 87.86796564403569,87.86796564403576"/>
        </clipPath>
        <filter id="glow" x="-50%" y="-50%" width="200%" height="200%">
            <feGaussianBlur stdDeviation="16" result="smallBlur"/>
            <feGaussianBlur stdDeviation="32" result="mediumBlur"/>
            <feGaussianBlur stdDeviation="64" result="largeBlur"/>
            <feMerge>
                <feMergeNode in="largeBlur"/>
                <feMergeNode in="mediumBlur"/>
                <feMergeNode in="smallBlur"/>
                <feMergeNode in="SourceGraphic"/>
            </feMerge>
        </filter>
        <radialGradient id="redGradient" cx="50%" cy="50%" r="100%">
            <stop id="gradientStop1" offset="7%" style="stop-color:#1e293b;stop-opacity:1"/>
            <stop id="gradientStop2" offset="20%" style="stop-color:#1e293b;stop-opacity:1"/>
        </radialGradient>
        <mask id="pathMask">
            <rect width="100%" height="100%" fill="black"/>
            <path fill="none" stroke="white" stroke-width="2" stroke-linecap="round" stroke-linejoin="round" class="s-BgHh72J5KvB0" d="M 229.28932188134524 87.86796564403575 L 230.31462671406572 117.90079764494594 L 233.24911985598993 145.14848378312547 L 237.8806692727618 169.92048470998884 L 243.99714293002543 192.52626107695062 L 251.38640879342483 213.27527353542527 L 259.8363348286041 232.4769827368273 L 269.1347890012072 250.4408493325713 L 279.0696392768782 267.47633397407174 L 289.4287536212611 283.8928973127431 L 300 300 L 310.5712463787389 316.10710268725694 L 320.9303607231218 332.52366602592826 L 330.8652109987928 349.55915066742864 L 340.1636651713959 367.5230172631726 L 348.61359120657517 386.7247264645747 L 356.0028570699746 407.47373892304944 L 362.1193307272382 430.0795152900113 L 366.75088014401007 454.85151621687453 L 369.68537328593425 482.0992023550539 L 370.71067811865476 512.1320343559643"/>
            <path fill="none" stroke="white" stroke-width="2" stroke-linecap="round" stroke-linejoin="round" class="s-BgHh72J5KvB0" d="M 229.2893218813452 512.1320343559643 L 230.31462671406567 482.0992023550541 L 233.24911985598987 454.8515162168745 L 237.88066927276174 430.0795152900112 L 243.99714293002538 407.47373892304944 L 251.38640879342483 386.7247264645747 L 259.83633482860404 367.52301726317273 L 269.13478900120714 349.5591506674287 L 279.0696392768782 332.52366602592826 L 289.4287536212611 316.1071026872569 L 300 300 L 310.57124637873886 283.89289731274306 L 320.9303607231218 267.4763339740718 L 330.86521099879275 250.44084933257136 L 340.1636651713959 232.47698273682744 L 348.61359120657517 213.27527353542524 L 356.0028570699746 192.52626107695062 L 362.1193307272382 169.92048470998878 L 366.75088014401007 145.14848378312547 L 369.68537328593425 117.90079764494614 L 370.71067811865476 87.86796564403575"/>
        </mask>
    </defs>
    <polygon fill="white" id="base-polygon" stroke="none" class="s-BgHh72J5KvB0" points="512.1320343559643,87.86796564403573 512.1320343559643,512.1320343559643 87.86796564403576,512.1320343559643 87.86796564403569,87.86796564403576"/>
    <g clip-path="url(#polygon-clip-4)" class="s-BgHh72J5KvB0">
        <polygon id="border-polygon" fill="none" stroke="#ff0000" stroke-width="0" filter="url(#glow)" class="s-BgHh72J5KvB0" points="512.1320343559643,87.86796564403573 512.1320343559643,512.1320343559643 87.86796564403576,512.1320343559643 87.86796564403569,87.86796564403576"/>
    </g>
    <g clip-path="url(#polygon-clip-4)" class="s-BgHh72J5KvB0">
        <rect width="100%" height="100%" fill="url(#redGradient)" mask="url(#pathMask)" class="s-BgHh72J5KvB0"/>
    </g>
</svg>