<svg xmlns="http://www.w3.org/2000/svg" class="s-BgHh72J5KvB0" viewBox="0 0 600 600" width="600" height="600">
    <defs class="s-BgHh72J5KvB0">
        <clipPath id="polygon-clip-4" class="s-BgHh72J5KvB0">
            <polygon class="s-BgHh72J5KvB0" points="512.1320343559643,87.86796564403573 512.1320343559643,512.1320343559643 87.86796564403576,512.1320343559643 87.86796564403569,87.86796564403576"/>
        </clipPath>
        <filter id="glow" x="-50%" y="-50%" width="200%" height="200%">
            <feGaussianBlur stdDeviation="16" result="smallBlur"/>
            <feGaussianBlur stdDeviation="32" result="mediumBlur"/>
            <feGaussianBlur stdDeviation="64" result="largeBlur"/>
            <feMerge>
                <feMergeNode in="largeBlur"/>
                <feMergeNode in="mediumBlur"/>
                <feMergeNode in="smallBlur"/>
                <feMergeNode in="SourceGraphic"/>
            </feMerge>
        </filter>
        <radialGradient id="redGradient" cx="50%" cy="50%" r="100%">
            <stop id="gradientStop1" offset="7%" style="stop-color:#1e293b;stop-opacity:1"/>
            <stop id="gradientStop2" offset="20%" style="stop-color:#1e293b;stop-opacity:1"/>
        </radialGradient>
        <mask id="pathMask">
            <rect width="100%" height="100%" fill="black"/>
            <path fill="none" stroke="white" stroke-width="2" stroke-linecap="round" stroke-linejoin="round" class="s-BgHh72J5KvB0" d="M 87.86796564403572 229.2893218813452 L 117.90079764494591 230.31462671406567 L 145.14848378312547 233.24911985598987 L 169.92048470998884 237.88066927276174 L 192.52626107695062 243.9971429300254 L 213.27527353542524 251.3864087934248 L 232.4769827368273 259.83633482860404 L 250.44084933257125 269.13478900120714 L 267.47633397407174 279.0696392768782 L 283.8928973127431 289.4287536212611 L 300 300 L 316.10710268725694 310.57124637873886 L 332.5236660259282 320.9303607231218 L 349.55915066742864 330.8652109987928 L 367.5230172631726 340.1636651713959 L 386.7247264645747 348.61359120657517 L 407.4737389230494 356.00285706997465 L 430.0795152900113 362.11933072723826 L 454.85151621687453 366.7508801440101 L 482.0992023550539 369.6853732859343 L 512.1320343559643 370.7106781186548"/>
            <path fill="none" stroke="white" stroke-width="2" stroke-linecap="round" stroke-linejoin="round" class="s-BgHh72J5KvB0" d="M 512.1320343559643 229.28932188134527 L 482.0992023550541 230.31462671406575 L 454.8515162168745 233.24911985598993 L 430.0795152900112 237.88066927276182 L 407.47373892304944 243.99714293002546 L 386.7247264645747 251.3864087934249 L 367.5230172631727 259.83633482860415 L 349.5591506674287 269.1347890012072 L 332.52366602592826 279.0696392768782 L 316.1071026872569 289.42875362126114 L 300 300 L 283.89289731274306 310.5712463787389 L 267.47633397407174 320.9303607231218 L 250.44084933257136 330.8652109987928 L 232.4769827368274 340.1636651713959 L 213.27527353542527 348.61359120657517 L 192.52626107695062 356.0028570699746 L 169.92048470998878 362.1193307272382 L 145.14848378312547 366.75088014401007 L 117.90079764494615 369.68537328593425 L 87.86796564403576 370.71067811865476"/>
            <path fill="none" stroke="white" stroke-width="2" stroke-linecap="round" stroke-linejoin="round" class="s-BgHh72J5KvB0" d="M 229.28932188134524 87.86796564403575 L 230.31462671406572 117.90079764494592 L 233.24911985598993 145.14848378312547 L 237.8806692727618 169.92048470998884 L 243.99714293002543 192.5262610769506 L 251.38640879342483 213.27527353542524 L 259.8363348286041 232.47698273682727 L 269.1347890012072 250.44084933257125 L 279.0696392768782 267.4763339740717 L 289.4287536212611 283.89289731274306 L 300 299.99999999999994 L 310.5712463787389 316.1071026872569 L 320.9303607231218 332.5236660259282 L 330.8652109987928 349.55915066742864 L 340.1636651713959 367.5230172631725 L 348.61359120657517 386.72472646457464 L 356.0028570699746 407.4737389230493 L 362.1193307272382 430.07951529001116 L 366.75088014401007 454.8515162168744 L 369.68537328593425 482.09920235505376 L 370.71067811865476 512.1320343559642"/>
            <path fill="none" stroke="white" stroke-width="2" stroke-linecap="round" stroke-linejoin="round" class="s-BgHh72J5KvB0" d="M 370.71067811865476 87.86796564403575 L 369.68537328593425 117.90079764494592 L 366.75088014401007 145.14848378312547 L 362.11933072723826 169.92048470998884 L 356.0028570699746 192.5262610769506 L 348.61359120657517 213.27527353542524 L 340.1636651713959 232.47698273682727 L 330.8652109987928 250.44084933257125 L 320.9303607231218 267.4763339740717 L 310.5712463787389 283.89289731274306 L 300 299.99999999999994 L 289.4287536212611 316.1071026872569 L 279.0696392768782 332.5236660259282 L 269.1347890012072 349.55915066742864 L 259.8363348286041 367.5230172631725 L 251.38640879342483 386.72472646457464 L 243.9971429300254 407.4737389230493 L 237.8806692727618 430.07951529001116 L 233.24911985598993 454.8515162168744 L 230.31462671406578 482.09920235505376 L 229.28932188134524 512.1320343559642"/>
        </mask>
    </defs>
    <polygon fill="white" id="base-polygon" stroke="none" class="s-BgHh72J5KvB0" points="512.1320343559643,87.86796564403573 512.1320343559643,512.1320343559643 87.86796564403576,512.1320343559643 87.86796564403569,87.86796564403576"/>
    <g clip-path="url(#polygon-clip-4)" class="s-BgHh72J5KvB0">
        <polygon id="border-polygon" fill="none" stroke="#ff0000" stroke-width="0" filter="url(#glow)" class="s-BgHh72J5KvB0" points="512.1320343559643,87.86796564403573 512.1320343559643,512.1320343559643 87.86796564403576,512.1320343559643 87.86796564403569,87.86796564403576"/>
    </g>
    <g clip-path="url(#polygon-clip-4)" class="s-BgHh72J5KvB0">
        <rect width="100%" height="100%" fill="url(#redGradient)" mask="url(#pathMask)" class="s-BgHh72J5KvB0"/>
    </g>
</svg>